<?xml version="1.0" standalone="no"?>
<!DOCTYPE svg PUBLIC "-//W3C//DTD SVG 1.1//EN" "http://www.w3.org/Graphics/SVG/1.1/DTD/svg11.dtd" >
<svg xmlns="http://www.w3.org/2000/svg" xmlns:xlink="http://www.w3.org/1999/xlink" version="1.1">
<metadata>
Created by FontForge 20160407 at Mon Nov 28 22:08:27 2016
 By Jimmy Wärting
(c) 2011 Typodermic Fonts. See attached license agreement. If agreement is missing visit typodermicfonts.com for more info. A version of Wheaton with lowercase letters is available from Typodermic Fonts.
</metadata>
<defs>
<font id="WheatonCapitals-Regular" horiz-adv-x="665" >
  <font-face 
    font-family="Wheaton Capitals"
    font-weight="400"
    font-variant="small-caps"
    font-stretch="normal"
    units-per-em="1000"
    panose-1="2 11 6 6 2 2 1 8 5 4"
    ascent="795"
    descent="-205"
    cap-height="747"
    bbox="-105 -205 1185 995"
    underline-thickness="50"
    underline-position="-100"
    unicode-range="U+0017-25CA"
  />
<missing-glyph horiz-adv-x="846" 
d="M195 -205q-41 0 -68.5 8t-45 27t-25 51t-7.5 80v731q0 48 7.5 80t25 50.5t45 26.5t68.5 8h454q40 0 68.5 -8t45.5 -26.5t25 -50.5t8 -80v-731q0 -48 -8 -80t-25 -51t-45.5 -27t-68.5 -8h-454zM370 172q3 -2 9 -2q15 0 24 5.5t14 21.5l14 51q5 15 11.5 22t24.5 8l65 2
q27 1 46 4.5t32 12.5t21.5 25t15.5 42l40 148q2 14 4.5 26t2.5 23q0 37 -21 62t-67 37l-224 60q-23 5 -41.5 9t-33.5 4q-29 0 -47 -16t-28 -53l-19 -71q-1 -2 -1 -10q0 -17 19 -21l88 -23q13 -6 29 -6q7 0 11.5 2t6.5 10l4 16q4 15 20 15q4 0 7 -0.5t8 -1.5l93 -26
q11 -3 17.5 -7.5t6.5 -15.5q0 -7 -4 -16l-18 -70q-4 -14 -11 -19t-21 -5h-108q-20 0 -33.5 -3t-23.5 -11t-16.5 -21t-11.5 -33l-28 -104q-1 -5 -1.5 -9t-0.5 -6q0 -23 29 -31zM314 -53q5 -1 8 -1.5t4 -0.5q14 0 20.5 9.5t11.5 26.5l20 70q3 13 3 24q0 21 -26 30l-100 26
q-5 1 -8.5 1.5t-5.5 0.5q-14 0 -20.5 -10t-11.5 -27l-19 -69q-4 -12 -4 -23q0 -24 26 -30z" />
    <glyph glyph-name="copyright" unicode="&#x28;C&#x29;" horiz-adv-x="815" 
d="M212 0q-40 0 -68 8t-45 26.5t-25 50.5t-8 80v416q0 48 8 80t25 51t45 27t68 8h391q40 0 68 -8t45 -27t25 -51t8 -80v-416q0 -48 -8 -80t-25 -50.5t-45 -26.5t-68 -8h-391zM603 85q33 0 46.5 16.5t13.5 63.5v416q0 47 -13.5 63.5t-46.5 16.5h-391q-34 0 -47.5 -16.5
t-13.5 -63.5v-416q0 -47 13.5 -63.5t47.5 -16.5h391zM372 289q0 -21 5 -26.5t19 -5.5h39q12 0 16 3t4 12v19q0 10 11 10h60q13 0 13 -13v-26q0 -21 -8 -35t-21.5 -22t-30.5 -11.5t-34 -3.5h-60q-38 0 -60.5 4.5t-35 16t-16.5 31.5t-4 51v166q0 31 4 51.5t16.5 32t35 16
t60.5 4.5h46q24 0 43.5 -3t33.5 -11t22 -22.5t8 -36.5v-21q0 -14 -13 -14h-60q-11 0 -11 11v11q0 11 -3.5 15t-15.5 4h-39q-14 0 -19 -6t-5 -27v-174z" />
    <glyph glyph-name="registered" unicode="&#x28;R&#x29;" horiz-adv-x="815" 
d="M212 0q-40 0 -68 8t-45 26.5t-25 50.5t-8 80v416q0 48 8 80t25 51t45 27t68 8h391q40 0 68 -8t45 -27t25 -51t8 -80v-416q0 -48 -8 -80t-25 -50.5t-45 -26.5t-68 -8h-391zM603 85q33 0 46.5 16.5t13.5 63.5v416q0 47 -13.5 63.5t-46.5 16.5h-391q-34 0 -47.5 -16.5
t-13.5 -63.5v-416q0 -47 13.5 -63.5t47.5 -16.5h391zM556 207q0 -17 -17 -17h-71q-17 0 -17 17v95q0 20 -7.5 26.5t-24.5 6.5h-53q-10 0 -10 -12v-116q0 -17 -17 -17h-50q-17 0 -17 17v323q0 20 6.5 26.5t27.5 6.5h154q48 0 64 -15t16 -56v-71q0 -19 -7.5 -30.5t-7.5 -16.5
q0 -3 5 -7.5t10.5 -12t10.5 -19.5t5 -28v-100zM442 471q0 17 -7 22.5t-24 5.5h-44q-11 0 -11 -9v-83q0 -10 12 -10h51q23 0 23 26v48z" />
    <glyph glyph-name="uni2117" unicode="&#x28;P&#x29;" horiz-adv-x="815" 
d="M212 0q-40 0 -68 8t-45 26.5t-25 50.5t-8 80v416q0 48 8 80t25 51t45 27t68 8h391q40 0 68 -8t45 -27t25 -51t8 -80v-416q0 -48 -8 -80t-25 -50.5t-45 -26.5t-68 -8h-391zM603 85q33 0 46.5 16.5t13.5 63.5v416q0 47 -13.5 63.5t-46.5 16.5h-391q-34 0 -47.5 -16.5
t-13.5 -63.5v-416q0 -47 13.5 -63.5t47.5 -16.5h391zM382 311q-12 0 -12 -11v-93q0 -17 -18 -17h-62q-18 0 -18 17v320q0 21 7 28.5t29 7.5h134q32 0 51.5 -3.5t30 -14.5t14 -32t3.5 -57v-53q0 -43 -22 -67.5t-73 -24.5h-64zM418 374q34 0 34 40v41q0 23 -5 33.5t-26 10.5
h-41q-10 0 -10 -11v-102q0 -12 12 -12h36z" />
    <glyph glyph-name=".notdef" horiz-adv-x="846" 
d="M195 -205q-41 0 -68.5 8t-45 27t-25 51t-7.5 80v731q0 48 7.5 80t25 50.5t45 26.5t68.5 8h454q40 0 68.5 -8t45.5 -26.5t25 -50.5t8 -80v-731q0 -48 -8 -80t-25 -51t-45.5 -27t-68.5 -8h-454zM370 172q3 -2 9 -2q15 0 24 5.5t14 21.5l14 51q5 15 11.5 22t24.5 8l65 2
q27 1 46 4.5t32 12.5t21.5 25t15.5 42l40 148q2 14 4.5 26t2.5 23q0 37 -21 62t-67 37l-224 60q-23 5 -41.5 9t-33.5 4q-29 0 -47 -16t-28 -53l-19 -71q-1 -2 -1 -10q0 -17 19 -21l88 -23q13 -6 29 -6q7 0 11.5 2t6.5 10l4 16q4 15 20 15q4 0 7 -0.5t8 -1.5l93 -26
q11 -3 17.5 -7.5t6.5 -15.5q0 -7 -4 -16l-18 -70q-4 -14 -11 -19t-21 -5h-108q-20 0 -33.5 -3t-23.5 -11t-16.5 -21t-11.5 -33l-28 -104q-1 -5 -1.5 -9t-0.5 -6q0 -23 29 -31zM314 -53q5 -1 8 -1.5t4 -0.5q14 0 20.5 9.5t11.5 26.5l20 70q3 13 3 24q0 21 -26 30l-100 26
q-5 1 -8.5 1.5t-5.5 0.5q-14 0 -20.5 -10t-11.5 -27l-19 -69q-4 -12 -4 -23q0 -24 26 -30z" />
    <glyph glyph-name="uni0017" horiz-adv-x="303" 
 />
    <glyph glyph-name="space" unicode=" " horiz-adv-x="303" 
 />
    <glyph glyph-name="exclam" unicode="!" horiz-adv-x="337" 
d="M118 231q-37 0 -37 38v469q0 38 38 38h100q37 0 37 -38v-469q0 -38 -38 -38h-100zM116 0q-22 0 -28.5 11.5t-6.5 33.5v72q0 23 7.5 34.5t27.5 11.5h105q20 0 27.5 -11.5t7.5 -34.5v-72q0 -22 -7.5 -33.5t-27.5 -11.5h-105z" />
    <glyph glyph-name="quotedbl" unicode="&#x22;" horiz-adv-x="493" 
d="M57 470zM97 470q-28 0 -29 28l-10 241q-1 13 6.5 21t21.5 8h74q14 0 22 -8t7 -21l-11 -241q-1 -28 -29 -28h-52zM343 470q-28 0 -29 28l-10 241q-1 13 6.5 21t21.5 8h74q14 0 22 -8t7 -21l-11 -241q-1 -28 -29 -28h-52z" />
    <glyph glyph-name="numbersign" unicode="#" 
d="M429 0q-31 0 -31 30v161h-131v-161q0 -30 -31 -30h-43q-30 0 -30 30v161h-83q-31 0 -31 30v39q0 30 31 30h83v178h-83q-31 0 -31 30v40q0 29 31 29h83v150q0 30 30 30h43q31 0 31 -30v-150h131v150q0 30 31 30h42q30 0 30 -30v-150h85q30 0 30 -29v-40q0 -30 -30 -30h-85
v-178h85q30 0 30 -30v-39q0 -30 -30 -30h-85v-161q0 -30 -30 -30h-42zM398 468h-131v-178h131v178z" />
    <glyph glyph-name="dollar" unicode="$" 
d="M318 -21q-39 0 -39 37v32q0 28 -25 28h-74q-70 0 -98 26t-28 74v64q0 28 30 28h77q30 0 30 -25v-4q0 -23 22 -23h211q17 0 23.5 8.5t6.5 28.5v29q0 16 -5.5 21.5t-16.5 6.5l-249 18q-39 3 -64 10.5t-39 25t-19.5 46t-5.5 72.5v68q0 37 7.5 60.5t25.5 37.5t47 19.5t73 5.5
h52q19 0 19 21v37q0 37 39 37h31q37 0 37 -37v-37q0 -21 18 -21h112q36 0 59.5 -21t23.5 -74v-53q0 -27 -25 -27h-80q-22 0 -22 20v5q0 17 -22 17h-206q-26 0 -26 -29v-28q0 -26 23 -28l231 -16q46 -3 74.5 -12.5t43.5 -28.5t20 -48t5 -72v-58q0 -79 -34.5 -111.5
t-116.5 -32.5h-53q-25 0 -25 -28v-32q0 -37 -37 -37h-31z" />
    <glyph glyph-name="percent" unicode="%" horiz-adv-x="949" 
d="M66 0zM150 333q-23 0 -39 4.5t-26 15.5t-14.5 29t-4.5 46v224q0 55 19 75t65 20h131q46 0 65.5 -20t19.5 -75v-224q0 -28 -4.5 -46t-15 -29t-26.5 -15.5t-39 -4.5h-131zM173 439q0 -22 18 -22h51q17 0 17 22v202q0 22 -17 22h-51q-18 0 -18 -22v-202zM293 0
q-11 0 -17.5 6.5t-6.5 15.5t4 16l319 689q5 9 11 14.5t17 5.5h38q26 0 26 -25q0 -9 -4 -16l-318 -689q-8 -17 -29 -17h-40zM667 0q-23 0 -39 4.5t-26 15.5t-14.5 29t-4.5 46v224q0 55 19 75t65 20h131q46 0 65.5 -20t19.5 -75v-224q0 -28 -4.5 -46t-15 -29t-26.5 -15.5
t-39 -4.5h-131zM690 106q0 -22 18 -22h51q17 0 17 22v202q0 22 -17 22h-51q-18 0 -18 -22v-202z" />
    <glyph glyph-name="ampersand" unicode="&#x26;" horiz-adv-x="722" 
d="M651 450q24 0 24 -23v-33q0 -11 -1 -18t-5 -12.5t-12 -10t-22 -10.5q-16 -7 -27 -15.5t-14 -20.5v-158q0 -15 7.5 -22.5t27.5 -10.5q22 -4 30 -10.5t8 -27.5v-44q0 -17 -11 -25.5t-28 -8.5h-94q-27 0 -43.5 4.5t-27.5 10.5t-17.5 10.5t-12.5 4.5q-7 0 -15 -4.5t-20 -10.5
t-29 -10.5t-42 -4.5h-121q-47 0 -77 8.5t-47 25.5t-24 44t-7 63v151q0 29 8 48t24 36l52 54q11 9 11 19q0 9 -8 25q-8 13 -10.5 30.5t-2.5 37.5v119q0 29 5 46t17 26t31.5 11.5t49.5 2.5h248q25 0 25 -27v-81q0 -27 -25 -27h-162q-22 0 -22 -22v-61q0 -43 21 -61t53 -18h285
zM405 144q12 8 15.5 15t3.5 18v139q0 17 -13 20h-129q-32 0 -32 -34v-132q0 -21 9.5 -31.5t32.5 -10.5h60q20 0 29.5 3t23.5 13z" />
    <glyph glyph-name="quotesingle" unicode="'" horiz-adv-x="246" 
d="M97 470q-28 0 -29 28l-10 241q-1 13 6.5 21t21.5 8h74q14 0 22 -8t7 -21l-11 -241q-1 -28 -29 -28h-52z" />
    <glyph glyph-name="parenleft" unicode="(" horiz-adv-x="388" 
d="M119 341q0 148 14.5 247.5t41 159t64.5 84.5t85 25q43 0 43 -36q0 -43 -31 -47q-21 -3 -40.5 -16t-34 -56.5t-23.5 -128.5t-9 -232q0 -97 4 -166.5t11.5 -117t17 -76t21.5 -44t25.5 -21.5t27.5 -8q31 -4 31 -47q0 -36 -43 -36q-47 0 -85 25t-64.5 85t-41 159t-14.5 247z
" />
    <glyph glyph-name="parenright" unicode=")" horiz-adv-x="388" 
d="M269 341q0 -148 -14.5 -247t-41 -159t-64.5 -85t-85 -25q-43 0 -43 36q0 43 31 47q14 2 27.5 8t25.5 21.5t21.5 44t17 76t11.5 117t4 166.5q0 147 -9 232t-23.5 128.5t-34 56.5t-40.5 16q-31 4 -31 47q0 36 43 36q47 0 85 -25t64.5 -84.5t41 -159t14.5 -247.5z" />
    <glyph glyph-name="asterisk" unicode="*" horiz-adv-x="543" 
d="M25 583q0 8 2.5 19.5t7 22.5t12 18.5t16.5 7.5q5 0 14 -4l159 -66l-13 174q0 20 12 27t37 7q24 0 35.5 -7t11.5 -27l-13 -173l160 67q3 3 7 3.5t8 0.5q14 0 25.5 -21t11.5 -46q0 -23 -23 -28l-168 -40l113 -131q10 -11 10 -21q0 -7 -7 -16t-17 -17t-21 -13.5t-19 -5.5
q-13 0 -23 16l-90 147l-91 -149q-10 -16 -23 -16q-8 0 -18.5 5.5t-21 14t-17.5 17.5t-7 16q0 9 11 20l110 131l-167 40q-14 3 -19 10t-5 17z" />
    <glyph glyph-name="plus" unicode="+" 
d="M280 304q0 22 -21 22h-160q-14 0 -22 8t-8 21v35q0 19 6.5 29.5t23.5 10.5h160q21 0 21 21v159q0 14 8 22t21 8h35q19 0 29.5 -6.5t10.5 -23.5v-159q0 -21 22 -21h160q29 0 29 -29v-35q0 -17 -6 -28.5t-23 -11.5h-160q-22 0 -22 -22v-161q0 -29 -29 -29h-35q-16 0 -28 6
t-12 23v161z" />
    <glyph glyph-name="comma" unicode="," horiz-adv-x="317" 
d="M155 -52q0 16 -11 24l-52 33q-13 8 -17.5 17.5t-4.5 26.5v65q0 49 36 49h104q36 0 36 -47v-230q0 -28 -25 -28h-39q-27 0 -27 28v62z" />
    <glyph glyph-name="hyphen" unicode="-" horiz-adv-x="312" 
d="M76 296q-20 0 -32 5.5t-12 22.5v47q0 12 8.5 20t20.5 8h177q22 0 32 -6t10 -22v-47q0 -12 -7 -20t-21 -8h-176z" />
    <glyph glyph-name="period" unicode="." horiz-adv-x="317" 
d="M106 0q-22 0 -29 11.5t-7 33.5v72q0 23 7.5 34.5t28.5 11.5h104q21 0 28.5 -11.5t7.5 -34.5v-72q0 -22 -7 -33.5t-29 -11.5h-104z" />
    <glyph glyph-name="slash" unicode="/" horiz-adv-x="350" 
d="M32 -97q-31 0 -31 26q0 9 1 11l236 813q6 24 37 24h44q31 0 31 -25q0 -3 -2 -13l-236 -813q-4 -12 -14.5 -17.5t-21.5 -5.5h-44z" />
    <glyph glyph-name="zero" unicode="0" 
d="M212 0q-40 0 -68 8t-45 26.5t-25 50.5t-8 80v416q0 48 8 80t25 51t45 27t68 8h241q40 0 68 -8t45.5 -27t25 -51t7.5 -80v-416q0 -48 -7.5 -80t-25 -50.5t-45.5 -26.5t-68 -8h-241zM241 183q0 -49 44 -49h96q43 0 43 49v380q0 49 -43 49h-96q-44 0 -44 -49v-380z" />
    <glyph glyph-name="one" unicode="1" 
d="M165 0q-26 0 -26 28v136q0 27 26 27h70q28 0 28 32v340q0 14 -3.5 21.5t-16.5 12.5l-28 12q-13 6 -13 29v72q0 26 16 31.5t45 5.5h101q50 0 50 -55v-474q1 -27 28 -27h57q27 0 27 -27v-137q0 -27 -27 -27h-334z" />
    <glyph glyph-name="two" unicode="2" 
d="M116 0q-53 0 -53 51v224q0 43 6.5 72.5t23.5 48.5t46 28t75 11l157 5q36 2 52 16.5t16 46.5v39q0 36 -13.5 53t-50.5 17h-244q-23 0 -32 10.5t-9 31.5v50q0 17 9 30t32 13h258q54 0 93.5 -7.5t65.5 -27.5t38.5 -56t12.5 -93v-67q0 -47 -8.5 -80t-26.5 -54t-46.5 -31
t-68.5 -11l-166 -5q-29 -1 -42 -13t-13 -41v-95q0 -16 16 -16h331q25 0 25 -26v-94q0 -30 -25 -30h-459z" />
    <glyph glyph-name="three" unicode="3" 
d="M85 398q0 17 9.5 29.5t32.5 12.5h224q21 0 33.5 13t12.5 37v89q0 22 -9.5 31t-29.5 11h-231q-23 0 -32.5 10.5t-9.5 30.5v42q0 17 9.5 30t32.5 13h291q43 0 72 -6t47 -20t25.5 -37.5t7.5 -58.5v-134q0 -20 -4.5 -33.5t-9.5 -23t-9.5 -17t-4.5 -15.5t6.5 -18t27.5 -31
q11 -11 18.5 -21.5t12 -23t6 -28.5t1.5 -37v-114q0 -32 -5 -56.5t-18.5 -40.5t-37 -24t-60.5 -8h-404q-26 0 -26 30v94q0 26 26 26h275q24 0 33 10t9 33v77q0 53 -56 53h-223q-23 0 -32.5 10.5t-9.5 31.5v33v0z" />
    <glyph glyph-name="four" unicode="4" 
d="M602 45q0 -45 -46 -45h-105q-46 0 -46 45v159q0 25 -24 25h-216q-101 0 -101 103v369q0 46 45 46h95q46 0 46 -46v-328q0 -26 26 -26h107q22 0 22 21v110q0 45 45 45h106q46 0 46 -45v-433z" />
    <glyph glyph-name="five" unicode="5" 
d="M111 0q-26 0 -26 30v94q0 26 26 26h269q26 0 38.5 12t12.5 41v74q0 28 -12 39t-48 11h-236q-29 0 -39 13.5t-10 35.5l11 318q1 26 14 39.5t35 13.5h428q25 0 25 -27v-82q0 -26 -25 -26h-283q-14 0 -19 -9t-6 -24l-6 -105q0 -8 3 -11.5t12 -3.5h124q62 0 102.5 -9.5
t64 -31t32.5 -57.5t9 -90v-76q0 -51 -7 -88t-26 -60.5t-52.5 -35t-85.5 -11.5h-325z" />
    <glyph glyph-name="six" unicode="6" 
d="M282 0q-67 0 -109.5 8t-66.5 28t-33 54.5t-9 87.5v408q0 78 40.5 119.5t133.5 41.5h154q83 0 114.5 -29t31.5 -87v-53q0 -26 -27 -26h-105q-13 0 -17 4.5t-4 14.5v16q0 15 -9 20t-27 5h-75q-24 0 -34 -10t-10 -36v-117q0 -12 5.5 -17.5t21.5 -5.5h155q59 0 97 -9t60 -29
t30.5 -52t8.5 -78v-76q0 -50 -7.5 -84.5t-27 -56t-52 -31.5t-82.5 -10h-157zM442 239q0 20 -3 33.5t-12.5 21t-26.5 10.5t-45 3h-97q-17 0 -22.5 -7.5t-5.5 -26.5v-79q0 -41 13.5 -52t49.5 -11h78q40 0 55.5 13t15.5 45v50z" />
    <glyph glyph-name="seven" unicode="7" 
d="M422 267q-9 -8 -12.5 -19t-3.5 -23v-191q0 -34 -35 -34h-114q-35 0 -35 34v221q0 35 20 52l203 181q11 10 15.5 18t4.5 25v52q0 28 -23 28h-233q-18 0 -18 -20v-49q0 -27 -30 -27h-98q-26 0 -26 27v152q0 23 12 38t33 15h510q33 0 33 -35v-227q0 -38 -26 -61z" />
    <glyph glyph-name="eight" unicode="8" 
d="M173 0q-37 0 -60.5 8t-37 24t-19 40.5t-5.5 56.5v107q0 25 1.5 41.5t5.5 29t11 22.5t18 21q17 17 22 24.5t5 20.5q0 10 -4 17t-16 17q-9 7 -14.5 12.5t-8.5 11t-4 12.5t-1 18v142q0 35 7.5 58.5t25.5 37.5t47 20t72 6h230q43 0 72 -6t46.5 -20t25 -37.5t7.5 -58.5v-142
q0 -11 -1 -18t-4 -12.5t-8 -11t-14 -12.5q-12 -10 -16.5 -17t-4.5 -17q0 -12 5.5 -20.5t21.5 -24.5q11 -11 18 -21t11 -22t5.5 -29t1.5 -42v-107q0 -32 -5 -56.5t-18.5 -40.5t-37 -24t-60.5 -8h-320zM284 324q-57 0 -57 -53v-101q0 -23 9.5 -33t33.5 -10h130q24 0 33.5 10
t9.5 33v101q0 53 -57 53h-102zM284 621q-23 0 -34 -9.5t-11 -32.5v-95q0 -24 12.5 -36.5t33.5 -12.5h107q21 0 33.5 12.5t12.5 36.5v95q0 23 -11 32.5t-33 9.5h-110z" />
    <glyph glyph-name="nine" unicode="9" 
d="M384 747q67 0 109.5 -8t66.5 -28.5t33 -55t9 -87.5v-386q0 -94 -45 -138t-152 -44h-155q-42 0 -69.5 7t-44.5 21.5t-24 36t-7 50.5v59q0 23 26 23h105q13 0 17 -4t4 -14v-14q0 -15 9 -20t27 -5h87q29 0 42 12.5t13 44.5v78q0 12 -5 18t-22 6h-181q-49 0 -81.5 9.5t-52 28
t-27.5 45.5t-8 62v120q0 49 7.5 84t27 57t51.5 32t82 10h158zM224 492q0 -21 3 -34t12 -21t26 -11t45 -3h97q17 0 22.5 8t5.5 27v94q0 21 -3 33.5t-10.5 19t-19.5 8.5t-30 2h-78q-40 0 -55 -12.5t-15 -44.5v-66z" />
    <glyph glyph-name="colon" unicode=":" horiz-adv-x="317" 
d="M106 0q-22 0 -29 11.5t-7 33.5v72q0 23 7.5 34.5t28.5 11.5h104q21 0 28.5 -11.5t7.5 -34.5v-72q0 -22 -7 -33.5t-29 -11.5h-104zM106 375q-22 0 -29 11.5t-7 33.5v73q0 23 7.5 34.5t28.5 11.5h104q21 0 28.5 -11.5t7.5 -34.5v-73q0 -22 -7 -33.5t-29 -11.5h-104z" />
    <glyph glyph-name="semicolon" unicode=";" horiz-adv-x="318" 
d="M155 -52q0 16 -11 24l-52 33q-13 8 -17.5 17.5t-4.5 26.5v65q0 49 36 49h104q36 0 36 -47v-230q0 -28 -25 -28h-39q-27 0 -27 28v62zM106 375q-22 0 -29 11.5t-7 33.5v73q0 23 7.5 34.5t28.5 11.5h104q21 0 28.5 -11.5t7.5 -34.5v-73q0 -22 -7 -33.5t-29 -11.5h-104z" />
    <glyph glyph-name="less" unicode="&#x3c;" 
d="M69 400q0 23 16 30l454 206q9 4 17 6.5t16 2.5q23 0 23 -25v-55q0 -14 -4.5 -20.5t-14.5 -11.5l-370 -161l370 -161q19 -9 19 -32v-54q0 -26 -23 -26q-17 0 -33 10l-454 206q-16 7 -16 29v56z" />
    <glyph glyph-name="equal" unicode="=" 
d="M99 454q-14 0 -22 8t-8 21v35q0 19 6.5 29.5t23.5 10.5h467q29 0 29 -29v-35q0 -17 -6 -28.5t-23 -11.5h-467zM99 198q-14 0 -22 8t-8 21v35q0 19 6.5 29.5t23.5 10.5h467q29 0 29 -29v-35q0 -17 -6 -28.5t-23 -11.5h-467z" />
    <glyph glyph-name="greater" unicode="&#x3e;" 
d="M596 344q0 -10 -4 -18t-12 -11l-453 -206q-11 -5 -18.5 -8t-14.5 -2q-24 0 -24 26v54q0 14 5 20.5t15 11.5l370 161l-370 161q-10 5 -15 11.5t-5 20.5v55q0 14 6.5 19.5t17.5 5.5q7 -1 15 -2.5t18 -6.5l453 -206q16 -6 16 -30v-56z" />
    <glyph glyph-name="question" unicode="?" horiz-adv-x="547" 
d="M191 231q-37 0 -37 38v107q0 21 3 36t10 24.5t19.5 16t31.5 11.5l104 27q25 6 25 33v72q0 20 -7.5 26.5t-22.5 6.5h-97q-17 0 -23.5 -5t-6.5 -16v-16q0 -14 -14.5 -16.5t-29.5 -2.5h-91q-25 0 -25 25v74q0 29 7.5 47.5t23 28.5t40 13.5t59.5 3.5h231q63 0 90.5 -31.5
t27.5 -91.5v-152q0 -27 -4.5 -45t-15 -30t-28 -20.5t-42.5 -15.5l-63 -20q-17 -5 -22.5 -14t-5.5 -23v-53q0 -38 -38 -38h-99zM189 0q-22 0 -28.5 11.5t-6.5 33.5v72q0 23 7 34.5t28 11.5h104q21 0 28 -11.5t7 -34.5v-72q0 -22 -6.5 -33.5t-28.5 -11.5h-104z" />
    <glyph glyph-name="at" unicode="@" horiz-adv-x="707" 
d="M486 -27q16 0 23 7t12.5 15.5t12.5 15.5t22 7h37q19 0 26.5 -14.5t7.5 -35.5v-35q0 -35 -21 -54.5t-66 -19.5h-330q-45 0 -72.5 10t-42.5 31t-20 54t-5 78v427q0 61 8 102t28.5 65.5t56.5 35t92 10.5h208q43 0 75.5 -6.5t54.5 -25.5t33 -52.5t11 -87.5v-375
q0 -25 -25 -25h-238q-34 0 -54.5 9.5t-32 29t-15 50.5t-3.5 74v35q0 78 22.5 114t86.5 36h139q11 0 11 11v38q0 34 -17 49t-67 15h-161q-29 0 -46.5 -5t-27.5 -17.5t-13.5 -32.5t-3.5 -50v-428q0 -31 13 -43t36 -12h245zM515 195q13 0 13 13v133q0 17 -22 17h-56
q-25 0 -32 -15.5t-7 -49.5v-33q0 -35 7 -50t32 -15h65z" />
    <glyph glyph-name="A" unicode="A" horiz-adv-x="735" 
d="M309 397q0 -29 28 -29h108q27 0 27 29v178q0 19 -7 29t-27 10h-90q-22 0 -30.5 -9.5t-8.5 -29.5v-178zM675 36q0 -36 -30 -36h-111q-30 0 -30 36v180q0 26 -24 26h-193q-24 0 -24 -26v-180q0 -36 -29 -36h-142q-32 0 -32 36v243q0 14 1 23.5t4.5 17t9.5 14.5t15 15
q13 11 19 20.5t6 24.5v248q0 58 27 81.5t82 23.5h283q60 0 81.5 -23.5t21.5 -81.5v-259q0 -15 7.5 -24.5t22.5 -20.5q20 -16 27.5 -28.5t7.5 -40.5v-233z" />
    <glyph glyph-name="B" unicode="B" horiz-adv-x="699" 
d="M139 0q-41 0 -55 13.5t-14 51.5v615q0 39 14 53t55 14h312q43 0 72 -6t47 -20t25.5 -37.5t7.5 -58.5v-134q0 -20 -4.5 -33.5t-9.5 -23t-9.5 -17t-4.5 -15.5t6.5 -18t27.5 -31q11 -11 18.5 -21.5t12 -23t6 -28.5t1.5 -37v-114q0 -32 -5 -56.5t-18.5 -40.5t-37 -24
t-60.5 -8h-387zM431 270q0 53 -57 53h-107q-20 0 -20 -23v-153q0 -20 21 -20h120q24 0 33.5 10t9.5 33v100zM413 579q0 23 -11 32.5t-34 9.5h-100q-21 0 -21 -21v-138q0 -22 23 -22h97q21 0 33.5 13t12.5 37v89z" />
    <glyph glyph-name="C" unicode="C" horiz-adv-x="669" 
d="M272 199q0 -41 10 -53t36 -12h80q23 0 31.5 7t8.5 24v38q0 20 22 20h118q27 0 27 -27v-50q0 -43 -16.5 -71t-43.5 -44.5t-61 -23.5t-68 -7h-120q-75 0 -120.5 9t-70.5 32.5t-33 63.5t-8 103v331q0 63 8 103t33 63.5t70.5 32.5t120.5 9h92q47 0 86.5 -6t68 -22t44.5 -45
t16 -74v-41q0 -27 -27 -27h-118q-22 0 -22 20v22q0 21 -7.5 29.5t-30.5 8.5h-80q-26 0 -36 -11.5t-10 -53.5v-348z" />
    <glyph glyph-name="D" unicode="D" horiz-adv-x="686" 
d="M70 693q0 29 12.5 41.5t41.5 12.5h343q46 0 76.5 -8.5t48 -27.5t24.5 -49t7 -73v-307q0 -70 -8.5 -112t-25.5 -71q-29 -48 -79 -73.5t-122 -25.5h-264q-29 0 -41.5 12.5t-12.5 40.5v640zM337 134q52 0 73 43q6 12 8.5 34t2.5 72v287q0 23 -9 32.5t-34 9.5h-109
q-19 0 -19 -20v-437q0 -21 19 -21h68z" />
    <glyph glyph-name="E" unicode="E" horiz-adv-x="613" 
d="M299 314q-25 0 -25 -27v-129q0 -21 21 -21h229q26 0 26 -26v-81q0 -30 -28 -30h-379q-73 0 -73 68v624q0 55 56 55h388q27 0 27 -27v-84q0 -27 -27 -27h-221q-19 0 -19 -19v-126q0 -21 19 -21h214q25 0 25 -26v-75q0 -25 -24 -28h-209z" />
    <glyph glyph-name="F" unicode="F" horiz-adv-x="555" 
d="M272 610q-19 0 -19 -19v-146q0 -29 26 -29h192q25 0 25 -26v-74q0 -29 -25 -29h-173q-27 0 -27 -27v-226q0 -34 -35 -34h-130q-36 0 -36 34v665q0 48 48 48h367q27 0 27 -27v-83q0 -27 -27 -27h-213z" />
    <glyph glyph-name="G" unicode="G" horiz-adv-x="678" 
d="M261 196q0 -41 10 -53t36 -12h109q22 0 22 22v99q0 17 -6.5 25t-14 13t-13.5 11t-6 20v50q0 31 35 31h144q39 0 39 -38v-245q0 -35 -4.5 -58t-17.5 -36.5t-36.5 -19t-60.5 -5.5h-201q-75 0 -120.5 9t-70.5 32.5t-33 63.5t-8 103v331q0 63 8 103t33 63.5t70.5 32.5
t120.5 9h123q48 0 83 -6t58 -22t34 -45t11 -74v-37q0 -27 -27 -27h-118q-22 0 -22 21v19q0 21 -7.5 29.5t-30.5 8.5h-93q-26 0 -36 -11.5t-10 -53.5v-353z" />
    <glyph glyph-name="H" unicode="H" horiz-adv-x="696" 
d="M498 0q-36 0 -36 34v244q0 34 -35 34h-111q-34 0 -34 -34v-244q0 -34 -36 -34h-140q-36 0 -36 34v677q0 36 36 36h139q37 0 37 -36v-227q0 -32 34 -32h111q35 0 35 32v227q0 36 35 36h93q36 0 36 -36v-677q0 -34 -36 -34h-92z" />
    <glyph glyph-name="I" unicode="I" horiz-adv-x="355" 
d="M247 747q36 0 36 -36v-677q0 -34 -36 -34h-139q-35 0 -35 34v677q0 36 35 36h139v0z" />
    <glyph glyph-name="J" unicode="J" horiz-adv-x="572" 
d="M143 0q-71 0 -99 28t-28 94v48q0 26 26 26h108q9 0 14.5 -4t5.5 -16v-28q0 -8 2 -10.5t10 -2.5h82q26 0 33 17.5t7 59.5v499q0 36 35 36h130q35 0 35 -36v-512q0 -50 -7 -87t-26 -62t-53.5 -37.5t-89.5 -12.5h-185z" />
    <glyph glyph-name="K" unicode="K" horiz-adv-x="701" 
d="M482 0q-38 0 -38 39v206q0 36 -19.5 57t-72.5 21h-50q-22 0 -22 -24v-260q0 -39 -36 -39h-137q-37 0 -37 39v666q0 42 39 42h135q36 0 36 -42v-237q0 -24 22 -24h47q18 0 34 11.5t27.5 29.5t18.5 39t7 41v140q0 42 40 42h95q34 0 34 -42v-102q0 -21 -1.5 -35.5t-6 -27
t-12.5 -25t-20 -28.5q-19 -25 -24.5 -38.5t-5.5 -26.5t8.5 -26t40.5 -36q16 -12 27 -22.5t18 -23.5t10 -30t3 -41v-204q0 -39 -34 -39h-126z" />
    <glyph glyph-name="L" unicode="L" horiz-adv-x="547" 
d="M269 160q0 -25 24 -25h195q26 0 26 -26v-79q0 -30 -26 -30h-316q-102 0 -102 100v611q0 36 36 36h128q35 0 35 -36v-551z" />
    <glyph glyph-name="M" unicode="M" horiz-adv-x="1021" 
d="M770 747q47 0 81.5 -4.5t57 -21t33.5 -47.5t11 -83v-556q0 -35 -36 -35h-105q-37 0 -37 35v533q0 39 -37 39h-78q-26 0 -26 -25v-547q0 -35 -37 -35h-121q-37 0 -37 35v547q0 25 -22 25h-94q-25 0 -25 -25v-547q0 -35 -37 -35h-155q-36 0 -36 35v676q0 36 36 36h664z" />
    <glyph glyph-name="N" unicode="N" horiz-adv-x="707" 
d="M447 747q51 0 87.5 -4.5t60 -20.5t34.5 -47t11 -84v-556q0 -35 -36 -35h-106q-36 0 -36 35v511q0 37 -11.5 49t-43.5 12h-82q-23 0 -30 -8.5t-7 -32.5v-531q0 -35 -36 -35h-146q-36 0 -36 35v676q0 36 36 36h341z" />
    <glyph glyph-name="O" unicode="O" horiz-adv-x="677" 
d="M272 0q-56 0 -95.5 7.5t-64.5 29t-36.5 59.5t-11.5 100v344q0 65 8.5 105.5t31 63t63 30.5t105.5 8h133q56 0 95.5 -7.5t64.5 -27.5t36.5 -54t11.5 -86v-377q0 -49 -6 -85.5t-24 -61t-51 -36.5t-87 -12h-173zM448 522q0 55 -10.5 75.5t-41.5 20.5h-79q-34 0 -43.5 -19.5
t-9.5 -67.5v-330q0 -16 1 -29t6.5 -22.5t16 -15t29.5 -5.5h78q31 0 42 15t11 57v321z" />
    <glyph glyph-name="P" unicode="P" horiz-adv-x="660" 
d="M290 244q-22 0 -22 -24v-186q0 -34 -37 -34h-124q-37 0 -37 34v641q0 40 15 56t59 16h267q64 0 103 -6.5t60 -29t28 -64.5t7 -114v-106q0 -87 -44 -135t-147 -48h-128zM363 370q35 0 51.5 18.5t16.5 60.5v83q0 23 -2 39.5t-8.5 27t-18.5 15.5t-33 5h-82q-19 0 -19 -21
v-206q0 -22 22 -22h73z" />
    <glyph glyph-name="Q" unicode="Q" horiz-adv-x="690" 
d="M468 -52q-23 0 -32 18l-20 41q-7 14 -11.5 17t-18.5 3h-147q-51 0 -84 8t-51.5 27.5t-26 53.5t-7.5 87v345q0 57 9 95.5t33 61.5t65.5 32.5t107.5 9.5h120q63 0 104.5 -9.5t66 -33t34.5 -62t10 -96.5v-330q0 -29 -6 -48.5t-12.5 -34t-12.5 -24.5t-6 -20q0 -15 4 -25.5
t15 -28.5q8 -14 9.5 -22t1.5 -24v-15q0 -26 -31 -26h-114zM461 546q0 34 -9.5 53t-43.5 19h-87q-33 0 -42.5 -18.5t-9.5 -53.5v-334q0 -32 12.5 -43.5t33.5 -11.5h20q17 0 21 10t5 21.5t5 21.5t22 10h39q19 0 26.5 6.5t7.5 29.5v290z" />
    <glyph glyph-name="R" unicode="R" horiz-adv-x="697" 
d="M639 34q0 -34 -35 -34h-140q-35 0 -35 34v190q0 40 -14.5 53t-48.5 13h-107q-19 0 -19 -23v-233q0 -34 -35 -34h-99q-36 0 -36 34v646q0 39 14 53t55 14h308q48 0 78.5 -6.5t48.5 -23t25 -44t7 -69.5v-141q0 -19 -4.5 -34t-10 -26.5t-10 -19.5t-4.5 -13q0 -6 9.5 -15.5
t21.5 -25t21.5 -38.5t9.5 -56v-201zM411 563q0 35 -13.5 46t-48.5 11h-89q-20 0 -20 -21v-163q0 -21 22 -21h103q46 0 46 52v96z" />
    <glyph glyph-name="S" unicode="S" horiz-adv-x="638" 
d="M239 499q0 -22 4 -29t24 -10l195 -30q38 -6 62.5 -16t38.5 -26.5t19.5 -41t5.5 -59.5v-79q0 -63 -8 -103t-31.5 -63.5t-67 -32.5t-113.5 -9h-134q-42 0 -75 6.5t-55.5 23t-34.5 44.5t-12 72v42q0 26 26 26h115q22 0 22 -20v-29q0 -17 8.5 -24t31.5 -7h88q26 0 36 12
t10 53v44q0 20 -8 27.5t-24 9.5l-176 28q-36 6 -61.5 15.5t-41 26.5t-22.5 43.5t-7 66.5v79q0 63 8 103t32 63.5t68 32.5t116 9h95q55 0 93.5 -5.5t62.5 -21t34.5 -44.5t10.5 -76v-30q0 -27 -27 -27h-110q-21 0 -21 20v11q0 21 -7.5 29.5t-30.5 8.5h-93q-26 0 -36 -11.5
t-10 -53.5v-48z" />
    <glyph glyph-name="T" unicode="T" horiz-adv-x="546" 
d="M222 0q-36 0 -36 34v525q0 32 -29 32h-122q-26 0 -26 27v101q0 28 26 28h476q27 0 27 -27v-102q0 -27 -27 -27h-122q-27 0 -27 -32v-525q0 -34 -37 -34h-103z" />
    <glyph glyph-name="U" unicode="U" horiz-adv-x="699" 
d="M308 0q-69 0 -115 4.5t-74 20.5t-40 47t-12 84v555q0 36 36 36h136q36 0 36 -36v-530q0 -30 10 -41t36 -11h94q27 0 37 11t10 41v530q0 18 8 27t28 9h98q35 0 35 -36v-555q0 -41 -8 -70.5t-28.5 -48.5t-54 -28t-84.5 -9h-148z" />
    <glyph glyph-name="V" unicode="V" horiz-adv-x="702" 
d="M308 0q-19 0 -38 9.5t-30 25.5l-138 200q-12 17 -20 30t-13 26t-7 27t-2 32v356q0 41 40 41h143q41 0 41 -41v-322q0 -21 0.5 -34t4 -25t11 -26.5t20.5 -39.5q11 -21 19.5 -33.5t16 -18.5t14 -8t14.5 -2h7q6 0 11.5 1.5t11.5 6.5t13.5 15.5t18.5 27.5q18 30 27.5 47.5
t14 30.5t5.5 24t1 28v328q0 41 38 41h71q39 0 39 -41v-353q0 -19 -1.5 -33t-6 -27t-11.5 -26.5t-19 -29.5l-139 -202q-12 -17 -29 -26t-46 -9h-82z" />
    <glyph glyph-name="W" unicode="W" horiz-adv-x="953" 
d="M221 0q-44 0 -73.5 8.5t-47.5 27t-25.5 47.5t-7.5 71v557q0 36 35 36h139q36 0 36 -36v-536q0 -35 37 -35h81q22 0 22 24v547q0 36 36 36h101q36 0 36 -36v-547q0 -24 26 -24h73q33 0 33 35v536q0 36 36 36h92q36 0 36 -36v-555q0 -53 -11 -83.5t-33.5 -47t-57 -21
t-80.5 -4.5h-483z" />
    <glyph glyph-name="X" unicode="X" horiz-adv-x="696" 
d="M638 36q0 -36 -30 -36h-108q-30 0 -30 36v221q0 25 -3.5 40.5t-11.5 24t-22.5 11.5t-36.5 3h-54q-24 0 -39 -3t-24 -11.5t-12 -24t-3 -40.5v-221q0 -36 -29 -36h-144q-32 0 -32 36v172q0 18 1 32t3.5 25.5t6.5 21.5t11 22q10 18 19 29.5t16 19t11 13t4 10.5
q0 10 -17 28.5t-29 42.5q-6 10 -9 18t-4.5 16t-2 17t-0.5 22v185q0 37 30 37h141q30 0 30 -37v-193q0 -21 3.5 -35t13 -22t26 -11.5t42.5 -3.5h34q48 0 63.5 15t15.5 57v193q0 37 35 37h92q32 0 32 -37v-185q0 -15 -0.5 -24t-2 -16.5t-4.5 -15t-9 -17.5q-6 -11 -14 -22
t-15 -20.5t-12 -17t-5 -11.5q0 -5 4 -10t10.5 -13t15.5 -19.5t20 -29.5q13 -24 18 -43t5 -50v-180z" />
    <glyph glyph-name="Y" unicode="Y" horiz-adv-x="670" 
d="M462 283q-26 0 -34 -8.5t-8 -33.5v-207q0 -34 -36 -34h-102q-37 0 -37 34v210q0 23 -7 31t-33 8h-65q-45 0 -66 29t-21 75v323q0 37 30 37h107q30 0 30 -37v-274q0 -23 7 -31t30 -8h127q20 0 27.5 8t7.5 31v274q0 37 30 37h138q29 0 29 -37v-323q0 -45 -26 -74.5
t-72 -29.5h-56z" />
    <glyph glyph-name="Z" unicode="Z" horiz-adv-x="660" 
d="M124 0q-60 0 -60 65v189q0 37 27 58l304 231q15 12 15 27v16q0 17 -20 17h-289q-32 0 -32 32v78q0 34 32 34h433q54 0 54 -53v-168q0 -14 -3.5 -25.5t-8.5 -20.5l-300 -240q-20 -17 -20 -38v-20q0 -20 23 -20h295q28 0 28 -28v-103q0 -31 -30 -31h-448z" />
    <glyph glyph-name="bracketleft" unicode="[" horiz-adv-x="367" 
d="M225 -52q0 -16 7 -21.5t21 -5.5h48q17 0 27.5 -9.5t10.5 -26.5v-23q0 -17 -10.5 -27t-27.5 -10h-140q-43 0 -43 49v934q0 49 43 49h140q17 0 27.5 -9.5t10.5 -27.5v-22q0 -17 -10.5 -27t-27.5 -10h-48q-17 0 -22.5 -6t-5.5 -19v-788z" />
    <glyph glyph-name="backslash" unicode="\" horiz-adv-x="350" 
d="M274 -97q-12 0 -22.5 5.5t-13.5 17.5l-236 813q-2 10 -2 13q0 25 31 25h44q29 0 37 -24l236 -813q1 -2 1 -11q0 -26 -31 -26h-44z" />
    <glyph glyph-name="bracketright" unicode="]" horiz-adv-x="367" 
d="M142 736q0 13 -6 19t-22 6h-48q-17 0 -27.5 10t-10.5 27v22q0 18 10.5 27.5t27.5 9.5h140q42 0 42 -49v-934q0 -49 -42 -49h-140q-17 0 -27.5 10t-10.5 27v23q0 17 10.5 26.5t27.5 9.5h48q14 0 21 5.5t7 21.5v788z" />
    <glyph glyph-name="asciicircum" unicode="^" 
d="M360 747q23 0 30 -16l206 -454q5 -11 8 -18t2 -15q0 -23 -26 -23h-54q-25 0 -32 19l-161 370l-161 -370q-5 -10 -11.5 -14.5t-20.5 -4.5h-55q-25 0 -25 23q0 13 9 33l206 454q7 16 30 16h55z" />
    <glyph glyph-name="underscore" unicode="_" 
d="M39 -174q-28 0 -28 28v47q0 28 28 28h586q30 0 30 -28v-47q0 -28 -30 -28h-586z" />
    <glyph glyph-name="grave" unicode="`" horiz-adv-x="388" 
d="M229 605q-17 0 -27 10l-123 132q-9 9 -9 19q0 19 21 19h98q12 0 16 -2t9 -9l98 -139q6 -8 6 -15q0 -8 -6 -11.5t-14 -3.5h-69z" />
    <glyph glyph-name="a" unicode="a" horiz-adv-x="735" 
d="M60 0zM309 397q0 -29 28 -29h108q27 0 27 29v178q0 19 -7 29t-27 10h-90q-22 0 -30.5 -9.5t-8.5 -29.5v-178zM675 36q0 -36 -30 -36h-111q-30 0 -30 36v180q0 26 -24 26h-193q-24 0 -24 -26v-180q0 -36 -29 -36h-142q-32 0 -32 36v243q0 14 1 23.5t4.5 17t9.5 14.5t15 15
q13 11 19 20.5t6 24.5v248q0 58 27 81.5t82 23.5h283q60 0 81.5 -23.5t21.5 -81.5v-259q0 -15 7.5 -24.5t22.5 -20.5q20 -16 27.5 -28.5t7.5 -40.5v-233z" />
    <glyph glyph-name="b" unicode="b" horiz-adv-x="699" 
d="M70 0zM139 0q-41 0 -55 13.5t-14 51.5v615q0 39 14 53t55 14h312q43 0 72 -6t47 -20t25.5 -37.5t7.5 -58.5v-134q0 -20 -4.5 -33.5t-9.5 -23t-9.5 -17t-4.5 -15.5t6.5 -18t27.5 -31q11 -11 18.5 -21.5t12 -23t6 -28.5t1.5 -37v-114q0 -32 -5 -56.5t-18.5 -40.5t-37 -24
t-60.5 -8h-387zM431 270q0 53 -57 53h-107q-20 0 -20 -23v-153q0 -20 21 -20h120q24 0 33.5 10t9.5 33v100zM413 579q0 23 -11 32.5t-34 9.5h-100q-21 0 -21 -21v-138q0 -22 23 -22h97q21 0 33.5 13t12.5 37v89z" />
    <glyph glyph-name="c" unicode="c" horiz-adv-x="669" 
d="M64 0zM272 199q0 -41 10 -53t36 -12h80q23 0 31.5 7t8.5 24v38q0 20 22 20h118q27 0 27 -27v-50q0 -43 -16.5 -71t-43.5 -44.5t-61 -23.5t-68 -7h-120q-75 0 -120.5 9t-70.5 32.5t-33 63.5t-8 103v331q0 63 8 103t33 63.5t70.5 32.5t120.5 9h92q47 0 86.5 -6t68 -22
t44.5 -45t16 -74v-41q0 -27 -27 -27h-118q-22 0 -22 20v22q0 21 -7.5 29.5t-30.5 8.5h-80q-26 0 -36 -11.5t-10 -53.5v-348z" />
    <glyph glyph-name="d" unicode="d" horiz-adv-x="686" 
d="M70 0zM70 693q0 29 12.5 41.5t41.5 12.5h343q46 0 76.5 -8.5t48 -27.5t24.5 -49t7 -73v-307q0 -70 -8.5 -112t-25.5 -71q-29 -48 -79 -73.5t-122 -25.5h-264q-29 0 -41.5 12.5t-12.5 40.5v640zM337 134q52 0 73 43q6 12 8.5 34t2.5 72v287q0 23 -9 32.5t-34 9.5h-109
q-19 0 -19 -20v-437q0 -21 19 -21h68z" />
    <glyph glyph-name="e" unicode="e" horiz-adv-x="613" 
d="M70 0zM299 314q-25 0 -25 -27v-129q0 -21 21 -21h229q26 0 26 -26v-81q0 -30 -28 -30h-379q-73 0 -73 68v624q0 55 56 55h388q27 0 27 -27v-84q0 -27 -27 -27h-221q-19 0 -19 -19v-126q0 -21 19 -21h214q25 0 25 -26v-75q0 -25 -24 -28h-209z" />
    <glyph glyph-name="f" unicode="f" horiz-adv-x="555" 
d="M70 0zM272 610q-19 0 -19 -19v-146q0 -29 26 -29h192q25 0 25 -26v-74q0 -29 -25 -29h-173q-27 0 -27 -27v-226q0 -34 -35 -34h-130q-36 0 -36 34v665q0 48 48 48h367q27 0 27 -27v-83q0 -27 -27 -27h-213z" />
    <glyph glyph-name="g" unicode="g" horiz-adv-x="678" 
d="M64 0zM261 196q0 -41 10 -53t36 -12h109q22 0 22 22v99q0 17 -6.5 25t-14 13t-13.5 11t-6 20v50q0 31 35 31h144q39 0 39 -38v-245q0 -35 -4.5 -58t-17.5 -36.5t-36.5 -19t-60.5 -5.5h-201q-75 0 -120.5 9t-70.5 32.5t-33 63.5t-8 103v331q0 63 8 103t33 63.5t70.5 32.5
t120.5 9h123q48 0 83 -6t58 -22t34 -45t11 -74v-37q0 -27 -27 -27h-118q-22 0 -22 21v19q0 21 -7.5 29.5t-30.5 8.5h-93q-26 0 -36 -11.5t-10 -53.5v-353z" />
    <glyph glyph-name="h" unicode="h" horiz-adv-x="696" 
d="M70 0zM498 0q-36 0 -36 34v244q0 34 -35 34h-111q-34 0 -34 -34v-244q0 -34 -36 -34h-140q-36 0 -36 34v677q0 36 36 36h139q37 0 37 -36v-227q0 -32 34 -32h111q35 0 35 32v227q0 36 35 36h93q36 0 36 -36v-677q0 -34 -36 -34h-92z" />
    <glyph glyph-name="i" unicode="i" horiz-adv-x="355" 
d="M73 0zM247 747q36 0 36 -36v-677q0 -34 -36 -34h-139q-35 0 -35 34v677q0 36 35 36h139v0z" />
    <glyph glyph-name="j" unicode="j" horiz-adv-x="572" 
d="M16 0zM143 0q-71 0 -99 28t-28 94v48q0 26 26 26h108q9 0 14.5 -4t5.5 -16v-28q0 -8 2 -10.5t10 -2.5h82q26 0 33 17.5t7 59.5v499q0 36 35 36h130q35 0 35 -36v-512q0 -50 -7 -87t-26 -62t-53.5 -37.5t-89.5 -12.5h-185z" />
    <glyph glyph-name="k" unicode="k" horiz-adv-x="701" 
d="M70 0zM482 0q-38 0 -38 39v206q0 36 -19.5 57t-72.5 21h-50q-22 0 -22 -24v-260q0 -39 -36 -39h-137q-37 0 -37 39v666q0 42 39 42h135q36 0 36 -42v-237q0 -24 22 -24h47q18 0 34 11.5t27.5 29.5t18.5 39t7 41v140q0 42 40 42h95q34 0 34 -42v-102q0 -21 -1.5 -35.5
t-6 -27t-12.5 -25t-20 -28.5q-19 -25 -24.5 -38.5t-5.5 -26.5t8.5 -26t40.5 -36q16 -12 27 -22.5t18 -23.5t10 -30t3 -41v-204q0 -39 -34 -39h-126z" />
    <glyph glyph-name="l" unicode="l" horiz-adv-x="547" 
d="M70 0zM269 160q0 -25 24 -25h195q26 0 26 -26v-79q0 -30 -26 -30h-316q-102 0 -102 100v611q0 36 36 36h128q35 0 35 -36v-551z" />
    <glyph glyph-name="m" unicode="m" horiz-adv-x="1021" 
d="M70 0zM770 747q47 0 81.5 -4.5t57 -21t33.5 -47.5t11 -83v-556q0 -35 -36 -35h-105q-37 0 -37 35v533q0 39 -37 39h-78q-26 0 -26 -25v-547q0 -35 -37 -35h-121q-37 0 -37 35v547q0 25 -22 25h-94q-25 0 -25 -25v-547q0 -35 -37 -35h-155q-36 0 -36 35v676q0 36 36 36
h664z" />
    <glyph glyph-name="n" unicode="n" horiz-adv-x="707" 
d="M70 0zM447 747q51 0 87.5 -4.5t60 -20.5t34.5 -47t11 -84v-556q0 -35 -36 -35h-106q-36 0 -36 35v511q0 37 -11.5 49t-43.5 12h-82q-23 0 -30 -8.5t-7 -32.5v-531q0 -35 -36 -35h-146q-36 0 -36 35v676q0 36 36 36h341z" />
    <glyph glyph-name="o" unicode="o" horiz-adv-x="677" 
d="M64 0zM272 0q-56 0 -95.5 7.5t-64.5 29t-36.5 59.5t-11.5 100v344q0 65 8.5 105.5t31 63t63 30.5t105.5 8h133q56 0 95.5 -7.5t64.5 -27.5t36.5 -54t11.5 -86v-377q0 -49 -6 -85.5t-24 -61t-51 -36.5t-87 -12h-173zM448 522q0 55 -10.5 75.5t-41.5 20.5h-79
q-34 0 -43.5 -19.5t-9.5 -67.5v-330q0 -16 1 -29t6.5 -22.5t16 -15t29.5 -5.5h78q31 0 42 15t11 57v321z" />
    <glyph glyph-name="p" unicode="p" horiz-adv-x="660" 
d="M70 0zM290 244q-22 0 -22 -24v-186q0 -34 -37 -34h-124q-37 0 -37 34v641q0 40 15 56t59 16h267q64 0 103 -6.5t60 -29t28 -64.5t7 -114v-106q0 -87 -44 -135t-147 -48h-128zM363 370q35 0 51.5 18.5t16.5 60.5v83q0 23 -2 39.5t-8.5 27t-18.5 15.5t-33 5h-82
q-19 0 -19 -21v-206q0 -22 22 -22h73z" />
    <glyph glyph-name="q" unicode="q" horiz-adv-x="690" 
d="M70 0zM468 -52q-23 0 -32 18l-20 41q-7 14 -11.5 17t-18.5 3h-147q-51 0 -84 8t-51.5 27.5t-26 53.5t-7.5 87v345q0 57 9 95.5t33 61.5t65.5 32.5t107.5 9.5h120q63 0 104.5 -9.5t66 -33t34.5 -62t10 -96.5v-330q0 -29 -6 -48.5t-12.5 -34t-12.5 -24.5t-6 -20
q0 -15 4 -25.5t15 -28.5q8 -14 9.5 -22t1.5 -24v-15q0 -26 -31 -26h-114zM461 546q0 34 -9.5 53t-43.5 19h-87q-33 0 -42.5 -18.5t-9.5 -53.5v-334q0 -32 12.5 -43.5t33.5 -11.5h20q17 0 21 10t5 21.5t5 21.5t22 10h39q19 0 26.5 6.5t7.5 29.5v290z" />
    <glyph glyph-name="r" unicode="r" horiz-adv-x="697" 
d="M70 0zM639 34q0 -34 -35 -34h-140q-35 0 -35 34v190q0 40 -14.5 53t-48.5 13h-107q-19 0 -19 -23v-233q0 -34 -35 -34h-99q-36 0 -36 34v646q0 39 14 53t55 14h308q48 0 78.5 -6.5t48.5 -23t25 -44t7 -69.5v-141q0 -19 -4.5 -34t-10 -26.5t-10 -19.5t-4.5 -13
q0 -6 9.5 -15.5t21.5 -25t21.5 -38.5t9.5 -56v-201zM411 563q0 35 -13.5 46t-48.5 11h-89q-20 0 -20 -21v-163q0 -21 22 -21h103q46 0 46 52v96z" />
    <glyph glyph-name="s" unicode="s" horiz-adv-x="638" 
d="M54 0zM239 499q0 -22 4 -29t24 -10l195 -30q38 -6 62.5 -16t38.5 -26.5t19.5 -41t5.5 -59.5v-79q0 -63 -8 -103t-31.5 -63.5t-67 -32.5t-113.5 -9h-134q-42 0 -75 6.5t-55.5 23t-34.5 44.5t-12 72v42q0 26 26 26h115q22 0 22 -20v-29q0 -17 8.5 -24t31.5 -7h88
q26 0 36 12t10 53v44q0 20 -8 27.5t-24 9.5l-176 28q-36 6 -61.5 15.5t-41 26.5t-22.5 43.5t-7 66.5v79q0 63 8 103t32 63.5t68 32.5t116 9h95q55 0 93.5 -5.5t62.5 -21t34.5 -44.5t10.5 -76v-30q0 -27 -27 -27h-110q-21 0 -21 20v11q0 21 -7.5 29.5t-30.5 8.5h-93
q-26 0 -36 -11.5t-10 -53.5v-48z" />
    <glyph glyph-name="t" unicode="t" horiz-adv-x="546" 
d="M9 0zM222 0q-36 0 -36 34v525q0 32 -29 32h-122q-26 0 -26 27v101q0 28 26 28h476q27 0 27 -27v-102q0 -27 -27 -27h-122q-27 0 -27 -32v-525q0 -34 -37 -34h-103z" />
    <glyph glyph-name="u" unicode="u" horiz-adv-x="699" 
d="M67 0zM308 0q-69 0 -115 4.5t-74 20.5t-40 47t-12 84v555q0 36 36 36h136q36 0 36 -36v-530q0 -30 10 -41t36 -11h94q27 0 37 11t10 41v530q0 18 8 27t28 9h98q35 0 35 -36v-555q0 -41 -8 -70.5t-28.5 -48.5t-54 -28t-84.5 -9h-148z" />
    <glyph glyph-name="v" unicode="v" horiz-adv-x="702" 
d="M60 0zM308 0q-19 0 -38 9.5t-30 25.5l-138 200q-12 17 -20 30t-13 26t-7 27t-2 32v356q0 41 40 41h143q41 0 41 -41v-322q0 -21 0.5 -34t4 -25t11 -26.5t20.5 -39.5q11 -21 19.5 -33.5t16 -18.5t14 -8t14.5 -2h7q6 0 11.5 1.5t11.5 6.5t13.5 15.5t18.5 27.5
q18 30 27.5 47.5t14 30.5t5.5 24t1 28v328q0 41 38 41h71q39 0 39 -41v-353q0 -19 -1.5 -33t-6 -27t-11.5 -26.5t-19 -29.5l-139 -202q-12 -17 -29 -26t-46 -9h-82z" />
    <glyph glyph-name="w" unicode="w" horiz-adv-x="953" 
d="M67 0zM221 0q-44 0 -73.5 8.5t-47.5 27t-25.5 47.5t-7.5 71v557q0 36 35 36h139q36 0 36 -36v-536q0 -35 37 -35h81q22 0 22 24v547q0 36 36 36h101q36 0 36 -36v-547q0 -24 26 -24h73q33 0 33 35v536q0 36 36 36h92q36 0 36 -36v-555q0 -53 -11 -83.5t-33.5 -47t-57 -21
t-80.5 -4.5h-483z" />
    <glyph glyph-name="x" unicode="x" horiz-adv-x="696" 
d="M59 0zM638 36q0 -36 -30 -36h-108q-30 0 -30 36v221q0 25 -3.5 40.5t-11.5 24t-22.5 11.5t-36.5 3h-54q-24 0 -39 -3t-24 -11.5t-12 -24t-3 -40.5v-221q0 -36 -29 -36h-144q-32 0 -32 36v172q0 18 1 32t3.5 25.5t6.5 21.5t11 22q10 18 19 29.5t16 19t11 13t4 10.5
q0 10 -17 28.5t-29 42.5q-6 10 -9 18t-4.5 16t-2 17t-0.5 22v185q0 37 30 37h141q30 0 30 -37v-193q0 -21 3.5 -35t13 -22t26 -11.5t42.5 -3.5h34q48 0 63.5 15t15.5 57v193q0 37 35 37h92q32 0 32 -37v-185q0 -15 -0.5 -24t-2 -16.5t-4.5 -15t-9 -17.5q-6 -11 -14 -22
t-15 -20.5t-12 -17t-5 -11.5q0 -5 4 -10t10.5 -13t15.5 -19.5t20 -29.5q13 -24 18 -43t5 -50v-180z" />
    <glyph glyph-name="y" unicode="y" horiz-adv-x="670" 
d="M53 0zM462 283q-26 0 -34 -8.5t-8 -33.5v-207q0 -34 -36 -34h-102q-37 0 -37 34v210q0 23 -7 31t-33 8h-65q-45 0 -66 29t-21 75v323q0 37 30 37h107q30 0 30 -37v-274q0 -23 7 -31t30 -8h127q20 0 27.5 8t7.5 31v274q0 37 30 37h138q29 0 29 -37v-323q0 -45 -26 -74.5
t-72 -29.5h-56z" />
    <glyph glyph-name="z" unicode="z" horiz-adv-x="660" 
d="M64 0zM124 0q-60 0 -60 65v189q0 37 27 58l304 231q15 12 15 27v16q0 17 -20 17h-289q-32 0 -32 32v78q0 34 32 34h433q54 0 54 -53v-168q0 -14 -3.5 -25.5t-8.5 -20.5l-300 -240q-20 -17 -20 -38v-20q0 -20 23 -20h295q28 0 28 -28v-103q0 -31 -30 -31h-448z" />
    <glyph glyph-name="braceleft" unicode="{" horiz-adv-x="386" 
d="M267 -175q-66 0 -100.5 31.5t-34.5 88.5q0 33 2.5 65.5t6 66.5t6 71t2.5 79q0 38 -14 50.5t-45 12.5h-9q-14 0 -21.5 8t-7.5 21v44q0 28 29 28h9q30 0 44.5 13t14.5 51q0 42 -2.5 79t-6 71t-6 66.5t-2.5 66.5q0 57 34.5 88t100.5 31h55q36 0 36 -35v-26q0 -35 -36 -35
h-31q-26 0 -38.5 -6.5t-12.5 -27.5q0 -29 2.5 -60t6 -64.5t6 -71.5t2.5 -81q0 -36 -12.5 -65.5t-38.5 -43.5q26 -14 38.5 -44t12.5 -66q0 -86 -8.5 -152t-8.5 -124q0 -21 12.5 -27t38.5 -6h31q17 0 26.5 -9.5t9.5 -25.5v-27q0 -35 -36 -35h-55z" />
    <glyph glyph-name="bar" unicode="|" 
d="M318 -175q-39 0 -39 37v958q0 37 39 37h31q37 0 37 -37v-958q0 -37 -37 -37h-31z" />
    <glyph glyph-name="braceright" unicode="}" horiz-adv-x="386" 
d="M64 -175q-36 0 -36 35v27q0 16 9.5 25.5t26.5 9.5h31q26 0 38.5 6t12.5 27q0 58 -8.5 124t-8.5 152q0 36 12.5 66t38.5 44q-26 14 -38.5 43.5t-12.5 65.5q0 43 2.5 81t6 71.5t6 64.5t2.5 60q0 21 -12.5 27.5t-38.5 6.5h-31q-36 0 -36 35v26q0 35 36 35h55q66 0 100.5 -31
t34.5 -88q0 -34 -2.5 -66.5t-6 -66.5t-6 -71t-2.5 -79q0 -38 14.5 -51t44.5 -13h9q29 0 29 -28v-44q0 -13 -7.5 -21t-21.5 -8h-9q-31 0 -45 -12.5t-14 -50.5q0 -42 2.5 -79t6 -71t6 -66.5t2.5 -65.5q0 -57 -34.5 -88.5t-100.5 -31.5h-55z" />
    <glyph glyph-name="asciitilde" unicode="~" 
d="M595 374q0 -16 -12 -29t-32.5 -22t-46.5 -14t-53 -5q-32 0 -61.5 7t-59.5 15.5t-60.5 15.5t-63.5 7q-18 0 -34 -6.5t-29 -14t-23.5 -14t-18.5 -6.5q-18 0 -25 12.5t-7 32.5v31q0 16 12 29t32 22t45.5 14t52.5 5q34 0 64.5 -7t60.5 -15t60 -15t63 -7q19 0 34.5 6t28 13.5
l22.5 13.5t19 6q14 0 23 -7.5t9 -21.5v-46z" />
    <glyph glyph-name="nonbreakingspace" unicode="&#xa0;" horiz-adv-x="303" 
 />
    <glyph glyph-name="exclamdown" unicode="&#xa1;" horiz-adv-x="337" 
d="M219 417q37 0 37 -37v-470q0 -38 -38 -38h-100q-37 0 -37 38v470q0 37 38 37h100zM221 648q22 0 28.5 -11.5t6.5 -32.5v-73q0 -23 -7.5 -34.5t-27.5 -11.5h-105q-20 0 -27.5 11.5t-7.5 34.5v73q0 21 7.5 32.5t27.5 11.5h105z" />
    <glyph glyph-name="cent" unicode="&#xa2;" 
d="M334 -21q-39 0 -39 37v33q0 27 -21 27h-20q-58 0 -95.5 9t-59.5 30.5t-31 59t-9 94.5v216q0 59 9 96t31 57.5t59.5 27.5t95.5 7h23q18 0 18 17v41q0 37 39 37h31q37 0 37 -37v-41q0 -17 19 -17h62q36 0 60.5 -6.5t40.5 -21.5t23 -40.5t7 -63.5v-37q0 -25 -25 -25h-99
q-14 0 -18 6.5t-6 14t-6 14t-18 6.5h-166q-32 0 -32 -45v-180q0 -36 7.5 -52t35.5 -16h145q18 0 23 8.5t7.5 19t7.5 19.5t23 9h99q26 0 26 -26v-43q0 -38 -10 -64t-28 -42.5t-42.5 -24t-53.5 -7.5h-57q-25 0 -25 -28v-32q0 -37 -37 -37h-31z" />
    <glyph glyph-name="sterling" unicode="&#xa3;" 
d="M128 285q0 22 -21 22h-22q-14 0 -22 8t-8 21v35q0 19 6.5 29.5t23.5 10.5h22q21 0 21 21v154q0 78 40.5 119.5t133.5 41.5h144q83 0 114 -29.5t31 -86.5v-53q0 -26 -27 -26h-104q-13 0 -17.5 4.5t-4.5 14.5v16q0 15 -8.5 20t-27.5 5h-64q-24 0 -34 -10t-10 -36v-134
q0 -21 23 -21h228q29 0 29 -29v-35q0 -17 -6 -28.5t-23 -11.5h-228q-23 0 -23 -22v-97q0 -32 29 -32h245q27 0 27 -27v-101q0 -28 -27 -28h-489q-27 0 -27 27v102q0 27 27 27h21q28 0 28 32v97z" />
    <glyph glyph-name="currency" unicode="&#xa4;" 
d="M234 151q-31 0 -51 4l-77 -78q-10 -10 -21 -10t-20 10l-26 24q-7 8 -11.5 15t-4.5 15q0 9 9 18l68 69q-6 18 -9.5 42.5t-3.5 56.5v128q0 56 12 94l-65 65q-9 9 -9 21q0 5 1.5 10t6.5 10l25 25q16 16 28 16q11 0 21 -10l70 -71q12 2 26 3.5t31 1.5h198q16 0 30 -1.5
t26 -3.5l71 71q9 10 20 10q12 0 21 -10l25 -24q15 -18 16 -29q0 -11 -10 -20l-65 -65q12 -36 12 -93v-128q0 -62 -14 -98l70 -69q9 -9 9 -20t-9 -20l-25 -26q-8 -7 -15.5 -11.5t-15.5 -4.5q-11 0 -18 9l-79 78q-20 -4 -49 -4h-198zM208 323q0 -62 69 -62h111q70 0 70 62v115
q0 62 -70 62h-111q-69 0 -69 -62v-115z" />
    <glyph glyph-name="yen" unicode="&#xa5;" 
d="M410 34q0 -34 -37 -34h-81q-36 0 -36 34v18q0 23 -22 23h-143q-17 0 -23 11.5t-6 27.5v25q0 28 29 28h143q22 0 22 22v18q0 10 -7 14.5t-15 4.5h-143q-17 0 -23 11.5t-6 28.5v24q0 29 29 29h143q22 0 22 21v7q0 21 -7.5 29t-33.5 8h-75q-45 0 -66 29.5t-21 74.5v222
q0 37 30 37h91q30 0 30 -37v-176q0 -23 7 -31t30 -8h180q20 0 27.5 8t7.5 31v176q0 37 30 37h101q29 0 29 -37v-222q0 -45 -26 -74.5t-72 -29.5h-67q-25 0 -33 -8t-8 -29v-11q2 -17 22 -17h143q29 0 29 -29v-24q0 -17 -6 -28.5t-23 -11.5h-143q-22 0 -22 -22v-19
q1 -18 22 -18h143q29 0 29 -28v-25q0 -16 -6 -27.5t-23 -11.5h-143q-22 0 -22 -23v-18z" />
    <glyph glyph-name="brokenbar" unicode="&#xa6;" 
d="M318 436q-39 0 -39 38v346q0 37 39 37h31q37 0 37 -37v-346q0 -38 -37 -38h-31zM318 -175q-39 0 -39 37v359q0 37 39 37h31q37 0 37 -37v-359q0 -37 -37 -37h-31z" />
    <glyph glyph-name="section" unicode="&#xa7;" horiz-adv-x="637" 
d="M312 520q0 -21 4 -27.5t18 -8.5l150 -28q30 -5 48.5 -14t29.5 -24t15 -37.5t4 -54.5v-72q0 -49 -4.5 -83t-17 -56t-35 -33.5t-58.5 -15.5v-50q0 -57 -6 -94t-24 -58.5t-51.5 -29.5t-88.5 -8h-103q-32 0 -57 6t-42.5 21t-26.5 40.5t-9 65.5v39q0 24 20 24h88q16 0 16 -19
v-25q0 -17 7 -23t25 -6h68q20 0 27.5 10.5t7.5 49.5v39q0 19 -6.5 25.5t-18.5 8.5l-135 26q-28 5 -47.5 13.5t-31.5 24.5t-17.5 40t-5.5 60v73q0 49 4.5 82.5t17 55.5t35.5 33.5t59 15.5v51q0 57 6 94t24.5 58t52 29.5t88.5 8.5h74q42 0 71.5 -5t48 -19.5t27 -40.5t8.5 -69
v-29q0 -24 -21 -24h-85q-16 0 -16 19v10q0 19 -6 27t-24 8h-71q-20 0 -28 -11t-8 -49v-44zM197 283q0 -20 3.5 -27.5t18.5 -9.5l150 -27q17 -3 31 -8.5t24 -11.5q8 13 8 47v40q0 18 -6.5 25t-18.5 9l-136 26q-23 5 -39.5 9.5t-27.5 16.5q-7 -10 -7 -46v-43z" />
    <glyph glyph-name="dieresis" unicode="&#xa8;" horiz-adv-x="511" 
d="M339 616q-13 0 -21 7.5t-8 20.5v87q0 13 8 20.5t21 7.5h72q29 0 29 -28v-87q0 -28 -29 -28h-72zM100 616q-30 0 -30 28v87q0 28 30 28h72q13 0 21 -7.5t8 -20.5v-87q0 -13 -8 -20.5t-21 -7.5h-72z" />
    <glyph glyph-name="ordfeminine" unicode="&#xaa;" horiz-adv-x="352" 
d="M300 514q0 -7 1.5 -10.5t3.5 -7t3.5 -7.5t1.5 -12v-27q0 -23 -22 -23h-169q-46 0 -64 17.5t-18 59.5v28q0 22 4 36.5t16.5 23.5t36.5 13t64 4q44 0 44 20v17q0 11 -10 11h-47q-8 0 -10.5 -5t-4.5 -10.5t-6 -10.5t-16 -5h-42q-21 0 -21 21v11q0 25 4 41t14 24t27 11t43 3
h87q80 0 80 -79v-144zM202 557q0 5 -4 5q-20 0 -31 -0.5t-16 -2.5t-6.5 -6.5t-1.5 -12.5v-22q0 -12 3.5 -16.5t15.5 -4.5h40v60z" />
    <glyph glyph-name="guillemotleft" unicode="&#xab;" horiz-adv-x="516" 
d="M21 162zM236 427q0 -18 -12 -25l-106 -69l106 -69q8 -5 10 -10.5t2 -13.5v-45q0 -13 -3 -23t-17 -10q-6 0 -14 5l-164 111q-17 11 -17 29v40q0 20 6 28t19 17l156 107q8 5 14 5q8 0 14 -4.5t6 -15.5v-57zM494 427q0 -18 -12 -25l-106 -69l106 -69q8 -5 10 -10.5t2 -13.5
v-45q0 -13 -3 -23t-17 -10q-6 0 -14 5l-164 111q-17 11 -17 29v40q0 20 6 28t19 17l156 107q8 5 14 5q8 0 14 -4.5t6 -15.5v-57z" />
    <glyph glyph-name="logicalnot" unicode="&#xac;" 
d="M498 54q-37 0 -37 35v229q0 29 -24 29h-304q-37 0 -37 36v25q0 36 37 36h297q45 0 72.5 -7t42 -22t19 -40t4.5 -61v-225q0 -35 -36 -35h-34z" />
    <glyph glyph-name="macron" unicode="&#xaf;" horiz-adv-x="507" 
d="M100 644q-14 0 -22 8t-8 21v35q0 29 30 29h306q30 0 30 -29v-35q0 -13 -7.5 -21t-22.5 -8h-306z" />
    <glyph glyph-name="degree" unicode="&#xb0;" horiz-adv-x="434" 
d="M178 463q-33 0 -54 6.5t-33 21.5t-16.5 40t-4.5 61v56q0 40 5 65t19 39.5t39 19.5t65 5h38q37 0 62 -4.5t39.5 -18.5t20.5 -39t6 -67v-56q0 -40 -5 -65t-19 -39.5t-39 -19.5t-65 -5h-58zM236 548q26 0 34 8t8 36v56q0 29 -8 36.5t-34 7.5h-38q-26 0 -34 -7.5t-8 -36.5
v-56q0 -25 4 -34.5t18 -9.5h58z" />
    <glyph glyph-name="plusminus" unicode="&#xb1;" 
d="M69 0zM280 347q0 22 -21 22h-160q-14 0 -22 8t-8 21v35q0 19 6.5 29.5t23.5 10.5h160q21 0 21 21v159q0 14 8 22t21 8h35q19 0 29.5 -6.5t10.5 -23.5v-159q0 -21 22 -21h160q29 0 29 -29v-35q0 -17 -6 -28.5t-23 -11.5h-160q-22 0 -22 -22v-161q0 -29 -29 -29h-35
q-16 0 -28 6t-12 23v161zM99 -42q-14 0 -22 8t-8 21v35q0 19 6.5 29.5t23.5 10.5h467q29 0 29 -29v-35q0 -17 -6 -28.5t-23 -11.5h-467z" />
    <glyph glyph-name="twosuperior" unicode="&#xb2;" horiz-adv-x="398" 
d="M45 333zM81 333q-36 0 -36 33v122q0 45 18.5 67t69.5 24l85 4q14 2 22 7.5t8 19.5v21q0 16 -6 24t-21 8h-132q-29 0 -29 27v28q0 11 6.5 20t22.5 9h138q31 0 53.5 -4t37.5 -16t22 -32.5t7 -53.5v-35q0 -54 -20.5 -76.5t-66.5 -24.5l-89 -3q-13 -2 -18.5 -6t-5.5 -16v-47
q0 -6 6 -6h173q22 0 22 -21v-51q0 -22 -22 -22h-245z" />
    <glyph glyph-name="threesuperior" unicode="&#xb3;" horiz-adv-x="398" 
d="M45 333zM58 553q0 12 6.5 21t20.5 9h122q18 0 18 19v49q0 14 -14 16h-126q-27 0 -27 29v22q0 11 6.5 20t20.5 9h158q49 0 68.5 -15t19.5 -57v-72q0 -21 -7.5 -31t-7.5 -17q0 -3 6 -10t13.5 -17.5t13.5 -25t6 -32.5v-61q0 -38 -14 -57t-58 -19h-217q-21 0 -21 22v51
q0 21 21 21h148q16 0 16 17v40q0 23 -24 23h-121q-27 0 -27 29v17v0z" />
    <glyph glyph-name="acute" unicode="&#xb4;" horiz-adv-x="388" 
d="M91 605q-9 0 -15 3.5t-6 11.5q0 7 6 15l98 139q5 7 9 9t16 2h99q20 0 20 -19q0 -12 -9 -19l-122 -132q-7 -6 -12.5 -8t-15.5 -2h-68z" />
    <glyph glyph-name="paragraph" unicode="&#xb6;" horiz-adv-x="660" 
d="M496 649q0 13 -12 13h-112q-13 0 -13 -14v-804q0 -19 -21 -19h-62q-21 0 -21 19v385q0 14 -13 14h-73q-60 0 -85.5 27.5t-25.5 78.5v275q0 41 4 65.5t16 37t34.5 16.5t60.5 4h385q25 0 33 -9t8 -32v-862q0 -19 -20 -19h-63q-20 0 -20 19v805zM242 327q13 0 13 13v309
q0 13 -11 13h-57q-24 0 -30.5 -12t-6.5 -38v-240q0 -45 40 -45h52z" />
    <glyph glyph-name="periodcentered" unicode="&#xb7;" horiz-adv-x="317" 
d="M70 331zM106 331q-22 0 -29 11.5t-7 33.5v72q0 23 7.5 34.5t28.5 11.5h104q21 0 28.5 -11.5t7.5 -34.5v-72q0 -22 -7 -33.5t-29 -11.5h-104z" />
    <glyph glyph-name="cedilla" unicode="&#xb8;" horiz-adv-x="284" 
d="M139 -162q0 15 -9 20l-41 27q-9 6 -14.5 13t-4.5 22v21q0 40 29 40h84q30 0 30 -39v-124q0 -23 -20 -23h-32q-22 0 -22 23v20z" />
    <glyph glyph-name="onesuperior" unicode="&#xb9;" horiz-adv-x="398" 
d="M85 333zM107 333q-22 0 -22 21v74q0 20 22 20h37q10 0 10 11v182q0 6 -1.5 9t-7.5 5l-14 5q-10 6 -10 22v39q0 19 9.5 22.5t29.5 3.5h54q32 0 32 -35v-256q2 -8 10 -8h30q21 0 21 -20v-74q0 -21 -21 -21h-179z" />
    <glyph glyph-name="ordmasculine" unicode="&#xba;" horiz-adv-x="363" 
d="M153 427q-35 0 -56 5t-32 17.5t-15 35t-4 57.5v78q0 37 4.5 60t16 35.5t32.5 17t54 4.5h53q34 0 54.5 -5t32 -18t15.5 -35.5t4 -58.5v-78q0 -32 -3 -53.5t-13 -35.5t-27.5 -20t-46.5 -6h-69zM216 625q0 23 -3 31t-15 8h-22q-11 0 -14.5 -8t-3.5 -31v-83q0 -22 3.5 -30
t14.5 -8h22q12 0 15 8t3 30v83z" />
    <glyph glyph-name="guillemotright" unicode="&#xbb;" horiz-adv-x="516" 
d="M22 162zM22 484q0 11 6 15.5t14 4.5q7 0 15 -5l155 -107q13 -9 19 -17t6 -28v-40q0 -17 -17 -29l-163 -111q-12 -5 -15 -5q-14 0 -17 10t-3 23v45q0 16 12 24l106 69l-106 69q-12 7 -12 25v57zM280 484q0 11 6 15.5t14 4.5q7 0 15 -5l155 -107q13 -9 19 -17t6 -28v-40
q0 -17 -17 -29l-163 -111q-12 -5 -15 -5q-14 0 -17 10t-3 23v45q0 16 12 24l106 69l-106 69q-12 7 -12 25v57z" />
    <glyph glyph-name="onequarter" unicode="&#xbc;" horiz-adv-x="901" 
d="M67 0zM89 333q-22 0 -22 21v74q0 20 22 20h37q10 0 10 11v182q0 6 -1.5 9t-7.5 5l-14 5q-10 6 -10 22v39q0 19 9.5 22.5t29.5 3.5h54q32 0 32 -35v-256q2 -8 10 -8h30q21 0 21 -20v-74q0 -21 -21 -21h-179zM244 0q-11 0 -17.5 6.5t-6.5 15.5t4 16l319 689q5 9 11 14.5
t17 5.5h38q26 0 26 -25q0 -9 -4 -16l-318 -689q-8 -17 -29 -17h-40zM835 30q0 -30 -31 -30h-56q-32 0 -32 30v85q0 8 -6 8h-116q-61 0 -61 62v198q0 31 31 31h51q31 0 31 -31v-175q0 -9 7 -9h57q6 0 6 6v57q0 31 31 31h57q31 0 31 -31v-232z" />
    <glyph glyph-name="onehalf" unicode="&#xbd;" horiz-adv-x="901" 
d="M67 0zM89 333q-22 0 -22 21v74q0 20 22 20h37q10 0 10 11v182q0 6 -1.5 9t-7.5 5l-14 5q-10 6 -10 22v39q0 19 9.5 22.5t29.5 3.5h54q32 0 32 -35v-256q2 -8 10 -8h30q21 0 21 -20v-74q0 -21 -21 -21h-179zM244 0q-11 0 -17.5 6.5t-6.5 15.5t4 16l319 689q5 9 11 14.5
t17 5.5h38q26 0 26 -25q0 -9 -4 -16l-318 -689q-8 -17 -29 -17h-40zM568 0q-36 0 -36 33v122q0 45 18.5 67t69.5 24l85 4q14 2 22 7.5t8 19.5v21q0 16 -6 24t-21 8h-132q-29 0 -29 27v28q0 11 6.5 20t22.5 9h138q31 0 53.5 -4t37.5 -16t22 -32.5t7 -53.5v-35
q0 -54 -20.5 -76.5t-66.5 -24.5l-89 -3q-13 -2 -18.5 -6t-5.5 -16v-47q0 -6 6 -6h173q22 0 22 -21v-51q0 -22 -22 -22h-245z" />
    <glyph glyph-name="threequarters" unicode="&#xbe;" horiz-adv-x="952" 
d="M66 0zM79 553q0 12 6.5 21t20.5 9h122q18 0 18 19v49q0 14 -14 16h-126q-27 0 -27 29v22q0 11 6.5 20t20.5 9h158q49 0 68.5 -15t19.5 -57v-72q0 -21 -7.5 -31t-7.5 -17q0 -3 6 -10t13.5 -17.5t13.5 -25t6 -32.5v-61q0 -38 -14 -57t-58 -19h-217q-21 0 -21 22v51
q0 21 21 21h148q16 0 16 17v40q0 23 -24 23h-121q-27 0 -27 29v17v0zM295 0q-11 0 -17.5 6.5t-6.5 15.5t4 16l319 689q5 9 11 14.5t17 5.5h38q26 0 26 -25q0 -9 -4 -16l-318 -689q-8 -17 -29 -17h-40zM887 30q0 -30 -31 -30h-56q-32 0 -32 30v85q0 8 -6 8h-116q-61 0 -61 62
v198q0 31 31 31h51q31 0 31 -31v-175q0 -9 7 -9h57q6 0 6 6v57q0 31 31 31h57q31 0 31 -31v-232z" />
    <glyph glyph-name="questiondown" unicode="&#xbf;" horiz-adv-x="547" 
d="M348 405q37 0 37 -37v-108q0 -42 -13.5 -60t-50.5 -27l-105 -27q-14 -4 -19 -11.5t-5 -21.5v-72q0 -20 7.5 -27t22.5 -7h97q30 0 30 22v16q0 14 14 16.5t29 2.5h91q26 0 26 -26v-73q0 -29 -7.5 -47.5t-23.5 -28.5t-40.5 -13.5t-58.5 -3.5h-232q-63 0 -90 31.5t-27 91.5
v152q0 27 4 44.5t14.5 29.5t27.5 20.5t43 16.5l63 19q17 5 22.5 13.5t5.5 24.5v53q0 37 38 37h100zM350 637q22 0 28.5 -11.5t6.5 -33.5v-73q0 -23 -7 -34t-28 -11h-105q-20 0 -27.5 11t-7.5 34v73q0 22 6.5 33.5t28.5 11.5h105z" />
    <glyph glyph-name="Agrave" unicode="&#xc0;" horiz-adv-x="735" 
d="M60 0zM309 397q0 -29 28 -29h108q27 0 27 29v178q0 19 -7 29t-27 10h-90q-22 0 -30.5 -9.5t-8.5 -29.5v-178zM675 36q0 -36 -30 -36h-111q-30 0 -30 36v180q0 26 -24 26h-193q-24 0 -24 -26v-180q0 -36 -29 -36h-142q-32 0 -32 36v243q0 14 1 23.5t4.5 17t9.5 14.5t15 15
q13 11 19 20.5t6 24.5v248q0 58 27 81.5t82 23.5h283q60 0 81.5 -23.5t21.5 -81.5v-259q0 -15 7.5 -24.5t22.5 -20.5q20 -16 27.5 -28.5t7.5 -40.5v-233zM370 797q-17 0 -27 10l-123 132q-9 9 -9 19q0 19 21 19h98q12 0 16 -2t9 -9l98 -139q6 -8 6 -15q0 -8 -6 -11.5
t-14 -3.5h-69z" />
    <glyph glyph-name="Aacute" unicode="&#xc1;" horiz-adv-x="735" 
d="M60 0zM309 397q0 -29 28 -29h108q27 0 27 29v178q0 19 -7 29t-27 10h-90q-22 0 -30.5 -9.5t-8.5 -29.5v-178zM675 36q0 -36 -30 -36h-111q-30 0 -30 36v180q0 26 -24 26h-193q-24 0 -24 -26v-180q0 -36 -29 -36h-142q-32 0 -32 36v243q0 14 1 23.5t4.5 17t9.5 14.5t15 15
q13 11 19 20.5t6 24.5v248q0 58 27 81.5t82 23.5h283q60 0 81.5 -23.5t21.5 -81.5v-259q0 -15 7.5 -24.5t22.5 -20.5q20 -16 27.5 -28.5t7.5 -40.5v-233zM296 797q-9 0 -15 3.5t-6 11.5q0 7 6 15l98 139q5 7 9 9t16 2h99q20 0 20 -19q0 -12 -9 -19l-122 -132q-7 -6 -12.5 -8
t-15.5 -2h-68z" />
    <glyph glyph-name="Acircumflex" unicode="&#xc2;" horiz-adv-x="735" 
d="M60 0zM309 397q0 -29 28 -29h108q27 0 27 29v178q0 19 -7 29t-27 10h-90q-22 0 -30.5 -9.5t-8.5 -29.5v-178zM675 36q0 -36 -30 -36h-111q-30 0 -30 36v180q0 26 -24 26h-193q-24 0 -24 -26v-180q0 -36 -29 -36h-142q-32 0 -32 36v243q0 14 1 23.5t4.5 17t9.5 14.5t15 15
q13 11 19 20.5t6 24.5v248q0 58 27 81.5t82 23.5h283q60 0 81.5 -23.5t21.5 -81.5v-259q0 -15 7.5 -24.5t22.5 -20.5q20 -16 27.5 -28.5t7.5 -40.5v-233zM461 781q-17 0 -25 11l-69 106l-68 -106q-5 -7 -11 -9t-14 -2h-45q-13 0 -23 2.5t-10 16.5q0 3 2 7l4 8l111 163
q11 17 28 17h40q21 0 29 -5.5t17 -18.5l106 -156q6 -6 6 -15q0 -19 -21 -19h-57z" />
    <glyph glyph-name="Atilde" unicode="&#xc3;" horiz-adv-x="735" 
d="M60 0zM309 397q0 -29 28 -29h108q27 0 27 29v178q0 19 -7 29t-27 10h-90q-22 0 -30.5 -9.5t-8.5 -29.5v-178zM675 36q0 -36 -30 -36h-111q-30 0 -30 36v180q0 26 -24 26h-193q-24 0 -24 -26v-180q0 -36 -29 -36h-142q-32 0 -32 36v243q0 14 1 23.5t4.5 17t9.5 14.5t15 15
q13 11 19 20.5t6 24.5v248q0 58 27 81.5t82 23.5h283q60 0 81.5 -23.5t21.5 -81.5v-259q0 -15 7.5 -24.5t22.5 -20.5q20 -16 27.5 -28.5t7.5 -40.5v-233zM550 873q0 -38 -23.5 -49.5t-60.5 -11.5q-22 0 -48 5t-52.5 11.5t-52 11.5t-45.5 5q-11 0 -19.5 -4t-16 -9l-13.5 -9
t-12 -4q-10 0 -16.5 7t-6.5 18v28q0 39 24.5 51t61.5 12q21 0 47 -5t52.5 -11.5t52 -11.5t45.5 -5q11 0 19.5 4t16 9l13.5 9t12 4q22 0 22 -26v-29z" />
    <glyph glyph-name="Adieresis" unicode="&#xc4;" horiz-adv-x="735" 
d="M60 0zM309 397q0 -29 28 -29h108q27 0 27 29v178q0 19 -7 29t-27 10h-90q-22 0 -30.5 -9.5t-8.5 -29.5v-178zM675 36q0 -36 -30 -36h-111q-30 0 -30 36v180q0 26 -24 26h-193q-24 0 -24 -26v-180q0 -36 -29 -36h-142q-32 0 -32 36v243q0 14 1 23.5t4.5 17t9.5 14.5t15 15
q13 11 19 20.5t6 24.5v248q0 58 27 81.5t82 23.5h283q60 0 81.5 -23.5t21.5 -81.5v-259q0 -15 7.5 -24.5t22.5 -20.5q20 -16 27.5 -28.5t7.5 -40.5v-233zM461 808q-13 0 -21 7.5t-8 20.5v87q0 13 8 20.5t21 7.5h72q29 0 29 -28v-87q0 -28 -29 -28h-72zM222 808q-30 0 -30 28
v87q0 28 30 28h72q13 0 21 -7.5t8 -20.5v-87q0 -13 -8 -20.5t-21 -7.5h-72z" />
    <glyph glyph-name="Aring" unicode="&#xc5;" horiz-adv-x="735" 
d="M60 0zM309 397q0 -29 28 -29h108q27 0 27 29v178q0 19 -7 29t-27 10h-90q-22 0 -30.5 -9.5t-8.5 -29.5v-178zM675 36q0 -36 -30 -36h-111q-30 0 -30 36v180q0 26 -24 26h-193q-24 0 -24 -26v-180q0 -36 -29 -36h-142q-32 0 -32 36v243q0 14 1 23.5t4.5 17t9.5 14.5t15 15
q13 11 19 20.5t6 24.5v248q0 58 27 81.5t82 23.5h283q60 0 81.5 -23.5t21.5 -81.5v-259q0 -15 7.5 -24.5t22.5 -20.5q20 -16 27.5 -28.5t7.5 -40.5v-233zM335 767q-26 0 -40.5 3t-22 12t-9.5 24.5t-2 40.5v68q0 25 2 40.5t9.5 24.5t22 12t40.5 3h78q25 0 39.5 -3t22 -12
t9.5 -24.5t2 -40.5v-68q0 -25 -2 -40.5t-9.5 -24.5t-22 -12t-39.5 -3h-78zM329 849q0 -14 3 -17t15 -3h54q12 0 15 3t3 17v64q0 14 -3 17t-15 3h-54q-12 0 -15 -3t-3 -17v-64z" />
    <glyph glyph-name="AE" unicode="&#xc6;" horiz-adv-x="973" 
d="M679 314q-24 0 -24 -27v-129q0 -21 21 -21h207q27 0 27 -26v-81q0 -30 -29 -30h-400q-30 0 -30 36v180q0 26 -24 26h-140q-24 0 -24 -26v-180q0 -36 -29 -36h-142q-32 0 -32 36v243q0 14 1 23.5t4.5 17t9.5 14.5t15 15q13 11 19 20.5t6 24.5v248q0 58 27 81.5t82 23.5
h649q27 0 27 -27v-84q0 -27 -27 -27h-199q-19 0 -19 -19v-126q0 -21 19 -21h192q26 0 26 -26v-75q0 -25 -25 -28h-188zM309 397q0 -29 28 -29h86q28 0 28 29v178q0 19 -7 29t-27 10h-69q-22 0 -30.5 -9.5t-8.5 -29.5v-178z" />
    <glyph glyph-name="Ccedilla" unicode="&#xc7;" horiz-adv-x="669" 
d="M64 0zM272 199q0 -41 10 -53t36 -12h80q23 0 31.5 7t8.5 24v38q0 20 22 20h118q27 0 27 -27v-50q0 -43 -16.5 -71t-43.5 -44.5t-61 -23.5t-68 -7h-120q-75 0 -120.5 9t-70.5 32.5t-33 63.5t-8 103v331q0 63 8 103t33 63.5t70.5 32.5t120.5 9h92q47 0 86.5 -6t68 -22
t44.5 -45t16 -74v-41q0 -27 -27 -27h-118q-22 0 -22 20v22q0 21 -7.5 29.5t-30.5 8.5h-80q-26 0 -36 -11.5t-10 -53.5v-348zM340 -162q0 15 -9 20l-41 27q-9 6 -14.5 13t-4.5 22v21q0 40 29 40h84q30 0 30 -39v-124q0 -23 -20 -23h-32q-22 0 -22 23v20z" />
    <glyph glyph-name="Egrave" unicode="&#xc8;" horiz-adv-x="613" 
d="M70 0zM299 314q-25 0 -25 -27v-129q0 -21 21 -21h229q26 0 26 -26v-81q0 -30 -28 -30h-379q-73 0 -73 68v624q0 55 56 55h388q27 0 27 -27v-84q0 -27 -27 -27h-221q-19 0 -19 -19v-126q0 -21 19 -21h214q25 0 25 -26v-75q0 -25 -24 -28h-209zM320 797q-17 0 -27 10
l-123 132q-9 9 -9 19q0 19 21 19h98q12 0 16 -2t9 -9l98 -139q6 -8 6 -15q0 -8 -6 -11.5t-14 -3.5h-69z" />
    <glyph glyph-name="Eacute" unicode="&#xc9;" horiz-adv-x="613" 
d="M70 0zM299 314q-25 0 -25 -27v-129q0 -21 21 -21h229q26 0 26 -26v-81q0 -30 -28 -30h-379q-73 0 -73 68v624q0 55 56 55h388q27 0 27 -27v-84q0 -27 -27 -27h-221q-19 0 -19 -19v-126q0 -21 19 -21h214q25 0 25 -26v-75q0 -25 -24 -28h-209zM246 797q-9 0 -15 3.5
t-6 11.5q0 7 6 15l98 139q5 7 9 9t16 2h99q20 0 20 -19q0 -12 -9 -19l-122 -132q-7 -6 -12.5 -8t-15.5 -2h-68z" />
    <glyph glyph-name="Ecircumflex" unicode="&#xca;" horiz-adv-x="613" 
d="M70 0zM299 314q-25 0 -25 -27v-129q0 -21 21 -21h229q26 0 26 -26v-81q0 -30 -28 -30h-379q-73 0 -73 68v624q0 55 56 55h388q27 0 27 -27v-84q0 -27 -27 -27h-221q-19 0 -19 -19v-126q0 -21 19 -21h214q25 0 25 -26v-75q0 -25 -24 -28h-209zM411 781q-17 0 -25 11
l-69 106l-68 -106q-5 -7 -11 -9t-14 -2h-45q-13 0 -23 2.5t-10 16.5q0 3 2 7l4 8l111 163q11 17 28 17h40q21 0 29 -5.5t17 -18.5l106 -156q6 -6 6 -15q0 -19 -21 -19h-57z" />
    <glyph glyph-name="Edieresis" unicode="&#xcb;" horiz-adv-x="613" 
d="M70 0zM299 314q-25 0 -25 -27v-129q0 -21 21 -21h229q26 0 26 -26v-81q0 -30 -28 -30h-379q-73 0 -73 68v624q0 55 56 55h388q27 0 27 -27v-84q0 -27 -27 -27h-221q-19 0 -19 -19v-126q0 -21 19 -21h214q25 0 25 -26v-75q0 -25 -24 -28h-209zM401 808q-13 0 -21 7.5
t-8 20.5v87q0 13 8 20.5t21 7.5h72q29 0 29 -28v-87q0 -28 -29 -28h-72zM162 808q-30 0 -30 28v87q0 28 30 28h72q13 0 21 -7.5t8 -20.5v-87q0 -13 -8 -20.5t-21 -7.5h-72z" />
    <glyph glyph-name="Igrave" unicode="&#xcc;" horiz-adv-x="355" 
d="M23 0zM247 747q36 0 36 -36v-677q0 -34 -36 -34h-139q-35 0 -35 34v677q0 36 35 36h139v0zM182 797q-17 0 -27 10l-123 132q-9 9 -9 19q0 19 21 19h98q12 0 16 -2t9 -9l98 -139q6 -8 6 -15q0 -8 -6 -11.5t-14 -3.5h-69z" />
    <glyph glyph-name="Iacute" unicode="&#xcd;" horiz-adv-x="355" 
d="M73 0zM247 747q36 0 36 -36v-677q0 -34 -36 -34h-139q-35 0 -35 34v677q0 36 35 36h139v0zM106 797q-9 0 -15 3.5t-6 11.5q0 7 6 15l98 139q5 7 9 9t16 2h99q20 0 20 -19q0 -12 -9 -19l-122 -132q-7 -6 -12.5 -8t-15.5 -2h-68z" />
    <glyph glyph-name="Icircumflex" unicode="&#xce;" horiz-adv-x="355" 
d="M7 0zM247 747q36 0 36 -36v-677q0 -34 -36 -34h-139q-35 0 -35 34v677q0 36 35 36h139v0zM272 781q-17 0 -25 11l-69 106l-68 -106q-5 -7 -11 -9t-14 -2h-45q-13 0 -23 2.5t-10 16.5q0 3 2 7l4 8l111 163q11 17 28 17h40q21 0 29 -5.5t17 -18.5l106 -156q6 -6 6 -15
q0 -19 -21 -19h-57z" />
    <glyph glyph-name="Idieresis" unicode="&#xcf;" horiz-adv-x="355" 
d="M0 0zM247 747q36 0 36 -36v-677q0 -34 -36 -34h-139q-35 0 -35 34v677q0 36 35 36h139v0zM262 808q-13 0 -21 7.5t-8 20.5v87q0 13 8 20.5t21 7.5h72q29 0 29 -28v-87q0 -28 -29 -28h-72zM23 808q-30 0 -30 28v87q0 28 30 28h72q13 0 21 -7.5t8 -20.5v-87q0 -13 -8 -20.5
t-21 -7.5h-72z" />
    <glyph glyph-name="Eth" unicode="&#xd0;" horiz-adv-x="686" 
d="M25 314q-25 3 -25 28v75q0 26 26 26h25q19 0 19 21v229q0 29 12.5 41.5t41.5 12.5h343q46 0 76.5 -8.5t48 -27.5t24.5 -49t7 -73v-307q0 -70 -8.5 -112t-25.5 -71q-29 -48 -79 -73.5t-122 -25.5h-264q-29 0 -41.5 12.5t-12.5 40.5v234q0 27 -24 27h-21zM337 134
q52 0 73 43q6 12 8.5 34t2.5 72v287q0 23 -9 32.5t-34 9.5h-109q-19 0 -19 -20v-128q0 -21 19 -21h74q26 0 26 -26v-75q0 -25 -25 -28h-70q-24 0 -24 -27v-132q0 -21 19 -21h68z" />
    <glyph glyph-name="Ntilde" unicode="&#xd1;" horiz-adv-x="707" 
d="M70 0zM447 747q51 0 87.5 -4.5t60 -20.5t34.5 -47t11 -84v-556q0 -35 -36 -35h-106q-36 0 -36 35v511q0 37 -11.5 49t-43.5 12h-82q-23 0 -30 -8.5t-7 -32.5v-531q0 -35 -36 -35h-146q-36 0 -36 35v676q0 36 36 36h341zM536 873q0 -38 -23.5 -49.5t-60.5 -11.5
q-22 0 -48 5t-52.5 11.5t-52 11.5t-45.5 5q-11 0 -19.5 -4t-16 -9l-13.5 -9t-12 -4q-10 0 -16.5 7t-6.5 18v28q0 39 24.5 51t61.5 12q21 0 47 -5t52.5 -11.5t52 -11.5t45.5 -5q11 0 19.5 4t16 9l13.5 9t12 4q22 0 22 -26v-29z" />
    <glyph glyph-name="Ograve" unicode="&#xd2;" horiz-adv-x="677" 
d="M64 0zM272 0q-56 0 -95.5 7.5t-64.5 29t-36.5 59.5t-11.5 100v344q0 65 8.5 105.5t31 63t63 30.5t105.5 8h133q56 0 95.5 -7.5t64.5 -27.5t36.5 -54t11.5 -86v-377q0 -49 -6 -85.5t-24 -61t-51 -36.5t-87 -12h-173zM448 522q0 55 -10.5 75.5t-41.5 20.5h-79
q-34 0 -43.5 -19.5t-9.5 -67.5v-330q0 -16 1 -29t6.5 -22.5t16 -15t29.5 -5.5h78q31 0 42 15t11 57v321zM341 797q-17 0 -27 10l-123 132q-9 9 -9 19q0 19 21 19h98q12 0 16 -2t9 -9l98 -139q6 -8 6 -15q0 -8 -6 -11.5t-14 -3.5h-69z" />
    <glyph glyph-name="Oacute" unicode="&#xd3;" horiz-adv-x="677" 
d="M64 0zM272 0q-56 0 -95.5 7.5t-64.5 29t-36.5 59.5t-11.5 100v344q0 65 8.5 105.5t31 63t63 30.5t105.5 8h133q56 0 95.5 -7.5t64.5 -27.5t36.5 -54t11.5 -86v-377q0 -49 -6 -85.5t-24 -61t-51 -36.5t-87 -12h-173zM448 522q0 55 -10.5 75.5t-41.5 20.5h-79
q-34 0 -43.5 -19.5t-9.5 -67.5v-330q0 -16 1 -29t6.5 -22.5t16 -15t29.5 -5.5h78q31 0 42 15t11 57v321zM267 797q-9 0 -15 3.5t-6 11.5q0 7 6 15l98 139q5 7 9 9t16 2h99q20 0 20 -19q0 -12 -9 -19l-122 -132q-7 -6 -12.5 -8t-15.5 -2h-68z" />
    <glyph glyph-name="Ocircumflex" unicode="&#xd4;" horiz-adv-x="677" 
d="M64 0zM272 0q-56 0 -95.5 7.5t-64.5 29t-36.5 59.5t-11.5 100v344q0 65 8.5 105.5t31 63t63 30.5t105.5 8h133q56 0 95.5 -7.5t64.5 -27.5t36.5 -54t11.5 -86v-377q0 -49 -6 -85.5t-24 -61t-51 -36.5t-87 -12h-173zM448 522q0 55 -10.5 75.5t-41.5 20.5h-79
q-34 0 -43.5 -19.5t-9.5 -67.5v-330q0 -16 1 -29t6.5 -22.5t16 -15t29.5 -5.5h78q31 0 42 15t11 57v321zM432 781q-17 0 -25 11l-69 106l-68 -106q-5 -7 -11 -9t-14 -2h-45q-13 0 -23 2.5t-10 16.5q0 3 2 7l4 8l111 163q11 17 28 17h40q21 0 29 -5.5t17 -18.5l106 -156
q6 -6 6 -15q0 -19 -21 -19h-57z" />
    <glyph glyph-name="Otilde" unicode="&#xd5;" horiz-adv-x="677" 
d="M64 0zM272 0q-56 0 -95.5 7.5t-64.5 29t-36.5 59.5t-11.5 100v344q0 65 8.5 105.5t31 63t63 30.5t105.5 8h133q56 0 95.5 -7.5t64.5 -27.5t36.5 -54t11.5 -86v-377q0 -49 -6 -85.5t-24 -61t-51 -36.5t-87 -12h-173zM448 522q0 55 -10.5 75.5t-41.5 20.5h-79
q-34 0 -43.5 -19.5t-9.5 -67.5v-330q0 -16 1 -29t6.5 -22.5t16 -15t29.5 -5.5h78q31 0 42 15t11 57v321zM521 873q0 -38 -23.5 -49.5t-60.5 -11.5q-22 0 -48 5t-52.5 11.5t-52 11.5t-45.5 5q-11 0 -19.5 -4t-16 -9l-13.5 -9t-12 -4q-10 0 -16.5 7t-6.5 18v28q0 39 24.5 51
t61.5 12q21 0 47 -5t52.5 -11.5t52 -11.5t45.5 -5q11 0 19.5 4t16 9l13.5 9t12 4q22 0 22 -26v-29z" />
    <glyph glyph-name="Odieresis" unicode="&#xd6;" horiz-adv-x="677" 
d="M64 0zM272 0q-56 0 -95.5 7.5t-64.5 29t-36.5 59.5t-11.5 100v344q0 65 8.5 105.5t31 63t63 30.5t105.5 8h133q56 0 95.5 -7.5t64.5 -27.5t36.5 -54t11.5 -86v-377q0 -49 -6 -85.5t-24 -61t-51 -36.5t-87 -12h-173zM448 522q0 55 -10.5 75.5t-41.5 20.5h-79
q-34 0 -43.5 -19.5t-9.5 -67.5v-330q0 -16 1 -29t6.5 -22.5t16 -15t29.5 -5.5h78q31 0 42 15t11 57v321zM422 808q-13 0 -21 7.5t-8 20.5v87q0 13 8 20.5t21 7.5h72q29 0 29 -28v-87q0 -28 -29 -28h-72zM183 808q-30 0 -30 28v87q0 28 30 28h72q13 0 21 -7.5t8 -20.5v-87
q0 -13 -8 -20.5t-21 -7.5h-72z" />
    <glyph glyph-name="multiply" unicode="&#xd7;" 
d="M244 362q9 7 9 16q0 6 -8 14l-144 143q-9 10 -9 22q0 11 9 20l25 25q8 8 14.5 12.5t14.5 4.5q10 0 20 -10l143 -144q6 -7 15 -7t16 7l142 143q10 10 21 10q9 0 20 -9l25 -26q16 -16 17 -29q0 -10 -10 -20l-143 -142q-7 -7 -7 -14q0 -8 8 -16l143 -143q10 -10 10 -22
q0 -11 -10 -20l-24 -24q-16 -16 -30 -16q-10 0 -18 8l-144 143q-7 7 -16 7t-15 -7l-144 -144q-13 -10 -21 -10q-11 0 -21 10l-24 26q-16 13 -16 29q0 9 8 19z" />
    <glyph glyph-name="Oslash" unicode="&#xd8;" horiz-adv-x="677" 
d="M64 540q0 65 8.5 105.5t31 63t63 30.5t105.5 8h260q23 0 38.5 -3.5t25 -12.5t13.5 -25.5t4 -42.5v-468q0 -49 -6 -85.5t-24 -61t-51 -36.5t-87 -12h-308q-38 0 -55.5 16t-17.5 62v462zM448 479l-172 -350h119q31 0 42 15t11 57v278zM264 341l135 277h-82
q-34 0 -43.5 -19.5t-9.5 -67.5v-190z" />
    <glyph glyph-name="Ugrave" unicode="&#xd9;" horiz-adv-x="699" 
d="M67 0zM308 0q-69 0 -115 4.5t-74 20.5t-40 47t-12 84v555q0 36 36 36h136q36 0 36 -36v-530q0 -30 10 -41t36 -11h94q27 0 37 11t10 41v530q0 18 8 27t28 9h98q35 0 35 -36v-555q0 -41 -8 -70.5t-28.5 -48.5t-54 -28t-84.5 -9h-148zM368 797q-17 0 -27 10l-123 132
q-9 9 -9 19q0 19 21 19h98q12 0 16 -2t9 -9l98 -139q6 -8 6 -15q0 -8 -6 -11.5t-14 -3.5h-69z" />
    <glyph glyph-name="Uacute" unicode="&#xda;" horiz-adv-x="699" 
d="M67 0zM308 0q-69 0 -115 4.5t-74 20.5t-40 47t-12 84v555q0 36 36 36h136q36 0 36 -36v-530q0 -30 10 -41t36 -11h94q27 0 37 11t10 41v530q0 18 8 27t28 9h98q35 0 35 -36v-555q0 -41 -8 -70.5t-28.5 -48.5t-54 -28t-84.5 -9h-148zM294 797q-9 0 -15 3.5t-6 11.5
q0 7 6 15l98 139q5 7 9 9t16 2h99q20 0 20 -19q0 -12 -9 -19l-122 -132q-7 -6 -12.5 -8t-15.5 -2h-68z" />
    <glyph glyph-name="Ucircumflex" unicode="&#xdb;" horiz-adv-x="699" 
d="M67 0zM308 0q-69 0 -115 4.5t-74 20.5t-40 47t-12 84v555q0 36 36 36h136q36 0 36 -36v-530q0 -30 10 -41t36 -11h94q27 0 37 11t10 41v530q0 18 8 27t28 9h98q35 0 35 -36v-555q0 -41 -8 -70.5t-28.5 -48.5t-54 -28t-84.5 -9h-148zM459 781q-17 0 -25 11l-69 106
l-68 -106q-5 -7 -11 -9t-14 -2h-45q-13 0 -23 2.5t-10 16.5q0 3 2 7l4 8l111 163q11 17 28 17h40q21 0 29 -5.5t17 -18.5l106 -156q6 -6 6 -15q0 -19 -21 -19h-57z" />
    <glyph glyph-name="Udieresis" unicode="&#xdc;" horiz-adv-x="699" 
d="M67 0zM308 0q-69 0 -115 4.5t-74 20.5t-40 47t-12 84v555q0 36 36 36h136q36 0 36 -36v-530q0 -30 10 -41t36 -11h94q27 0 37 11t10 41v530q0 18 8 27t28 9h98q35 0 35 -36v-555q0 -41 -8 -70.5t-28.5 -48.5t-54 -28t-84.5 -9h-148zM451 808q-13 0 -21 7.5t-8 20.5v87
q0 13 8 20.5t21 7.5h72q29 0 29 -28v-87q0 -28 -29 -28h-72zM212 808q-30 0 -30 28v87q0 28 30 28h72q13 0 21 -7.5t8 -20.5v-87q0 -13 -8 -20.5t-21 -7.5h-72z" />
    <glyph glyph-name="Yacute" unicode="&#xdd;" horiz-adv-x="670" 
d="M53 0zM462 283q-26 0 -34 -8.5t-8 -33.5v-207q0 -34 -36 -34h-102q-37 0 -37 34v210q0 23 -7 31t-33 8h-65q-45 0 -66 29t-21 75v323q0 37 30 37h107q30 0 30 -37v-274q0 -23 7 -31t30 -8h127q20 0 27.5 8t7.5 31v274q0 37 30 37h138q29 0 29 -37v-323q0 -45 -26 -74.5
t-72 -29.5h-56zM253 797q-9 0 -15 3.5t-6 11.5q0 7 6 15l98 139q5 7 9 9t16 2h99q20 0 20 -19q0 -12 -9 -19l-122 -132q-7 -6 -12.5 -8t-15.5 -2h-68z" />
    <glyph glyph-name="Thorn" unicode="&#xde;" horiz-adv-x="663" 
d="M107 0q-37 0 -37 34v678q0 35 37 35h124q37 0 37 -35v-68q0 -24 22 -24h128q103 0 147 -48.5t44 -134.5v-129q0 -87 -44 -134.5t-147 -47.5h-128q-22 0 -22 -25v-67q0 -34 -37 -34h-124zM290 494q-22 0 -22 -23v-197q0 -22 22 -22h73q35 0 51.5 18.5t16.5 60.5v84
q0 42 -16.5 60.5t-51.5 18.5h-73z" />
    <glyph glyph-name="germandbls" unicode="&#xdf;" horiz-adv-x="805" 
d="M547 480q0 -27 30 -31l71 -11q30 -5 49 -13t30.5 -21.5t15.5 -35t4 -52.5v-172q0 -79 -35 -111.5t-117 -32.5h-142q-70 0 -98 26t-28 74v68q0 28 30 28h77q29 0 29 -25v-4q0 -23 23 -23h44q16 0 27 8.5t11 28.5v81q0 14 -10 20.5t-21 8.5l-69 11q-56 9 -79.5 42.5
t-23.5 77.5v158q0 32 -25 32h-31q-27 0 -27 -32v-548q0 -32 -34 -32h-143q-35 0 -35 32v570q0 45 14.5 73.5t41 44.5t65 21.5t86.5 5.5h69q43 0 80 -5t64 -18.5t42 -38t15 -63.5v-142v0z" />
    <glyph glyph-name="agrave" unicode="&#xe0;" horiz-adv-x="735" 
d="M60 0zM309 397q0 -29 28 -29h108q27 0 27 29v178q0 19 -7 29t-27 10h-90q-22 0 -30.5 -9.5t-8.5 -29.5v-178zM675 36q0 -36 -30 -36h-111q-30 0 -30 36v180q0 26 -24 26h-193q-24 0 -24 -26v-180q0 -36 -29 -36h-142q-32 0 -32 36v243q0 14 1 23.5t4.5 17t9.5 14.5t15 15
q13 11 19 20.5t6 24.5v248q0 58 27 81.5t82 23.5h283q60 0 81.5 -23.5t21.5 -81.5v-259q0 -15 7.5 -24.5t22.5 -20.5q20 -16 27.5 -28.5t7.5 -40.5v-233zM370 797q-17 0 -27 10l-123 132q-9 9 -9 19q0 19 21 19h98q12 0 16 -2t9 -9l98 -139q6 -8 6 -15q0 -8 -6 -11.5
t-14 -3.5h-69z" />
    <glyph glyph-name="aacute" unicode="&#xe1;" horiz-adv-x="735" 
d="M60 0zM309 397q0 -29 28 -29h108q27 0 27 29v178q0 19 -7 29t-27 10h-90q-22 0 -30.5 -9.5t-8.5 -29.5v-178zM675 36q0 -36 -30 -36h-111q-30 0 -30 36v180q0 26 -24 26h-193q-24 0 -24 -26v-180q0 -36 -29 -36h-142q-32 0 -32 36v243q0 14 1 23.5t4.5 17t9.5 14.5t15 15
q13 11 19 20.5t6 24.5v248q0 58 27 81.5t82 23.5h283q60 0 81.5 -23.5t21.5 -81.5v-259q0 -15 7.5 -24.5t22.5 -20.5q20 -16 27.5 -28.5t7.5 -40.5v-233zM296 797q-9 0 -15 3.5t-6 11.5q0 7 6 15l98 139q5 7 9 9t16 2h99q20 0 20 -19q0 -12 -9 -19l-122 -132q-7 -6 -12.5 -8
t-15.5 -2h-68z" />
    <glyph glyph-name="acircumflex" unicode="&#xe2;" horiz-adv-x="735" 
d="M60 0zM309 397q0 -29 28 -29h108q27 0 27 29v178q0 19 -7 29t-27 10h-90q-22 0 -30.5 -9.5t-8.5 -29.5v-178zM675 36q0 -36 -30 -36h-111q-30 0 -30 36v180q0 26 -24 26h-193q-24 0 -24 -26v-180q0 -36 -29 -36h-142q-32 0 -32 36v243q0 14 1 23.5t4.5 17t9.5 14.5t15 15
q13 11 19 20.5t6 24.5v248q0 58 27 81.5t82 23.5h283q60 0 81.5 -23.5t21.5 -81.5v-259q0 -15 7.5 -24.5t22.5 -20.5q20 -16 27.5 -28.5t7.5 -40.5v-233zM461 781q-17 0 -25 11l-69 106l-68 -106q-5 -7 -11 -9t-14 -2h-45q-13 0 -23 2.5t-10 16.5q0 3 2 7l4 8l111 163
q11 17 28 17h40q21 0 29 -5.5t17 -18.5l106 -156q6 -6 6 -15q0 -19 -21 -19h-57z" />
    <glyph glyph-name="atilde" unicode="&#xe3;" horiz-adv-x="735" 
d="M60 0zM309 397q0 -29 28 -29h108q27 0 27 29v178q0 19 -7 29t-27 10h-90q-22 0 -30.5 -9.5t-8.5 -29.5v-178zM675 36q0 -36 -30 -36h-111q-30 0 -30 36v180q0 26 -24 26h-193q-24 0 -24 -26v-180q0 -36 -29 -36h-142q-32 0 -32 36v243q0 14 1 23.5t4.5 17t9.5 14.5t15 15
q13 11 19 20.5t6 24.5v248q0 58 27 81.5t82 23.5h283q60 0 81.5 -23.5t21.5 -81.5v-259q0 -15 7.5 -24.5t22.5 -20.5q20 -16 27.5 -28.5t7.5 -40.5v-233zM550 873q0 -38 -23.5 -49.5t-60.5 -11.5q-22 0 -48 5t-52.5 11.5t-52 11.5t-45.5 5q-11 0 -19.5 -4t-16 -9l-13.5 -9
t-12 -4q-10 0 -16.5 7t-6.5 18v28q0 39 24.5 51t61.5 12q21 0 47 -5t52.5 -11.5t52 -11.5t45.5 -5q11 0 19.5 4t16 9l13.5 9t12 4q22 0 22 -26v-29z" />
    <glyph glyph-name="adieresis" unicode="&#xe4;" horiz-adv-x="735" 
d="M60 0zM309 397q0 -29 28 -29h108q27 0 27 29v178q0 19 -7 29t-27 10h-90q-22 0 -30.5 -9.5t-8.5 -29.5v-178zM675 36q0 -36 -30 -36h-111q-30 0 -30 36v180q0 26 -24 26h-193q-24 0 -24 -26v-180q0 -36 -29 -36h-142q-32 0 -32 36v243q0 14 1 23.5t4.5 17t9.5 14.5t15 15
q13 11 19 20.5t6 24.5v248q0 58 27 81.5t82 23.5h283q60 0 81.5 -23.5t21.5 -81.5v-259q0 -15 7.5 -24.5t22.5 -20.5q20 -16 27.5 -28.5t7.5 -40.5v-233zM461 808q-13 0 -21 7.5t-8 20.5v87q0 13 8 20.5t21 7.5h72q29 0 29 -28v-87q0 -28 -29 -28h-72zM222 808q-30 0 -30 28
v87q0 28 30 28h72q13 0 21 -7.5t8 -20.5v-87q0 -13 -8 -20.5t-21 -7.5h-72z" />
    <glyph glyph-name="aring" unicode="&#xe5;" horiz-adv-x="735" 
d="M60 0zM309 397q0 -29 28 -29h108q27 0 27 29v178q0 19 -7 29t-27 10h-90q-22 0 -30.5 -9.5t-8.5 -29.5v-178zM675 36q0 -36 -30 -36h-111q-30 0 -30 36v180q0 26 -24 26h-193q-24 0 -24 -26v-180q0 -36 -29 -36h-142q-32 0 -32 36v243q0 14 1 23.5t4.5 17t9.5 14.5t15 15
q13 11 19 20.5t6 24.5v248q0 58 27 81.5t82 23.5h283q60 0 81.5 -23.5t21.5 -81.5v-259q0 -15 7.5 -24.5t22.5 -20.5q20 -16 27.5 -28.5t7.5 -40.5v-233zM335 767q-26 0 -40.5 3t-22 12t-9.5 24.5t-2 40.5v68q0 25 2 40.5t9.5 24.5t22 12t40.5 3h78q25 0 39.5 -3t22 -12
t9.5 -24.5t2 -40.5v-68q0 -25 -2 -40.5t-9.5 -24.5t-22 -12t-39.5 -3h-78zM329 849q0 -14 3 -17t15 -3h54q12 0 15 3t3 17v64q0 14 -3 17t-15 3h-54q-12 0 -15 -3t-3 -17v-64z" />
    <glyph glyph-name="ae" unicode="&#xe6;" horiz-adv-x="973" 
d="M60 0zM679 314q-24 0 -24 -27v-129q0 -21 21 -21h207q27 0 27 -26v-81q0 -30 -29 -30h-400q-30 0 -30 36v180q0 26 -24 26h-140q-24 0 -24 -26v-180q0 -36 -29 -36h-142q-32 0 -32 36v243q0 14 1 23.5t4.5 17t9.5 14.5t15 15q13 11 19 20.5t6 24.5v248q0 58 27 81.5
t82 23.5h649q27 0 27 -27v-84q0 -27 -27 -27h-199q-19 0 -19 -19v-126q0 -21 19 -21h192q26 0 26 -26v-75q0 -25 -25 -28h-188zM309 397q0 -29 28 -29h86q28 0 28 29v178q0 19 -7 29t-27 10h-69q-22 0 -30.5 -9.5t-8.5 -29.5v-178z" />
    <glyph glyph-name="ccedilla" unicode="&#xe7;" horiz-adv-x="669" 
d="M64 0zM272 199q0 -41 10 -53t36 -12h80q23 0 31.5 7t8.5 24v38q0 20 22 20h118q27 0 27 -27v-50q0 -43 -16.5 -71t-43.5 -44.5t-61 -23.5t-68 -7h-120q-75 0 -120.5 9t-70.5 32.5t-33 63.5t-8 103v331q0 63 8 103t33 63.5t70.5 32.5t120.5 9h92q47 0 86.5 -6t68 -22
t44.5 -45t16 -74v-41q0 -27 -27 -27h-118q-22 0 -22 20v22q0 21 -7.5 29.5t-30.5 8.5h-80q-26 0 -36 -11.5t-10 -53.5v-348zM340 -162q0 15 -9 20l-41 27q-9 6 -14.5 13t-4.5 22v21q0 40 29 40h84q30 0 30 -39v-124q0 -23 -20 -23h-32q-22 0 -22 23v20z" />
    <glyph glyph-name="egrave" unicode="&#xe8;" horiz-adv-x="613" 
d="M70 0zM299 314q-25 0 -25 -27v-129q0 -21 21 -21h229q26 0 26 -26v-81q0 -30 -28 -30h-379q-73 0 -73 68v624q0 55 56 55h388q27 0 27 -27v-84q0 -27 -27 -27h-221q-19 0 -19 -19v-126q0 -21 19 -21h214q25 0 25 -26v-75q0 -25 -24 -28h-209zM320 797q-17 0 -27 10
l-123 132q-9 9 -9 19q0 19 21 19h98q12 0 16 -2t9 -9l98 -139q6 -8 6 -15q0 -8 -6 -11.5t-14 -3.5h-69z" />
    <glyph glyph-name="eacute" unicode="&#xe9;" horiz-adv-x="613" 
d="M70 0zM299 314q-25 0 -25 -27v-129q0 -21 21 -21h229q26 0 26 -26v-81q0 -30 -28 -30h-379q-73 0 -73 68v624q0 55 56 55h388q27 0 27 -27v-84q0 -27 -27 -27h-221q-19 0 -19 -19v-126q0 -21 19 -21h214q25 0 25 -26v-75q0 -25 -24 -28h-209zM246 797q-9 0 -15 3.5
t-6 11.5q0 7 6 15l98 139q5 7 9 9t16 2h99q20 0 20 -19q0 -12 -9 -19l-122 -132q-7 -6 -12.5 -8t-15.5 -2h-68z" />
    <glyph glyph-name="ecircumflex" unicode="&#xea;" horiz-adv-x="613" 
d="M70 0zM299 314q-25 0 -25 -27v-129q0 -21 21 -21h229q26 0 26 -26v-81q0 -30 -28 -30h-379q-73 0 -73 68v624q0 55 56 55h388q27 0 27 -27v-84q0 -27 -27 -27h-221q-19 0 -19 -19v-126q0 -21 19 -21h214q25 0 25 -26v-75q0 -25 -24 -28h-209zM411 781q-17 0 -25 11
l-69 106l-68 -106q-5 -7 -11 -9t-14 -2h-45q-13 0 -23 2.5t-10 16.5q0 3 2 7l4 8l111 163q11 17 28 17h40q21 0 29 -5.5t17 -18.5l106 -156q6 -6 6 -15q0 -19 -21 -19h-57z" />
    <glyph glyph-name="edieresis" unicode="&#xeb;" horiz-adv-x="613" 
d="M70 0zM299 314q-25 0 -25 -27v-129q0 -21 21 -21h229q26 0 26 -26v-81q0 -30 -28 -30h-379q-73 0 -73 68v624q0 55 56 55h388q27 0 27 -27v-84q0 -27 -27 -27h-221q-19 0 -19 -19v-126q0 -21 19 -21h214q25 0 25 -26v-75q0 -25 -24 -28h-209zM401 808q-13 0 -21 7.5
t-8 20.5v87q0 13 8 20.5t21 7.5h72q29 0 29 -28v-87q0 -28 -29 -28h-72zM162 808q-30 0 -30 28v87q0 28 30 28h72q13 0 21 -7.5t8 -20.5v-87q0 -13 -8 -20.5t-21 -7.5h-72z" />
    <glyph glyph-name="igrave" unicode="&#xec;" horiz-adv-x="355" 
d="M23 0zM247 747q36 0 36 -36v-677q0 -34 -36 -34h-139q-35 0 -35 34v677q0 36 35 36h139v0zM182 797q-17 0 -27 10l-123 132q-9 9 -9 19q0 19 21 19h98q12 0 16 -2t9 -9l98 -139q6 -8 6 -15q0 -8 -6 -11.5t-14 -3.5h-69z" />
    <glyph glyph-name="iacute" unicode="&#xed;" horiz-adv-x="355" 
d="M73 0zM247 747q36 0 36 -36v-677q0 -34 -36 -34h-139q-35 0 -35 34v677q0 36 35 36h139v0zM106 797q-9 0 -15 3.5t-6 11.5q0 7 6 15l98 139q5 7 9 9t16 2h99q20 0 20 -19q0 -12 -9 -19l-122 -132q-7 -6 -12.5 -8t-15.5 -2h-68z" />
    <glyph glyph-name="icircumflex" unicode="&#xee;" horiz-adv-x="355" 
d="M7 0zM247 747q36 0 36 -36v-677q0 -34 -36 -34h-139q-35 0 -35 34v677q0 36 35 36h139v0zM272 781q-17 0 -25 11l-69 106l-68 -106q-5 -7 -11 -9t-14 -2h-45q-13 0 -23 2.5t-10 16.5q0 3 2 7l4 8l111 163q11 17 28 17h40q21 0 29 -5.5t17 -18.5l106 -156q6 -6 6 -15
q0 -19 -21 -19h-57z" />
    <glyph glyph-name="idieresis" unicode="&#xef;" horiz-adv-x="355" 
d="M0 0zM247 747q36 0 36 -36v-677q0 -34 -36 -34h-139q-35 0 -35 34v677q0 36 35 36h139v0zM262 808q-13 0 -21 7.5t-8 20.5v87q0 13 8 20.5t21 7.5h72q29 0 29 -28v-87q0 -28 -29 -28h-72zM23 808q-30 0 -30 28v87q0 28 30 28h72q13 0 21 -7.5t8 -20.5v-87q0 -13 -8 -20.5
t-21 -7.5h-72z" />
    <glyph glyph-name="eth" unicode="&#xf0;" horiz-adv-x="686" 
d="M0 0zM25 314q-25 3 -25 28v75q0 26 26 26h25q19 0 19 21v229q0 29 12.5 41.5t41.5 12.5h343q46 0 76.5 -8.5t48 -27.5t24.5 -49t7 -73v-307q0 -70 -8.5 -112t-25.5 -71q-29 -48 -79 -73.5t-122 -25.5h-264q-29 0 -41.5 12.5t-12.5 40.5v234q0 27 -24 27h-21zM337 134
q52 0 73 43q6 12 8.5 34t2.5 72v287q0 23 -9 32.5t-34 9.5h-109q-19 0 -19 -20v-128q0 -21 19 -21h74q26 0 26 -26v-75q0 -25 -25 -28h-70q-24 0 -24 -27v-132q0 -21 19 -21h68z" />
    <glyph glyph-name="ntilde" unicode="&#xf1;" horiz-adv-x="707" 
d="M70 0zM447 747q51 0 87.5 -4.5t60 -20.5t34.5 -47t11 -84v-556q0 -35 -36 -35h-106q-36 0 -36 35v511q0 37 -11.5 49t-43.5 12h-82q-23 0 -30 -8.5t-7 -32.5v-531q0 -35 -36 -35h-146q-36 0 -36 35v676q0 36 36 36h341zM536 873q0 -38 -23.5 -49.5t-60.5 -11.5
q-22 0 -48 5t-52.5 11.5t-52 11.5t-45.5 5q-11 0 -19.5 -4t-16 -9l-13.5 -9t-12 -4q-10 0 -16.5 7t-6.5 18v28q0 39 24.5 51t61.5 12q21 0 47 -5t52.5 -11.5t52 -11.5t45.5 -5q11 0 19.5 4t16 9l13.5 9t12 4q22 0 22 -26v-29z" />
    <glyph glyph-name="ograve" unicode="&#xf2;" horiz-adv-x="677" 
d="M64 0zM272 0q-56 0 -95.5 7.5t-64.5 29t-36.5 59.5t-11.5 100v344q0 65 8.5 105.5t31 63t63 30.5t105.5 8h133q56 0 95.5 -7.5t64.5 -27.5t36.5 -54t11.5 -86v-377q0 -49 -6 -85.5t-24 -61t-51 -36.5t-87 -12h-173zM448 522q0 55 -10.5 75.5t-41.5 20.5h-79
q-34 0 -43.5 -19.5t-9.5 -67.5v-330q0 -16 1 -29t6.5 -22.5t16 -15t29.5 -5.5h78q31 0 42 15t11 57v321zM341 797q-17 0 -27 10l-123 132q-9 9 -9 19q0 19 21 19h98q12 0 16 -2t9 -9l98 -139q6 -8 6 -15q0 -8 -6 -11.5t-14 -3.5h-69z" />
    <glyph glyph-name="oacute" unicode="&#xf3;" horiz-adv-x="677" 
d="M64 0zM272 0q-56 0 -95.5 7.5t-64.5 29t-36.5 59.5t-11.5 100v344q0 65 8.5 105.5t31 63t63 30.5t105.5 8h133q56 0 95.5 -7.5t64.5 -27.5t36.5 -54t11.5 -86v-377q0 -49 -6 -85.5t-24 -61t-51 -36.5t-87 -12h-173zM448 522q0 55 -10.5 75.5t-41.5 20.5h-79
q-34 0 -43.5 -19.5t-9.5 -67.5v-330q0 -16 1 -29t6.5 -22.5t16 -15t29.5 -5.5h78q31 0 42 15t11 57v321zM267 797q-9 0 -15 3.5t-6 11.5q0 7 6 15l98 139q5 7 9 9t16 2h99q20 0 20 -19q0 -12 -9 -19l-122 -132q-7 -6 -12.5 -8t-15.5 -2h-68z" />
    <glyph glyph-name="ocircumflex" unicode="&#xf4;" horiz-adv-x="677" 
d="M64 0zM272 0q-56 0 -95.5 7.5t-64.5 29t-36.5 59.5t-11.5 100v344q0 65 8.5 105.5t31 63t63 30.5t105.5 8h133q56 0 95.5 -7.5t64.5 -27.5t36.5 -54t11.5 -86v-377q0 -49 -6 -85.5t-24 -61t-51 -36.5t-87 -12h-173zM448 522q0 55 -10.5 75.5t-41.5 20.5h-79
q-34 0 -43.5 -19.5t-9.5 -67.5v-330q0 -16 1 -29t6.5 -22.5t16 -15t29.5 -5.5h78q31 0 42 15t11 57v321zM432 781q-17 0 -25 11l-69 106l-68 -106q-5 -7 -11 -9t-14 -2h-45q-13 0 -23 2.5t-10 16.5q0 3 2 7l4 8l111 163q11 17 28 17h40q21 0 29 -5.5t17 -18.5l106 -156
q6 -6 6 -15q0 -19 -21 -19h-57z" />
    <glyph glyph-name="otilde" unicode="&#xf5;" horiz-adv-x="677" 
d="M64 0zM272 0q-56 0 -95.5 7.5t-64.5 29t-36.5 59.5t-11.5 100v344q0 65 8.5 105.5t31 63t63 30.5t105.5 8h133q56 0 95.5 -7.5t64.5 -27.5t36.5 -54t11.5 -86v-377q0 -49 -6 -85.5t-24 -61t-51 -36.5t-87 -12h-173zM448 522q0 55 -10.5 75.5t-41.5 20.5h-79
q-34 0 -43.5 -19.5t-9.5 -67.5v-330q0 -16 1 -29t6.5 -22.5t16 -15t29.5 -5.5h78q31 0 42 15t11 57v321zM521 873q0 -38 -23.5 -49.5t-60.5 -11.5q-22 0 -48 5t-52.5 11.5t-52 11.5t-45.5 5q-11 0 -19.5 -4t-16 -9l-13.5 -9t-12 -4q-10 0 -16.5 7t-6.5 18v28q0 39 24.5 51
t61.5 12q21 0 47 -5t52.5 -11.5t52 -11.5t45.5 -5q11 0 19.5 4t16 9l13.5 9t12 4q22 0 22 -26v-29z" />
    <glyph glyph-name="odieresis" unicode="&#xf6;" horiz-adv-x="677" 
d="M64 0zM272 0q-56 0 -95.5 7.5t-64.5 29t-36.5 59.5t-11.5 100v344q0 65 8.5 105.5t31 63t63 30.5t105.5 8h133q56 0 95.5 -7.5t64.5 -27.5t36.5 -54t11.5 -86v-377q0 -49 -6 -85.5t-24 -61t-51 -36.5t-87 -12h-173zM448 522q0 55 -10.5 75.5t-41.5 20.5h-79
q-34 0 -43.5 -19.5t-9.5 -67.5v-330q0 -16 1 -29t6.5 -22.5t16 -15t29.5 -5.5h78q31 0 42 15t11 57v321zM422 808q-13 0 -21 7.5t-8 20.5v87q0 13 8 20.5t21 7.5h72q29 0 29 -28v-87q0 -28 -29 -28h-72zM183 808q-30 0 -30 28v87q0 28 30 28h72q13 0 21 -7.5t8 -20.5v-87
q0 -13 -8 -20.5t-21 -7.5h-72z" />
    <glyph glyph-name="divide" unicode="&#xf7;" 
d="M69 35zM99 326q-14 0 -22 8t-8 21v35q0 19 6.5 29.5t23.5 10.5h467q29 0 29 -29v-35q0 -17 -6 -28.5t-23 -11.5h-467zM280 35q-22 0 -29 11.5t-7 33.5v72q0 23 7.5 34.5t28.5 11.5h104q21 0 28.5 -11.5t7.5 -34.5v-72q0 -22 -7 -33.5t-29 -11.5h-104zM280 558
q-22 0 -29 11.5t-7 33.5v72q0 23 7.5 34.5t28.5 11.5h104q21 0 28.5 -11.5t7.5 -34.5v-72q0 -22 -7 -33.5t-29 -11.5h-104z" />
    <glyph glyph-name="oslash" unicode="&#xf8;" horiz-adv-x="677" 
d="M64 0zM64 540q0 65 8.5 105.5t31 63t63 30.5t105.5 8h260q23 0 38.5 -3.5t25 -12.5t13.5 -25.5t4 -42.5v-468q0 -49 -6 -85.5t-24 -61t-51 -36.5t-87 -12h-308q-38 0 -55.5 16t-17.5 62v462zM448 479l-172 -350h119q31 0 42 15t11 57v278zM264 341l135 277h-82
q-34 0 -43.5 -19.5t-9.5 -67.5v-190z" />
    <glyph glyph-name="ugrave" unicode="&#xf9;" horiz-adv-x="699" 
d="M67 0zM308 0q-69 0 -115 4.5t-74 20.5t-40 47t-12 84v555q0 36 36 36h136q36 0 36 -36v-530q0 -30 10 -41t36 -11h94q27 0 37 11t10 41v530q0 18 8 27t28 9h98q35 0 35 -36v-555q0 -41 -8 -70.5t-28.5 -48.5t-54 -28t-84.5 -9h-148zM368 797q-17 0 -27 10l-123 132
q-9 9 -9 19q0 19 21 19h98q12 0 16 -2t9 -9l98 -139q6 -8 6 -15q0 -8 -6 -11.5t-14 -3.5h-69z" />
    <glyph glyph-name="uacute" unicode="&#xfa;" horiz-adv-x="699" 
d="M67 0zM308 0q-69 0 -115 4.5t-74 20.5t-40 47t-12 84v555q0 36 36 36h136q36 0 36 -36v-530q0 -30 10 -41t36 -11h94q27 0 37 11t10 41v530q0 18 8 27t28 9h98q35 0 35 -36v-555q0 -41 -8 -70.5t-28.5 -48.5t-54 -28t-84.5 -9h-148zM294 797q-9 0 -15 3.5t-6 11.5
q0 7 6 15l98 139q5 7 9 9t16 2h99q20 0 20 -19q0 -12 -9 -19l-122 -132q-7 -6 -12.5 -8t-15.5 -2h-68z" />
    <glyph glyph-name="ucircumflex" unicode="&#xfb;" horiz-adv-x="699" 
d="M67 0zM308 0q-69 0 -115 4.5t-74 20.5t-40 47t-12 84v555q0 36 36 36h136q36 0 36 -36v-530q0 -30 10 -41t36 -11h94q27 0 37 11t10 41v530q0 18 8 27t28 9h98q35 0 35 -36v-555q0 -41 -8 -70.5t-28.5 -48.5t-54 -28t-84.5 -9h-148zM459 781q-17 0 -25 11l-69 106
l-68 -106q-5 -7 -11 -9t-14 -2h-45q-13 0 -23 2.5t-10 16.5q0 3 2 7l4 8l111 163q11 17 28 17h40q21 0 29 -5.5t17 -18.5l106 -156q6 -6 6 -15q0 -19 -21 -19h-57z" />
    <glyph glyph-name="udieresis" unicode="&#xfc;" horiz-adv-x="699" 
d="M67 0zM308 0q-69 0 -115 4.5t-74 20.5t-40 47t-12 84v555q0 36 36 36h136q36 0 36 -36v-530q0 -30 10 -41t36 -11h94q27 0 37 11t10 41v530q0 18 8 27t28 9h98q35 0 35 -36v-555q0 -41 -8 -70.5t-28.5 -48.5t-54 -28t-84.5 -9h-148zM451 808q-13 0 -21 7.5t-8 20.5v87
q0 13 8 20.5t21 7.5h72q29 0 29 -28v-87q0 -28 -29 -28h-72zM212 808q-30 0 -30 28v87q0 28 30 28h72q13 0 21 -7.5t8 -20.5v-87q0 -13 -8 -20.5t-21 -7.5h-72z" />
    <glyph glyph-name="yacute" unicode="&#xfd;" horiz-adv-x="670" 
d="M53 0zM462 283q-26 0 -34 -8.5t-8 -33.5v-207q0 -34 -36 -34h-102q-37 0 -37 34v210q0 23 -7 31t-33 8h-65q-45 0 -66 29t-21 75v323q0 37 30 37h107q30 0 30 -37v-274q0 -23 7 -31t30 -8h127q20 0 27.5 8t7.5 31v274q0 37 30 37h138q29 0 29 -37v-323q0 -45 -26 -74.5
t-72 -29.5h-56zM253 797q-9 0 -15 3.5t-6 11.5q0 7 6 15l98 139q5 7 9 9t16 2h99q20 0 20 -19q0 -12 -9 -19l-122 -132q-7 -6 -12.5 -8t-15.5 -2h-68z" />
    <glyph glyph-name="thorn" unicode="&#xfe;" horiz-adv-x="663" 
d="M70 0zM107 0q-37 0 -37 34v678q0 35 37 35h124q37 0 37 -35v-68q0 -24 22 -24h128q103 0 147 -48.5t44 -134.5v-129q0 -87 -44 -134.5t-147 -47.5h-128q-22 0 -22 -25v-67q0 -34 -37 -34h-124zM290 494q-22 0 -22 -23v-197q0 -22 22 -22h73q35 0 51.5 18.5t16.5 60.5v84
q0 42 -16.5 60.5t-51.5 18.5h-73z" />
    <glyph glyph-name="ydieresis" unicode="&#xff;" horiz-adv-x="670" 
d="M53 0zM462 283q-26 0 -34 -8.5t-8 -33.5v-207q0 -34 -36 -34h-102q-37 0 -37 34v210q0 23 -7 31t-33 8h-65q-45 0 -66 29t-21 75v323q0 37 30 37h107q30 0 30 -37v-274q0 -23 7 -31t30 -8h127q20 0 27.5 8t7.5 31v274q0 37 30 37h138q29 0 29 -37v-323q0 -45 -26 -74.5
t-72 -29.5h-56zM407 808q-13 0 -21 7.5t-8 20.5v87q0 13 8 20.5t21 7.5h72q29 0 29 -28v-87q0 -28 -29 -28h-72zM168 808q-30 0 -30 28v87q0 28 30 28h72q13 0 21 -7.5t8 -20.5v-87q0 -13 -8 -20.5t-21 -7.5h-72z" />
    <glyph glyph-name="Amacron" unicode="&#x100;" horiz-adv-x="735" 
d="M60 0zM309 397q0 -29 28 -29h108q27 0 27 29v178q0 19 -7 29t-27 10h-90q-22 0 -30.5 -9.5t-8.5 -29.5v-178zM675 36q0 -36 -30 -36h-111q-30 0 -30 36v180q0 26 -24 26h-193q-24 0 -24 -26v-180q0 -36 -29 -36h-142q-32 0 -32 36v243q0 14 1 23.5t4.5 17t9.5 14.5t15 15
q13 11 19 20.5t6 24.5v248q0 58 27 81.5t82 23.5h283q60 0 81.5 -23.5t21.5 -81.5v-259q0 -15 7.5 -24.5t22.5 -20.5q20 -16 27.5 -28.5t7.5 -40.5v-233zM214 836q-14 0 -22 8t-8 21v35q0 29 30 29h306q30 0 30 -29v-35q0 -13 -7.5 -21t-22.5 -8h-306z" />
    <glyph glyph-name="amacron" unicode="&#x101;" horiz-adv-x="735" 
d="M60 0zM309 397q0 -29 28 -29h108q27 0 27 29v178q0 19 -7 29t-27 10h-90q-22 0 -30.5 -9.5t-8.5 -29.5v-178zM675 36q0 -36 -30 -36h-111q-30 0 -30 36v180q0 26 -24 26h-193q-24 0 -24 -26v-180q0 -36 -29 -36h-142q-32 0 -32 36v243q0 14 1 23.5t4.5 17t9.5 14.5t15 15
q13 11 19 20.5t6 24.5v248q0 58 27 81.5t82 23.5h283q60 0 81.5 -23.5t21.5 -81.5v-259q0 -15 7.5 -24.5t22.5 -20.5q20 -16 27.5 -28.5t7.5 -40.5v-233zM214 836q-14 0 -22 8t-8 21v35q0 29 30 29h306q30 0 30 -29v-35q0 -13 -7.5 -21t-22.5 -8h-306z" />
    <glyph glyph-name="Abreve" unicode="&#x102;" horiz-adv-x="735" 
d="M60 0zM309 397q0 -29 28 -29h108q27 0 27 29v178q0 19 -7 29t-27 10h-90q-22 0 -30.5 -9.5t-8.5 -29.5v-178zM675 36q0 -36 -30 -36h-111q-30 0 -30 36v180q0 26 -24 26h-193q-24 0 -24 -26v-180q0 -36 -29 -36h-142q-32 0 -32 36v243q0 14 1 23.5t4.5 17t9.5 14.5t15 15
q13 11 19 20.5t6 24.5v248q0 58 27 81.5t82 23.5h283q60 0 81.5 -23.5t21.5 -81.5v-259q0 -15 7.5 -24.5t22.5 -20.5q20 -16 27.5 -28.5t7.5 -40.5v-233zM523 952q0 -81 -37.5 -125t-118.5 -44q-83 0 -119.5 45t-36.5 125v9q0 22 24 22h52q20 0 20 -22q0 -52 12.5 -73.5
t47.5 -21.5t47.5 22t12.5 73q0 22 22 22h51q23 0 23 -22v-10z" />
    <glyph glyph-name="abreve" unicode="&#x103;" horiz-adv-x="735" 
d="M60 0zM309 397q0 -29 28 -29h108q27 0 27 29v178q0 19 -7 29t-27 10h-90q-22 0 -30.5 -9.5t-8.5 -29.5v-178zM675 36q0 -36 -30 -36h-111q-30 0 -30 36v180q0 26 -24 26h-193q-24 0 -24 -26v-180q0 -36 -29 -36h-142q-32 0 -32 36v243q0 14 1 23.5t4.5 17t9.5 14.5t15 15
q13 11 19 20.5t6 24.5v248q0 58 27 81.5t82 23.5h283q60 0 81.5 -23.5t21.5 -81.5v-259q0 -15 7.5 -24.5t22.5 -20.5q20 -16 27.5 -28.5t7.5 -40.5v-233zM523 952q0 -81 -37.5 -125t-118.5 -44q-83 0 -119.5 45t-36.5 125v9q0 22 24 22h52q20 0 20 -22q0 -52 12.5 -73.5
t47.5 -21.5t47.5 22t12.5 73q0 22 22 22h51q23 0 23 -22v-10z" />
    <glyph glyph-name="Aogonek" unicode="&#x104;" horiz-adv-x="735" 
d="M579 -205q-44 0 -62.5 15t-18.5 59v26q0 21 6.5 34.5t21.5 24.5l38 28q6 4 6 8q0 10 -10 10h-26q-30 0 -30 36v180q0 26 -24 26h-193q-24 0 -24 -26v-180q0 -36 -29 -36h-142q-32 0 -32 36v243q0 14 1 23.5t4.5 17t9.5 14.5t15 15q13 11 19 20.5t6 24.5v248q0 58 27 81.5
t82 23.5h283q60 0 81.5 -23.5t21.5 -81.5v-259q0 -15 7.5 -24.5t22.5 -20.5q20 -16 27.5 -28.5t7.5 -40.5v-233q0 -17 -3 -25t-12 -15l-49 -41q-5 -4 -6.5 -7t-1.5 -11v-14q0 -14 10 -14h68q29 0 29 -28v-57q0 -13 -7.5 -21t-21.5 -8h-102zM309 397q0 -29 28 -29h108
q27 0 27 29v178q0 19 -7 29t-27 10h-90q-22 0 -30.5 -9.5t-8.5 -29.5v-178z" />
    <glyph glyph-name="aogonek" unicode="&#x105;" horiz-adv-x="735" 
d="M579 -205q-44 0 -62.5 15t-18.5 59v26q0 21 6.5 34.5t21.5 24.5l38 28q6 4 6 8q0 10 -10 10h-26q-30 0 -30 36v180q0 26 -24 26h-193q-24 0 -24 -26v-180q0 -36 -29 -36h-142q-32 0 -32 36v243q0 14 1 23.5t4.5 17t9.5 14.5t15 15q13 11 19 20.5t6 24.5v248q0 58 27 81.5
t82 23.5h283q60 0 81.5 -23.5t21.5 -81.5v-259q0 -15 7.5 -24.5t22.5 -20.5q20 -16 27.5 -28.5t7.5 -40.5v-233q0 -17 -3 -25t-12 -15l-49 -41q-5 -4 -6.5 -7t-1.5 -11v-14q0 -14 10 -14h68q29 0 29 -28v-57q0 -13 -7.5 -21t-21.5 -8h-102zM309 397q0 -29 28 -29h108
q27 0 27 29v178q0 19 -7 29t-27 10h-90q-22 0 -30.5 -9.5t-8.5 -29.5v-178z" />
    <glyph glyph-name="Cacute" unicode="&#x106;" horiz-adv-x="669" 
d="M64 0zM272 199q0 -41 10 -53t36 -12h80q23 0 31.5 7t8.5 24v38q0 20 22 20h118q27 0 27 -27v-50q0 -43 -16.5 -71t-43.5 -44.5t-61 -23.5t-68 -7h-120q-75 0 -120.5 9t-70.5 32.5t-33 63.5t-8 103v331q0 63 8 103t33 63.5t70.5 32.5t120.5 9h92q47 0 86.5 -6t68 -22
t44.5 -45t16 -74v-41q0 -27 -27 -27h-118q-22 0 -22 20v22q0 21 -7.5 29.5t-30.5 8.5h-80q-26 0 -36 -11.5t-10 -53.5v-348zM263 797q-9 0 -15 3.5t-6 11.5q0 7 6 15l98 139q5 7 9 9t16 2h99q20 0 20 -19q0 -12 -9 -19l-122 -132q-7 -6 -12.5 -8t-15.5 -2h-68z" />
    <glyph glyph-name="cacute" unicode="&#x107;" horiz-adv-x="669" 
d="M64 0zM272 199q0 -41 10 -53t36 -12h80q23 0 31.5 7t8.5 24v38q0 20 22 20h118q27 0 27 -27v-50q0 -43 -16.5 -71t-43.5 -44.5t-61 -23.5t-68 -7h-120q-75 0 -120.5 9t-70.5 32.5t-33 63.5t-8 103v331q0 63 8 103t33 63.5t70.5 32.5t120.5 9h92q47 0 86.5 -6t68 -22
t44.5 -45t16 -74v-41q0 -27 -27 -27h-118q-22 0 -22 20v22q0 21 -7.5 29.5t-30.5 8.5h-80q-26 0 -36 -11.5t-10 -53.5v-348zM263 797q-9 0 -15 3.5t-6 11.5q0 7 6 15l98 139q5 7 9 9t16 2h99q20 0 20 -19q0 -12 -9 -19l-122 -132q-7 -6 -12.5 -8t-15.5 -2h-68z" />
    <glyph glyph-name="Ccircumflex" unicode="&#x108;" horiz-adv-x="669" 
d="M64 0zM272 199q0 -41 10 -53t36 -12h80q23 0 31.5 7t8.5 24v38q0 20 22 20h118q27 0 27 -27v-50q0 -43 -16.5 -71t-43.5 -44.5t-61 -23.5t-68 -7h-120q-75 0 -120.5 9t-70.5 32.5t-33 63.5t-8 103v331q0 63 8 103t33 63.5t70.5 32.5t120.5 9h92q47 0 86.5 -6t68 -22
t44.5 -45t16 -74v-41q0 -27 -27 -27h-118q-22 0 -22 20v22q0 21 -7.5 29.5t-30.5 8.5h-80q-26 0 -36 -11.5t-10 -53.5v-348zM428 781q-17 0 -25 11l-69 106l-68 -106q-5 -7 -11 -9t-14 -2h-45q-13 0 -23 2.5t-10 16.5q0 3 2 7l4 8l111 163q11 17 28 17h40q21 0 29 -5.5
t17 -18.5l106 -156q6 -6 6 -15q0 -19 -21 -19h-57z" />
    <glyph glyph-name="ccircumflex" unicode="&#x109;" horiz-adv-x="669" 
d="M64 0zM272 199q0 -41 10 -53t36 -12h80q23 0 31.5 7t8.5 24v38q0 20 22 20h118q27 0 27 -27v-50q0 -43 -16.5 -71t-43.5 -44.5t-61 -23.5t-68 -7h-120q-75 0 -120.5 9t-70.5 32.5t-33 63.5t-8 103v331q0 63 8 103t33 63.5t70.5 32.5t120.5 9h92q47 0 86.5 -6t68 -22
t44.5 -45t16 -74v-41q0 -27 -27 -27h-118q-22 0 -22 20v22q0 21 -7.5 29.5t-30.5 8.5h-80q-26 0 -36 -11.5t-10 -53.5v-348zM428 781q-17 0 -25 11l-69 106l-68 -106q-5 -7 -11 -9t-14 -2h-45q-13 0 -23 2.5t-10 16.5q0 3 2 7l4 8l111 163q11 17 28 17h40q21 0 29 -5.5
t17 -18.5l106 -156q6 -6 6 -15q0 -19 -21 -19h-57z" />
    <glyph glyph-name="Cdotaccent" unicode="&#x10a;" horiz-adv-x="669" 
d="M64 0zM272 199q0 -41 10 -53t36 -12h80q23 0 31.5 7t8.5 24v38q0 20 22 20h118q27 0 27 -27v-50q0 -43 -16.5 -71t-43.5 -44.5t-61 -23.5t-68 -7h-120q-75 0 -120.5 9t-70.5 32.5t-33 63.5t-8 103v331q0 63 8 103t33 63.5t70.5 32.5t120.5 9h92q47 0 86.5 -6t68 -22
t44.5 -45t16 -74v-41q0 -27 -27 -27h-118q-22 0 -22 20v22q0 21 -7.5 29.5t-30.5 8.5h-80q-26 0 -36 -11.5t-10 -53.5v-348zM298 808q-30 0 -30 28v87q0 28 30 28h72q13 0 21 -7.5t8 -20.5v-87q0 -13 -8 -20.5t-21 -7.5h-72z" />
    <glyph glyph-name="cdotaccent" unicode="&#x10b;" horiz-adv-x="669" 
d="M64 0zM272 199q0 -41 10 -53t36 -12h80q23 0 31.5 7t8.5 24v38q0 20 22 20h118q27 0 27 -27v-50q0 -43 -16.5 -71t-43.5 -44.5t-61 -23.5t-68 -7h-120q-75 0 -120.5 9t-70.5 32.5t-33 63.5t-8 103v331q0 63 8 103t33 63.5t70.5 32.5t120.5 9h92q47 0 86.5 -6t68 -22
t44.5 -45t16 -74v-41q0 -27 -27 -27h-118q-22 0 -22 20v22q0 21 -7.5 29.5t-30.5 8.5h-80q-26 0 -36 -11.5t-10 -53.5v-348zM298 808q-30 0 -30 28v87q0 28 30 28h72q13 0 21 -7.5t8 -20.5v-87q0 -13 -8 -20.5t-21 -7.5h-72z" />
    <glyph glyph-name="Ccaron" unicode="&#x10c;" horiz-adv-x="669" 
d="M64 0zM272 199q0 -41 10 -53t36 -12h80q23 0 31.5 7t8.5 24v38q0 20 22 20h118q27 0 27 -27v-50q0 -43 -16.5 -71t-43.5 -44.5t-61 -23.5t-68 -7h-120q-75 0 -120.5 9t-70.5 32.5t-33 63.5t-8 103v331q0 63 8 103t33 63.5t70.5 32.5t120.5 9h92q47 0 86.5 -6t68 -22
t44.5 -45t16 -74v-41q0 -27 -27 -27h-118q-22 0 -22 20v22q0 21 -7.5 29.5t-30.5 8.5h-80q-26 0 -36 -11.5t-10 -53.5v-348zM241 995q17 0 25 -12l69 -105l68 105q5 8 11 10t14 2h45q13 0 23 -2.5t10 -16.5q0 -8 -6 -15l-111 -163q-11 -17 -28 -17h-40q-20 0 -28.5 5.5
t-17.5 18.5l-106 156q-6 7 -6 15q0 19 21 19h57z" />
    <glyph glyph-name="ccaron" unicode="&#x10d;" horiz-adv-x="669" 
d="M64 0zM272 199q0 -41 10 -53t36 -12h80q23 0 31.5 7t8.5 24v38q0 20 22 20h118q27 0 27 -27v-50q0 -43 -16.5 -71t-43.5 -44.5t-61 -23.5t-68 -7h-120q-75 0 -120.5 9t-70.5 32.5t-33 63.5t-8 103v331q0 63 8 103t33 63.5t70.5 32.5t120.5 9h92q47 0 86.5 -6t68 -22
t44.5 -45t16 -74v-41q0 -27 -27 -27h-118q-22 0 -22 20v22q0 21 -7.5 29.5t-30.5 8.5h-80q-26 0 -36 -11.5t-10 -53.5v-348zM241 995q17 0 25 -12l69 -105l68 105q5 8 11 10t14 2h45q13 0 23 -2.5t10 -16.5q0 -8 -6 -15l-111 -163q-11 -17 -28 -17h-40q-20 0 -28.5 5.5
t-17.5 18.5l-106 156q-6 7 -6 15q0 19 21 19h57z" />
    <glyph glyph-name="Dcaron" unicode="&#x10e;" horiz-adv-x="686" 
d="M70 0zM70 693q0 29 12.5 41.5t41.5 12.5h343q46 0 76.5 -8.5t48 -27.5t24.5 -49t7 -73v-307q0 -70 -8.5 -112t-25.5 -71q-29 -48 -79 -73.5t-122 -25.5h-264q-29 0 -41.5 12.5t-12.5 40.5v640zM337 134q52 0 73 43q6 12 8.5 34t2.5 72v287q0 23 -9 32.5t-34 9.5h-109
q-19 0 -19 -20v-437q0 -21 19 -21h68zM239 995q17 0 25 -12l69 -105l68 105q5 8 11 10t14 2h45q13 0 23 -2.5t10 -16.5q0 -8 -6 -15l-111 -163q-11 -17 -28 -17h-40q-20 0 -28.5 5.5t-17.5 18.5l-106 156q-6 7 -6 15q0 19 21 19h57z" />
    <glyph glyph-name="dcaron" unicode="&#x10f;" horiz-adv-x="686" 
d="M70 0zM70 693q0 29 12.5 41.5t41.5 12.5h343q46 0 76.5 -8.5t48 -27.5t24.5 -49t7 -73v-307q0 -70 -8.5 -112t-25.5 -71q-29 -48 -79 -73.5t-122 -25.5h-264q-29 0 -41.5 12.5t-12.5 40.5v640zM337 134q52 0 73 43q6 12 8.5 34t2.5 72v287q0 23 -9 32.5t-34 9.5h-109
q-19 0 -19 -20v-437q0 -21 19 -21h68zM239 995q17 0 25 -12l69 -105l68 105q5 8 11 10t14 2h45q13 0 23 -2.5t10 -16.5q0 -8 -6 -15l-111 -163q-11 -17 -28 -17h-40q-20 0 -28.5 5.5t-17.5 18.5l-106 156q-6 7 -6 15q0 19 21 19h57z" />
    <glyph glyph-name="Dcroat" unicode="&#x110;" horiz-adv-x="686" 
d="M0 0zM25 314q-25 3 -25 28v75q0 26 26 26h25q19 0 19 21v229q0 29 12.5 41.5t41.5 12.5h343q46 0 76.5 -8.5t48 -27.5t24.5 -49t7 -73v-307q0 -70 -8.5 -112t-25.5 -71q-29 -48 -79 -73.5t-122 -25.5h-264q-29 0 -41.5 12.5t-12.5 40.5v234q0 27 -24 27h-21zM337 134
q52 0 73 43q6 12 8.5 34t2.5 72v287q0 23 -9 32.5t-34 9.5h-109q-19 0 -19 -20v-128q0 -21 19 -21h74q26 0 26 -26v-75q0 -25 -25 -28h-70q-24 0 -24 -27v-132q0 -21 19 -21h68z" />
    <glyph glyph-name="dmacron" unicode="&#x111;" horiz-adv-x="686" 
d="M0 0zM25 314q-25 3 -25 28v75q0 26 26 26h25q19 0 19 21v229q0 29 12.5 41.5t41.5 12.5h343q46 0 76.5 -8.5t48 -27.5t24.5 -49t7 -73v-307q0 -70 -8.5 -112t-25.5 -71q-29 -48 -79 -73.5t-122 -25.5h-264q-29 0 -41.5 12.5t-12.5 40.5v234q0 27 -24 27h-21zM337 134
q52 0 73 43q6 12 8.5 34t2.5 72v287q0 23 -9 32.5t-34 9.5h-109q-19 0 -19 -20v-128q0 -21 19 -21h74q26 0 26 -26v-75q0 -25 -25 -28h-70q-24 0 -24 -27v-132q0 -21 19 -21h68z" />
    <glyph glyph-name="Emacron" unicode="&#x112;" horiz-adv-x="613" 
d="M70 0zM299 314q-25 0 -25 -27v-129q0 -21 21 -21h229q26 0 26 -26v-81q0 -30 -28 -30h-379q-73 0 -73 68v624q0 55 56 55h388q27 0 27 -27v-84q0 -27 -27 -27h-221q-19 0 -19 -19v-126q0 -21 19 -21h214q25 0 25 -26v-75q0 -25 -24 -28h-209zM164 836q-14 0 -22 8t-8 21
v35q0 29 30 29h306q30 0 30 -29v-35q0 -13 -7.5 -21t-22.5 -8h-306z" />
    <glyph glyph-name="emacron" unicode="&#x113;" horiz-adv-x="613" 
d="M70 0zM299 314q-25 0 -25 -27v-129q0 -21 21 -21h229q26 0 26 -26v-81q0 -30 -28 -30h-379q-73 0 -73 68v624q0 55 56 55h388q27 0 27 -27v-84q0 -27 -27 -27h-221q-19 0 -19 -19v-126q0 -21 19 -21h214q25 0 25 -26v-75q0 -25 -24 -28h-209zM164 836q-14 0 -22 8t-8 21
v35q0 29 30 29h306q30 0 30 -29v-35q0 -13 -7.5 -21t-22.5 -8h-306z" />
    <glyph glyph-name="Ebreve" unicode="&#x114;" horiz-adv-x="613" 
d="M70 0zM299 314q-25 0 -25 -27v-129q0 -21 21 -21h229q26 0 26 -26v-81q0 -30 -28 -30h-379q-73 0 -73 68v624q0 55 56 55h388q27 0 27 -27v-84q0 -27 -27 -27h-221q-19 0 -19 -19v-126q0 -21 19 -21h214q25 0 25 -26v-75q0 -25 -24 -28h-209zM473 952q0 -81 -37.5 -125
t-118.5 -44q-83 0 -119.5 45t-36.5 125v9q0 22 24 22h52q20 0 20 -22q0 -52 12.5 -73.5t47.5 -21.5t47.5 22t12.5 73q0 22 22 22h51q23 0 23 -22v-10z" />
    <glyph glyph-name="ebreve" unicode="&#x115;" horiz-adv-x="613" 
d="M70 0zM299 314q-25 0 -25 -27v-129q0 -21 21 -21h229q26 0 26 -26v-81q0 -30 -28 -30h-379q-73 0 -73 68v624q0 55 56 55h388q27 0 27 -27v-84q0 -27 -27 -27h-221q-19 0 -19 -19v-126q0 -21 19 -21h214q25 0 25 -26v-75q0 -25 -24 -28h-209zM473 952q0 -81 -37.5 -125
t-118.5 -44q-83 0 -119.5 45t-36.5 125v9q0 22 24 22h52q20 0 20 -22q0 -52 12.5 -73.5t47.5 -21.5t47.5 22t12.5 73q0 22 22 22h51q23 0 23 -22v-10z" />
    <glyph glyph-name="Edotaccent" unicode="&#x116;" horiz-adv-x="613" 
d="M70 0zM299 314q-25 0 -25 -27v-129q0 -21 21 -21h229q26 0 26 -26v-81q0 -30 -28 -30h-379q-73 0 -73 68v624q0 55 56 55h388q27 0 27 -27v-84q0 -27 -27 -27h-221q-19 0 -19 -19v-126q0 -21 19 -21h214q25 0 25 -26v-75q0 -25 -24 -28h-209zM281 808q-30 0 -30 28v87
q0 28 30 28h72q13 0 21 -7.5t8 -20.5v-87q0 -13 -8 -20.5t-21 -7.5h-72z" />
    <glyph glyph-name="edotaccent" unicode="&#x117;" horiz-adv-x="613" 
d="M70 0zM299 314q-25 0 -25 -27v-129q0 -21 21 -21h229q26 0 26 -26v-81q0 -30 -28 -30h-379q-73 0 -73 68v624q0 55 56 55h388q27 0 27 -27v-84q0 -27 -27 -27h-221q-19 0 -19 -19v-126q0 -21 19 -21h214q25 0 25 -26v-75q0 -25 -24 -28h-209zM281 808q-30 0 -30 28v87
q0 28 30 28h72q13 0 21 -7.5t8 -20.5v-87q0 -13 -8 -20.5t-21 -7.5h-72z" />
    <glyph glyph-name="Eogonek" unicode="&#x118;" horiz-adv-x="613" 
d="M450 -205q-44 0 -62.5 15t-18.5 59v26q0 20 6 34t22 25l43 30q4 1 4 7q0 9 -8 9h-293q-73 0 -73 68v624q0 55 56 55h388q27 0 27 -27v-84q0 -27 -27 -27h-221q-19 0 -19 -19v-126q0 -21 19 -21h214q25 0 25 -26v-75q0 -25 -24 -28h-209q-25 0 -25 -27v-129q0 -21 21 -21
h229q26 0 26 -26v-81q0 -12 -4.5 -19t-14.5 -15l-49 -41q-5 -4 -6.5 -7t-1.5 -11v-14q0 -14 10 -14h68q29 0 29 -28v-57q0 -13 -7.5 -21t-21.5 -8h-102z" />
    <glyph glyph-name="eogonek" unicode="&#x119;" horiz-adv-x="613" 
d="M70 0zM450 -205q-44 0 -62.5 15t-18.5 59v26q0 20 6 34t22 25l43 30q4 1 4 7q0 9 -8 9h-293q-73 0 -73 68v624q0 55 56 55h388q27 0 27 -27v-84q0 -27 -27 -27h-221q-19 0 -19 -19v-126q0 -21 19 -21h214q25 0 25 -26v-75q0 -25 -24 -28h-209q-25 0 -25 -27v-129
q0 -21 21 -21h229q26 0 26 -26v-81q0 -12 -4.5 -19t-14.5 -15l-49 -41q-5 -4 -6.5 -7t-1.5 -11v-14q0 -14 10 -14h68q29 0 29 -28v-57q0 -13 -7.5 -21t-21.5 -8h-102z" />
    <glyph glyph-name="Ecaron" unicode="&#x11a;" horiz-adv-x="613" 
d="M70 0zM299 314q-25 0 -25 -27v-129q0 -21 21 -21h229q26 0 26 -26v-81q0 -30 -28 -30h-379q-73 0 -73 68v624q0 55 56 55h388q27 0 27 -27v-84q0 -27 -27 -27h-221q-19 0 -19 -19v-126q0 -21 19 -21h214q25 0 25 -26v-75q0 -25 -24 -28h-209zM224 995q17 0 25 -12
l69 -105l68 105q5 8 11 10t14 2h45q13 0 23 -2.5t10 -16.5q0 -8 -6 -15l-111 -163q-11 -17 -28 -17h-40q-20 0 -28.5 5.5t-17.5 18.5l-106 156q-6 7 -6 15q0 19 21 19h57z" />
    <glyph glyph-name="ecaron" unicode="&#x11b;" horiz-adv-x="613" 
d="M70 0zM299 314q-25 0 -25 -27v-129q0 -21 21 -21h229q26 0 26 -26v-81q0 -30 -28 -30h-379q-73 0 -73 68v624q0 55 56 55h388q27 0 27 -27v-84q0 -27 -27 -27h-221q-19 0 -19 -19v-126q0 -21 19 -21h214q25 0 25 -26v-75q0 -25 -24 -28h-209zM224 995q17 0 25 -12
l69 -105l68 105q5 8 11 10t14 2h45q13 0 23 -2.5t10 -16.5q0 -8 -6 -15l-111 -163q-11 -17 -28 -17h-40q-20 0 -28.5 5.5t-17.5 18.5l-106 156q-6 7 -6 15q0 19 21 19h57z" />
    <glyph glyph-name="Gcircumflex" unicode="&#x11c;" horiz-adv-x="678" 
d="M64 0zM261 196q0 -41 10 -53t36 -12h109q22 0 22 22v99q0 17 -6.5 25t-14 13t-13.5 11t-6 20v50q0 31 35 31h144q39 0 39 -38v-245q0 -35 -4.5 -58t-17.5 -36.5t-36.5 -19t-60.5 -5.5h-201q-75 0 -120.5 9t-70.5 32.5t-33 63.5t-8 103v331q0 63 8 103t33 63.5t70.5 32.5
t120.5 9h123q48 0 83 -6t58 -22t34 -45t11 -74v-37q0 -27 -27 -27h-118q-22 0 -22 21v19q0 21 -7.5 29.5t-30.5 8.5h-93q-26 0 -36 -11.5t-10 -53.5v-353zM437 781q-17 0 -25 11l-69 106l-68 -106q-5 -7 -11 -9t-14 -2h-45q-13 0 -23 2.5t-10 16.5q0 3 2 7l4 8l111 163
q11 17 28 17h40q21 0 29 -5.5t17 -18.5l106 -156q6 -6 6 -15q0 -19 -21 -19h-57z" />
    <glyph glyph-name="gcircumflex" unicode="&#x11d;" horiz-adv-x="678" 
d="M64 0zM261 196q0 -41 10 -53t36 -12h109q22 0 22 22v99q0 17 -6.5 25t-14 13t-13.5 11t-6 20v50q0 31 35 31h144q39 0 39 -38v-245q0 -35 -4.5 -58t-17.5 -36.5t-36.5 -19t-60.5 -5.5h-201q-75 0 -120.5 9t-70.5 32.5t-33 63.5t-8 103v331q0 63 8 103t33 63.5t70.5 32.5
t120.5 9h123q48 0 83 -6t58 -22t34 -45t11 -74v-37q0 -27 -27 -27h-118q-22 0 -22 21v19q0 21 -7.5 29.5t-30.5 8.5h-93q-26 0 -36 -11.5t-10 -53.5v-353zM437 781q-17 0 -25 11l-69 106l-68 -106q-5 -7 -11 -9t-14 -2h-45q-13 0 -23 2.5t-10 16.5q0 3 2 7l4 8l111 163
q11 17 28 17h40q21 0 29 -5.5t17 -18.5l106 -156q6 -6 6 -15q0 -19 -21 -19h-57z" />
    <glyph glyph-name="Gbreve" unicode="&#x11e;" horiz-adv-x="678" 
d="M64 0zM261 196q0 -41 10 -53t36 -12h109q22 0 22 22v99q0 17 -6.5 25t-14 13t-13.5 11t-6 20v50q0 31 35 31h144q39 0 39 -38v-245q0 -35 -4.5 -58t-17.5 -36.5t-36.5 -19t-60.5 -5.5h-201q-75 0 -120.5 9t-70.5 32.5t-33 63.5t-8 103v331q0 63 8 103t33 63.5t70.5 32.5
t120.5 9h123q48 0 83 -6t58 -22t34 -45t11 -74v-37q0 -27 -27 -27h-118q-22 0 -22 21v19q0 21 -7.5 29.5t-30.5 8.5h-93q-26 0 -36 -11.5t-10 -53.5v-353zM500 952q0 -81 -37.5 -125t-118.5 -44q-83 0 -119.5 45t-36.5 125v9q0 22 24 22h52q20 0 20 -22q0 -52 12.5 -73.5
t47.5 -21.5t47.5 22t12.5 73q0 22 22 22h51q23 0 23 -22v-10z" />
    <glyph glyph-name="gbreve" unicode="&#x11f;" horiz-adv-x="678" 
d="M64 0zM261 196q0 -41 10 -53t36 -12h109q22 0 22 22v99q0 17 -6.5 25t-14 13t-13.5 11t-6 20v50q0 31 35 31h144q39 0 39 -38v-245q0 -35 -4.5 -58t-17.5 -36.5t-36.5 -19t-60.5 -5.5h-201q-75 0 -120.5 9t-70.5 32.5t-33 63.5t-8 103v331q0 63 8 103t33 63.5t70.5 32.5
t120.5 9h123q48 0 83 -6t58 -22t34 -45t11 -74v-37q0 -27 -27 -27h-118q-22 0 -22 21v19q0 21 -7.5 29.5t-30.5 8.5h-93q-26 0 -36 -11.5t-10 -53.5v-353zM500 952q0 -81 -37.5 -125t-118.5 -44q-83 0 -119.5 45t-36.5 125v9q0 22 24 22h52q20 0 20 -22q0 -52 12.5 -73.5
t47.5 -21.5t47.5 22t12.5 73q0 22 22 22h51q23 0 23 -22v-10z" />
    <glyph glyph-name="Gdotaccent" unicode="&#x120;" horiz-adv-x="678" 
d="M64 0zM261 196q0 -41 10 -53t36 -12h109q22 0 22 22v99q0 17 -6.5 25t-14 13t-13.5 11t-6 20v50q0 31 35 31h144q39 0 39 -38v-245q0 -35 -4.5 -58t-17.5 -36.5t-36.5 -19t-60.5 -5.5h-201q-75 0 -120.5 9t-70.5 32.5t-33 63.5t-8 103v331q0 63 8 103t33 63.5t70.5 32.5
t120.5 9h123q48 0 83 -6t58 -22t34 -45t11 -74v-37q0 -27 -27 -27h-118q-22 0 -22 21v19q0 21 -7.5 29.5t-30.5 8.5h-93q-26 0 -36 -11.5t-10 -53.5v-353zM304 808q-30 0 -30 28v87q0 28 30 28h72q13 0 21 -7.5t8 -20.5v-87q0 -13 -8 -20.5t-21 -7.5h-72z" />
    <glyph glyph-name="gdotaccent" unicode="&#x121;" horiz-adv-x="678" 
d="M64 0zM261 196q0 -41 10 -53t36 -12h109q22 0 22 22v99q0 17 -6.5 25t-14 13t-13.5 11t-6 20v50q0 31 35 31h144q39 0 39 -38v-245q0 -35 -4.5 -58t-17.5 -36.5t-36.5 -19t-60.5 -5.5h-201q-75 0 -120.5 9t-70.5 32.5t-33 63.5t-8 103v331q0 63 8 103t33 63.5t70.5 32.5
t120.5 9h123q48 0 83 -6t58 -22t34 -45t11 -74v-37q0 -27 -27 -27h-118q-22 0 -22 21v19q0 21 -7.5 29.5t-30.5 8.5h-93q-26 0 -36 -11.5t-10 -53.5v-353zM304 808q-30 0 -30 28v87q0 28 30 28h72q13 0 21 -7.5t8 -20.5v-87q0 -13 -8 -20.5t-21 -7.5h-72z" />
    <glyph glyph-name="Gcommaaccent" unicode="&#x122;" horiz-adv-x="678" 
d="M64 0zM261 196q0 -41 10 -53t36 -12h109q22 0 22 22v99q0 17 -6.5 25t-14 13t-13.5 11t-6 20v50q0 31 35 31h144q39 0 39 -38v-245q0 -35 -4.5 -58t-17.5 -36.5t-36.5 -19t-60.5 -5.5h-201q-75 0 -120.5 9t-70.5 32.5t-33 63.5t-8 103v331q0 63 8 103t33 63.5t70.5 32.5
t120.5 9h123q48 0 83 -6t58 -22t34 -45t11 -74v-37q0 -27 -27 -27h-118q-22 0 -22 21v19q0 21 -7.5 29.5t-30.5 8.5h-93q-26 0 -36 -11.5t-10 -53.5v-353zM342 -162q0 15 -9 20l-41 27q-9 6 -14.5 13t-4.5 22v21q0 40 29 40h84q30 0 30 -39v-124q0 -23 -20 -23h-32
q-22 0 -22 23v20z" />
    <glyph glyph-name="gcommaaccent" unicode="&#x123;" horiz-adv-x="678" 
d="M64 0zM261 196q0 -41 10 -53t36 -12h109q22 0 22 22v99q0 17 -6.5 25t-14 13t-13.5 11t-6 20v50q0 31 35 31h144q39 0 39 -38v-245q0 -35 -4.5 -58t-17.5 -36.5t-36.5 -19t-60.5 -5.5h-201q-75 0 -120.5 9t-70.5 32.5t-33 63.5t-8 103v331q0 63 8 103t33 63.5t70.5 32.5
t120.5 9h123q48 0 83 -6t58 -22t34 -45t11 -74v-37q0 -27 -27 -27h-118q-22 0 -22 21v19q0 21 -7.5 29.5t-30.5 8.5h-93q-26 0 -36 -11.5t-10 -53.5v-353zM342 -162q0 15 -9 20l-41 27q-9 6 -14.5 13t-4.5 22v21q0 40 29 40h84q30 0 30 -39v-124q0 -23 -20 -23h-32
q-22 0 -22 23v20z" />
    <glyph glyph-name="Hcircumflex" unicode="&#x124;" horiz-adv-x="696" 
d="M70 0zM498 0q-36 0 -36 34v244q0 34 -35 34h-111q-34 0 -34 -34v-244q0 -34 -36 -34h-140q-36 0 -36 34v677q0 36 36 36h139q37 0 37 -36v-227q0 -32 34 -32h111q35 0 35 32v227q0 36 35 36h93q36 0 36 -36v-677q0 -34 -36 -34h-92zM460 781q-17 0 -25 11l-69 106
l-68 -106q-5 -7 -11 -9t-14 -2h-45q-13 0 -23 2.5t-10 16.5q0 3 2 7l4 8l111 163q11 17 28 17h40q21 0 29 -5.5t17 -18.5l106 -156q6 -6 6 -15q0 -19 -21 -19h-57z" />
    <glyph glyph-name="hcircumflex" unicode="&#x125;" horiz-adv-x="696" 
d="M70 0zM498 0q-36 0 -36 34v244q0 34 -35 34h-111q-34 0 -34 -34v-244q0 -34 -36 -34h-140q-36 0 -36 34v677q0 36 36 36h139q37 0 37 -36v-227q0 -32 34 -32h111q35 0 35 32v227q0 36 35 36h93q36 0 36 -36v-677q0 -34 -36 -34h-92zM460 781q-17 0 -25 11l-69 106
l-68 -106q-5 -7 -11 -9t-14 -2h-45q-13 0 -23 2.5t-10 16.5q0 3 2 7l4 8l111 163q11 17 28 17h40q21 0 29 -5.5t17 -18.5l106 -156q6 -6 6 -15q0 -19 -21 -19h-57z" />
    <glyph glyph-name="Hbar" unicode="&#x126;" horiz-adv-x="696" 
d="M626 526v-492q0 -34 -36 -34h-92q-36 0 -36 34v244q0 34 -35 34h-111q-34 0 -34 -34v-244q0 -34 -36 -34h-140q-36 0 -36 34v492h-31q-14 0 -21.5 8t-7.5 21v35q0 29 29 29h31v92q0 36 36 36h139q37 0 37 -36v-92h180v92q0 36 35 36h93q36 0 36 -36v-92h28q30 0 30 -29
v-35q0 -13 -8 -21t-22 -8h-28zM427 452q35 0 35 32v42h-180v-42q0 -32 34 -32h111z" />
    <glyph glyph-name="hbar" unicode="&#x127;" horiz-adv-x="696" 
d="M10 0zM626 526v-492q0 -34 -36 -34h-92q-36 0 -36 34v244q0 34 -35 34h-111q-34 0 -34 -34v-244q0 -34 -36 -34h-140q-36 0 -36 34v492h-31q-14 0 -21.5 8t-7.5 21v35q0 29 29 29h31v92q0 36 36 36h139q37 0 37 -36v-92h180v92q0 36 35 36h93q36 0 36 -36v-92h28
q30 0 30 -29v-35q0 -13 -8 -21t-22 -8h-28zM427 452q35 0 35 32v42h-180v-42q0 -32 34 -32h111z" />
    <glyph glyph-name="Itilde" unicode="&#x128;" horiz-adv-x="355" 
d="M0 0zM247 747q36 0 36 -36v-677q0 -34 -36 -34h-139q-35 0 -35 34v677q0 36 35 36h139v0zM361 873q0 -38 -23.5 -49.5t-60.5 -11.5q-22 0 -48 5t-52.5 11.5t-52 11.5t-45.5 5q-11 0 -19.5 -4t-16 -9l-13.5 -9t-12 -4q-10 0 -16.5 7t-6.5 18v28q0 39 24.5 51t61.5 12
q21 0 47 -5t52.5 -11.5t52 -11.5t45.5 -5q11 0 19.5 4t16 9l13.5 9t12 4q22 0 22 -26v-29z" />
    <glyph glyph-name="itilde" unicode="&#x129;" horiz-adv-x="355" 
d="M0 0zM247 747q36 0 36 -36v-677q0 -34 -36 -34h-139q-35 0 -35 34v677q0 36 35 36h139v0zM361 873q0 -38 -23.5 -49.5t-60.5 -11.5q-22 0 -48 5t-52.5 11.5t-52 11.5t-45.5 5q-11 0 -19.5 -4t-16 -9l-13.5 -9t-12 -4q-10 0 -16.5 7t-6.5 18v28q0 39 24.5 51t61.5 12
q21 0 47 -5t52.5 -11.5t52 -11.5t45.5 -5q11 0 19.5 4t16 9l13.5 9t12 4q22 0 22 -26v-29z" />
    <glyph glyph-name="Imacron" unicode="&#x12a;" horiz-adv-x="355" 
d="M0 0zM247 747q36 0 36 -36v-677q0 -34 -36 -34h-139q-35 0 -35 34v677q0 36 35 36h139v0zM25 836q-14 0 -22 8t-8 21v35q0 29 30 29h306q30 0 30 -29v-35q0 -13 -7.5 -21t-22.5 -8h-306z" />
    <glyph glyph-name="imacron" unicode="&#x12b;" horiz-adv-x="355" 
d="M0 0zM247 747q36 0 36 -36v-677q0 -34 -36 -34h-139q-35 0 -35 34v677q0 36 35 36h139v0zM25 836q-14 0 -22 8t-8 21v35q0 29 30 29h306q30 0 30 -29v-35q0 -13 -7.5 -21t-22.5 -8h-306z" />
    <glyph glyph-name="Ibreve" unicode="&#x12c;" horiz-adv-x="355" 
d="M23 0zM247 747q36 0 36 -36v-677q0 -34 -36 -34h-139q-35 0 -35 34v677q0 36 35 36h139v0zM335 952q0 -81 -37.5 -125t-118.5 -44q-83 0 -119.5 45t-36.5 125v9q0 22 24 22h52q20 0 20 -22q0 -52 12.5 -73.5t47.5 -21.5t47.5 22t12.5 73q0 22 22 22h51q23 0 23 -22v-10z
" />
    <glyph glyph-name="ibreve" unicode="&#x12d;" horiz-adv-x="355" 
d="M23 0zM247 747q36 0 36 -36v-677q0 -34 -36 -34h-139q-35 0 -35 34v677q0 36 35 36h139v0zM335 952q0 -81 -37.5 -125t-118.5 -44q-83 0 -119.5 45t-36.5 125v9q0 22 24 22h52q20 0 20 -22q0 -52 12.5 -73.5t47.5 -21.5t47.5 22t12.5 73q0 22 22 22h51q23 0 23 -22v-10z
" />
    <glyph glyph-name="Iogonek" unicode="&#x12e;" horiz-adv-x="355" 
d="M175 -205q-44 0 -62.5 15t-18.5 59v26q0 19 6 33.5t22 25.5l42 30q5 3 5 9q0 7 -8 7h-53q-35 0 -35 34v677q0 36 35 36h139q36 0 36 -36v-668q0 -15 -3.5 -22t-15.5 -17l-57 -49q-6 -4 -7.5 -7t-1.5 -11v-14q0 -14 11 -14h68q29 0 29 -28v-57q0 -13 -7.5 -21t-21.5 -8
h-102z" />
    <glyph glyph-name="iogonek" unicode="&#x12f;" horiz-adv-x="355" 
d="M73 0zM175 -205q-44 0 -62.5 15t-18.5 59v26q0 19 6 33.5t22 25.5l42 30q5 3 5 9q0 7 -8 7h-53q-35 0 -35 34v677q0 36 35 36h139q36 0 36 -36v-668q0 -15 -3.5 -22t-15.5 -17l-57 -49q-6 -4 -7.5 -7t-1.5 -11v-14q0 -14 11 -14h68q29 0 29 -28v-57q0 -13 -7.5 -21
t-21.5 -8h-102z" />
    <glyph glyph-name="Idotaccent" unicode="&#x130;" horiz-adv-x="355" 
d="M73 0zM247 747q36 0 36 -36v-677q0 -34 -36 -34h-139q-35 0 -35 34v677q0 36 35 36h139v0zM142 808q-30 0 -30 28v87q0 28 30 28h72q13 0 21 -7.5t8 -20.5v-87q0 -13 -8 -20.5t-21 -7.5h-72z" />
    <glyph glyph-name="dotlessi" unicode="&#x131;" horiz-adv-x="355" 
d="M73 0zM247 747q36 0 36 -36v-677q0 -34 -36 -34h-139q-35 0 -35 34v677q0 36 35 36h139v0z" />
    <glyph glyph-name="IJ" unicode="&#x132;" horiz-adv-x="927" 
d="M73 0zM247 747q36 0 36 -36v-677q0 -34 -36 -34h-139q-35 0 -35 34v677q0 36 35 36h139v0zM498 0q-71 0 -99 28t-28 94v48q0 26 26 26h108q9 0 14.5 -4t5.5 -16v-28q0 -8 2 -10.5t10 -2.5h82q26 0 33 17.5t7 59.5v499q0 36 35 36h130q35 0 35 -36v-512q0 -50 -7 -87
t-26 -62t-53.5 -37.5t-89.5 -12.5h-185z" />
    <glyph glyph-name="ij" unicode="&#x133;" horiz-adv-x="927" 
d="M73 0zM247 747q36 0 36 -36v-677q0 -34 -36 -34h-139q-35 0 -35 34v677q0 36 35 36h139v0zM498 0q-71 0 -99 28t-28 94v48q0 26 26 26h108q9 0 14.5 -4t5.5 -16v-28q0 -8 2 -10.5t10 -2.5h82q26 0 33 17.5t7 59.5v499q0 36 35 36h130q35 0 35 -36v-512q0 -50 -7 -87
t-26 -62t-53.5 -37.5t-89.5 -12.5h-185z" />
    <glyph glyph-name="Jcircumflex" unicode="&#x134;" horiz-adv-x="572" 
d="M16 0zM143 0q-71 0 -99 28t-28 94v48q0 26 26 26h108q9 0 14.5 -4t5.5 -16v-28q0 -8 2 -10.5t10 -2.5h82q26 0 33 17.5t7 59.5v499q0 36 35 36h130q35 0 35 -36v-512q0 -50 -7 -87t-26 -62t-53.5 -37.5t-89.5 -12.5h-185zM450 781q-17 0 -25 11l-69 106l-68 -106
q-5 -7 -11 -9t-14 -2h-45q-13 0 -23 2.5t-10 16.5q0 3 2 7l4 8l111 163q11 17 28 17h40q21 0 29 -5.5t17 -18.5l106 -156q6 -6 6 -15q0 -19 -21 -19h-57z" />
    <glyph glyph-name="jcircumflex" unicode="&#x135;" horiz-adv-x="572" 
d="M16 0zM143 0q-71 0 -99 28t-28 94v48q0 26 26 26h108q9 0 14.5 -4t5.5 -16v-28q0 -8 2 -10.5t10 -2.5h82q26 0 33 17.5t7 59.5v499q0 36 35 36h130q35 0 35 -36v-512q0 -50 -7 -87t-26 -62t-53.5 -37.5t-89.5 -12.5h-185zM450 781q-17 0 -25 11l-69 106l-68 -106
q-5 -7 -11 -9t-14 -2h-45q-13 0 -23 2.5t-10 16.5q0 3 2 7l4 8l111 163q11 17 28 17h40q21 0 29 -5.5t17 -18.5l106 -156q6 -6 6 -15q0 -19 -21 -19h-57z" />
    <glyph glyph-name="Kcommaaccent" unicode="&#x136;" horiz-adv-x="701" 
d="M70 0zM482 0q-38 0 -38 39v206q0 36 -19.5 57t-72.5 21h-50q-22 0 -22 -24v-260q0 -39 -36 -39h-137q-37 0 -37 39v666q0 42 39 42h135q36 0 36 -42v-237q0 -24 22 -24h47q18 0 34 11.5t27.5 29.5t18.5 39t7 41v140q0 42 40 42h95q34 0 34 -42v-102q0 -21 -1.5 -35.5
t-6 -27t-12.5 -25t-20 -28.5q-19 -25 -24.5 -38.5t-5.5 -26.5t8.5 -26t40.5 -36q16 -12 27 -22.5t18 -23.5t10 -30t3 -41v-204q0 -39 -34 -39h-126zM365 -162q0 15 -9 20l-41 27q-9 6 -14.5 13t-4.5 22v21q0 40 29 40h84q30 0 30 -39v-124q0 -23 -20 -23h-32q-22 0 -22 23
v20z" />
    <glyph glyph-name="kcommaaccent" unicode="&#x137;" horiz-adv-x="701" 
d="M70 0zM482 0q-38 0 -38 39v206q0 36 -19.5 57t-72.5 21h-50q-22 0 -22 -24v-260q0 -39 -36 -39h-137q-37 0 -37 39v666q0 42 39 42h135q36 0 36 -42v-237q0 -24 22 -24h47q18 0 34 11.5t27.5 29.5t18.5 39t7 41v140q0 42 40 42h95q34 0 34 -42v-102q0 -21 -1.5 -35.5
t-6 -27t-12.5 -25t-20 -28.5q-19 -25 -24.5 -38.5t-5.5 -26.5t8.5 -26t40.5 -36q16 -12 27 -22.5t18 -23.5t10 -30t3 -41v-204q0 -39 -34 -39h-126zM365 -162q0 15 -9 20l-41 27q-9 6 -14.5 13t-4.5 22v21q0 40 29 40h84q30 0 30 -39v-124q0 -23 -20 -23h-32q-22 0 -22 23
v20z" />
    <glyph glyph-name="Lacute" unicode="&#x139;" horiz-adv-x="547" 
d="M70 0zM269 160q0 -25 24 -25h195q26 0 26 -26v-79q0 -30 -26 -30h-316q-102 0 -102 100v611q0 36 36 36h128q35 0 35 -36v-551zM159 797q-9 0 -15 3.5t-6 11.5q0 7 6 15l98 139q5 7 9 9t16 2h99q20 0 20 -19q0 -12 -9 -19l-122 -132q-7 -6 -12.5 -8t-15.5 -2h-68z" />
    <glyph glyph-name="lacute" unicode="&#x13a;" horiz-adv-x="547" 
d="M70 0zM269 160q0 -25 24 -25h195q26 0 26 -26v-79q0 -30 -26 -30h-316q-102 0 -102 100v611q0 36 36 36h128q35 0 35 -36v-551zM159 797q-9 0 -15 3.5t-6 11.5q0 7 6 15l98 139q5 7 9 9t16 2h99q20 0 20 -19q0 -12 -9 -19l-122 -132q-7 -6 -12.5 -8t-15.5 -2h-68z" />
    <glyph glyph-name="Lcommaaccent" unicode="&#x13b;" horiz-adv-x="547" 
d="M70 0zM269 160q0 -25 24 -25h195q26 0 26 -26v-79q0 -30 -26 -30h-316q-102 0 -102 100v611q0 36 36 36h128q35 0 35 -36v-551zM281 -162q0 15 -9 20l-41 27q-9 6 -14.5 13t-4.5 22v21q0 40 29 40h84q30 0 30 -39v-124q0 -23 -20 -23h-32q-22 0 -22 23v20z" />
    <glyph glyph-name="lcommaaccent" unicode="&#x13c;" horiz-adv-x="547" 
d="M70 0zM269 160q0 -25 24 -25h195q26 0 26 -26v-79q0 -30 -26 -30h-316q-102 0 -102 100v611q0 36 36 36h128q35 0 35 -36v-551zM281 -162q0 15 -9 20l-41 27q-9 6 -14.5 13t-4.5 22v21q0 40 29 40h84q30 0 30 -39v-124q0 -23 -20 -23h-32q-22 0 -22 23v20z" />
    <glyph glyph-name="Lcaron" unicode="&#x13d;" horiz-adv-x="547" 
d="M70 0zM269 160q0 -25 24 -25h195q26 0 26 -26v-79q0 -30 -26 -30h-316q-102 0 -102 100v611q0 36 36 36h128q35 0 35 -36v-551zM392 678q0 15 -9 20l-41 27q-9 6 -14.5 13t-4.5 22v21q0 40 29 40h84q30 0 30 -39v-124q0 -23 -20 -23h-32q-22 0 -22 23v20z" />
    <glyph glyph-name="lcaron" unicode="&#x13e;" horiz-adv-x="547" 
d="M70 0zM269 160q0 -25 24 -25h195q26 0 26 -26v-79q0 -30 -26 -30h-316q-102 0 -102 100v611q0 36 36 36h128q35 0 35 -36v-551zM392 678q0 15 -9 20l-41 27q-9 6 -14.5 13t-4.5 22v21q0 40 29 40h84q30 0 30 -39v-124q0 -23 -20 -23h-32q-22 0 -22 23v20z" />
    <glyph glyph-name="Ldot" unicode="&#x13f;" horiz-adv-x="547" 
d="M70 0zM269 160q0 -25 24 -25h195q26 0 26 -26v-79q0 -30 -26 -30h-316q-102 0 -102 100v611q0 36 36 36h128q35 0 35 -36v-551zM358 342q-30 0 -30 28v87q0 28 30 28h72q13 0 21 -7.5t8 -20.5v-87q0 -13 -8 -20.5t-21 -7.5h-72z" />
    <glyph glyph-name="ldot" unicode="&#x140;" horiz-adv-x="547" 
d="M70 0zM269 160q0 -25 24 -25h195q26 0 26 -26v-79q0 -30 -26 -30h-316q-102 0 -102 100v611q0 36 36 36h128q35 0 35 -36v-551zM358 342q-30 0 -30 28v87q0 28 30 28h72q13 0 21 -7.5t8 -20.5v-87q0 -13 -8 -20.5t-21 -7.5h-72z" />
    <glyph glyph-name="Lslash" unicode="&#x141;" horiz-adv-x="547" 
d="M283 378q-14 0 -14 -15v-203q0 -25 24 -25h195q26 0 26 -26v-79q0 -30 -26 -30h-316q-102 0 -102 100v263q0 15 -11 15h-15q-29 0 -29 27v47q0 28 29 28h11q9 0 12 3t3 11v217q0 36 36 36h128q35 0 35 -36v-217q0 -14 14 -14h97q28 0 28 -28v-47q0 -27 -28 -27h-97z" />
    <glyph glyph-name="lslash" unicode="&#x142;" horiz-adv-x="547" 
d="M15 0zM283 378q-14 0 -14 -15v-203q0 -25 24 -25h195q26 0 26 -26v-79q0 -30 -26 -30h-316q-102 0 -102 100v263q0 15 -11 15h-15q-29 0 -29 27v47q0 28 29 28h11q9 0 12 3t3 11v217q0 36 36 36h128q35 0 35 -36v-217q0 -14 14 -14h97q28 0 28 -28v-47q0 -27 -28 -27h-97
z" />
    <glyph glyph-name="Nacute" unicode="&#x143;" horiz-adv-x="707" 
d="M70 0zM447 747q51 0 87.5 -4.5t60 -20.5t34.5 -47t11 -84v-556q0 -35 -36 -35h-106q-36 0 -36 35v511q0 37 -11.5 49t-43.5 12h-82q-23 0 -30 -8.5t-7 -32.5v-531q0 -35 -36 -35h-146q-36 0 -36 35v676q0 36 36 36h341zM282 797q-9 0 -15 3.5t-6 11.5q0 7 6 15l98 139
q5 7 9 9t16 2h99q20 0 20 -19q0 -12 -9 -19l-122 -132q-7 -6 -12.5 -8t-15.5 -2h-68z" />
    <glyph glyph-name="nacute" unicode="&#x144;" horiz-adv-x="707" 
d="M70 0zM447 747q51 0 87.5 -4.5t60 -20.5t34.5 -47t11 -84v-556q0 -35 -36 -35h-106q-36 0 -36 35v511q0 37 -11.5 49t-43.5 12h-82q-23 0 -30 -8.5t-7 -32.5v-531q0 -35 -36 -35h-146q-36 0 -36 35v676q0 36 36 36h341zM282 797q-9 0 -15 3.5t-6 11.5q0 7 6 15l98 139
q5 7 9 9t16 2h99q20 0 20 -19q0 -12 -9 -19l-122 -132q-7 -6 -12.5 -8t-15.5 -2h-68z" />
    <glyph glyph-name="Ncommaaccent" unicode="&#x145;" horiz-adv-x="707" 
d="M70 0zM447 747q51 0 87.5 -4.5t60 -20.5t34.5 -47t11 -84v-556q0 -35 -36 -35h-106q-36 0 -36 35v511q0 37 -11.5 49t-43.5 12h-82q-23 0 -30 -8.5t-7 -32.5v-531q0 -35 -36 -35h-146q-36 0 -36 35v676q0 36 36 36h341zM374 -162q0 15 -9 20l-41 27q-9 6 -14.5 13
t-4.5 22v21q0 40 29 40h84q30 0 30 -39v-124q0 -23 -20 -23h-32q-22 0 -22 23v20z" />
    <glyph glyph-name="ncommaaccent" unicode="&#x146;" horiz-adv-x="707" 
d="M70 0zM447 747q51 0 87.5 -4.5t60 -20.5t34.5 -47t11 -84v-556q0 -35 -36 -35h-106q-36 0 -36 35v511q0 37 -11.5 49t-43.5 12h-82q-23 0 -30 -8.5t-7 -32.5v-531q0 -35 -36 -35h-146q-36 0 -36 35v676q0 36 36 36h341zM374 -162q0 15 -9 20l-41 27q-9 6 -14.5 13
t-4.5 22v21q0 40 29 40h84q30 0 30 -39v-124q0 -23 -20 -23h-32q-22 0 -22 23v20z" />
    <glyph glyph-name="Ncaron" unicode="&#x147;" horiz-adv-x="707" 
d="M70 0zM447 747q51 0 87.5 -4.5t60 -20.5t34.5 -47t11 -84v-556q0 -35 -36 -35h-106q-36 0 -36 35v511q0 37 -11.5 49t-43.5 12h-82q-23 0 -30 -8.5t-7 -32.5v-531q0 -35 -36 -35h-146q-36 0 -36 35v676q0 36 36 36h341zM260 995q17 0 25 -12l69 -105l68 105q5 8 11 10
t14 2h45q13 0 23 -2.5t10 -16.5q0 -8 -6 -15l-111 -163q-11 -17 -28 -17h-40q-20 0 -28.5 5.5t-17.5 18.5l-106 156q-6 7 -6 15q0 19 21 19h57z" />
    <glyph glyph-name="ncaron" unicode="&#x148;" horiz-adv-x="707" 
d="M70 0zM447 747q51 0 87.5 -4.5t60 -20.5t34.5 -47t11 -84v-556q0 -35 -36 -35h-106q-36 0 -36 35v511q0 37 -11.5 49t-43.5 12h-82q-23 0 -30 -8.5t-7 -32.5v-531q0 -35 -36 -35h-146q-36 0 -36 35v676q0 36 36 36h341zM260 995q17 0 25 -12l69 -105l68 105q5 8 11 10
t14 2h45q13 0 23 -2.5t10 -16.5q0 -8 -6 -15l-111 -163q-11 -17 -28 -17h-40q-20 0 -28.5 5.5t-17.5 18.5l-106 156q-6 7 -6 15q0 19 21 19h57z" />
    <glyph glyph-name="Eng" unicode="&#x14a;" horiz-adv-x="707" 
d="M447 747q51 0 87.5 -4.5t60 -20.5t34.5 -47t11 -84v-610q0 -48 -6.5 -83.5t-23.5 -58t-48 -33.5t-79 -11h-123q-60 0 -87.5 22t-27.5 70v28q0 43 38 43h40q16 0 23 -6t12 -13t11.5 -13t21.5 -6h17q26 0 40 13t14 47v566q0 37 -11.5 49t-43.5 12h-82q-23 0 -30 -8.5
t-7 -32.5v-499q0 -35 -36 -35h-146q-36 0 -36 35v644q0 36 36 36h341z" />
    <glyph glyph-name="eng" unicode="&#x14b;" horiz-adv-x="707" 
d="M70 0zM447 747q51 0 87.5 -4.5t60 -20.5t34.5 -47t11 -84v-610q0 -48 -6.5 -83.5t-23.5 -58t-48 -33.5t-79 -11h-123q-60 0 -87.5 22t-27.5 70v28q0 43 38 43h40q16 0 23 -6t12 -13t11.5 -13t21.5 -6h17q26 0 40 13t14 47v566q0 37 -11.5 49t-43.5 12h-82q-23 0 -30 -8.5
t-7 -32.5v-499q0 -35 -36 -35h-146q-36 0 -36 35v644q0 36 36 36h341z" />
    <glyph glyph-name="Omacron" unicode="&#x14c;" horiz-adv-x="677" 
d="M64 0zM272 0q-56 0 -95.5 7.5t-64.5 29t-36.5 59.5t-11.5 100v344q0 65 8.5 105.5t31 63t63 30.5t105.5 8h133q56 0 95.5 -7.5t64.5 -27.5t36.5 -54t11.5 -86v-377q0 -49 -6 -85.5t-24 -61t-51 -36.5t-87 -12h-173zM448 522q0 55 -10.5 75.5t-41.5 20.5h-79
q-34 0 -43.5 -19.5t-9.5 -67.5v-330q0 -16 1 -29t6.5 -22.5t16 -15t29.5 -5.5h78q31 0 42 15t11 57v321zM185 836q-14 0 -22 8t-8 21v35q0 29 30 29h306q30 0 30 -29v-35q0 -13 -7.5 -21t-22.5 -8h-306z" />
    <glyph glyph-name="omacron" unicode="&#x14d;" horiz-adv-x="677" 
d="M64 0zM272 0q-56 0 -95.5 7.5t-64.5 29t-36.5 59.5t-11.5 100v344q0 65 8.5 105.5t31 63t63 30.5t105.5 8h133q56 0 95.5 -7.5t64.5 -27.5t36.5 -54t11.5 -86v-377q0 -49 -6 -85.5t-24 -61t-51 -36.5t-87 -12h-173zM448 522q0 55 -10.5 75.5t-41.5 20.5h-79
q-34 0 -43.5 -19.5t-9.5 -67.5v-330q0 -16 1 -29t6.5 -22.5t16 -15t29.5 -5.5h78q31 0 42 15t11 57v321zM185 836q-14 0 -22 8t-8 21v35q0 29 30 29h306q30 0 30 -29v-35q0 -13 -7.5 -21t-22.5 -8h-306z" />
    <glyph glyph-name="Obreve" unicode="&#x14e;" horiz-adv-x="677" 
d="M64 0zM272 0q-56 0 -95.5 7.5t-64.5 29t-36.5 59.5t-11.5 100v344q0 65 8.5 105.5t31 63t63 30.5t105.5 8h133q56 0 95.5 -7.5t64.5 -27.5t36.5 -54t11.5 -86v-377q0 -49 -6 -85.5t-24 -61t-51 -36.5t-87 -12h-173zM448 522q0 55 -10.5 75.5t-41.5 20.5h-79
q-34 0 -43.5 -19.5t-9.5 -67.5v-330q0 -16 1 -29t6.5 -22.5t16 -15t29.5 -5.5h78q31 0 42 15t11 57v321zM494 952q0 -81 -37.5 -125t-118.5 -44q-83 0 -119.5 45t-36.5 125v9q0 22 24 22h52q20 0 20 -22q0 -52 12.5 -73.5t47.5 -21.5t47.5 22t12.5 73q0 22 22 22h51
q23 0 23 -22v-10z" />
    <glyph glyph-name="obreve" unicode="&#x14f;" horiz-adv-x="677" 
d="M64 0zM272 0q-56 0 -95.5 7.5t-64.5 29t-36.5 59.5t-11.5 100v344q0 65 8.5 105.5t31 63t63 30.5t105.5 8h133q56 0 95.5 -7.5t64.5 -27.5t36.5 -54t11.5 -86v-377q0 -49 -6 -85.5t-24 -61t-51 -36.5t-87 -12h-173zM448 522q0 55 -10.5 75.5t-41.5 20.5h-79
q-34 0 -43.5 -19.5t-9.5 -67.5v-330q0 -16 1 -29t6.5 -22.5t16 -15t29.5 -5.5h78q31 0 42 15t11 57v321zM494 952q0 -81 -37.5 -125t-118.5 -44q-83 0 -119.5 45t-36.5 125v9q0 22 24 22h52q20 0 20 -22q0 -52 12.5 -73.5t47.5 -21.5t47.5 22t12.5 73q0 22 22 22h51
q23 0 23 -22v-10z" />
    <glyph glyph-name="Ohungarumlaut" unicode="&#x150;" horiz-adv-x="677" 
d="M64 0zM272 0q-56 0 -95.5 7.5t-64.5 29t-36.5 59.5t-11.5 100v344q0 65 8.5 105.5t31 63t63 30.5t105.5 8h133q56 0 95.5 -7.5t64.5 -27.5t36.5 -54t11.5 -86v-377q0 -49 -6 -85.5t-24 -61t-51 -36.5t-87 -12h-173zM448 522q0 55 -10.5 75.5t-41.5 20.5h-79
q-34 0 -43.5 -19.5t-9.5 -67.5v-330q0 -16 1 -29t6.5 -22.5t16 -15t29.5 -5.5h78q31 0 42 15t11 57v321zM406 797q-9 0 -15 3.5t-6 11.5q0 7 6 15l98 139q5 7 9 9t16 2h99q20 0 20 -19q0 -12 -9 -19l-122 -132q-7 -6 -12.5 -8t-15.5 -2h-68zM150 797q-9 0 -15 3.5t-6 11.5
q0 7 6 15l98 139q5 7 9 9t16 2h99q20 0 20 -19q0 -12 -9 -19l-122 -132q-7 -6 -12.5 -8t-15.5 -2h-68z" />
    <glyph glyph-name="ohungarumlaut" unicode="&#x151;" horiz-adv-x="677" 
d="M64 0zM272 0q-56 0 -95.5 7.5t-64.5 29t-36.5 59.5t-11.5 100v344q0 65 8.5 105.5t31 63t63 30.5t105.5 8h133q56 0 95.5 -7.5t64.5 -27.5t36.5 -54t11.5 -86v-377q0 -49 -6 -85.5t-24 -61t-51 -36.5t-87 -12h-173zM448 522q0 55 -10.5 75.5t-41.5 20.5h-79
q-34 0 -43.5 -19.5t-9.5 -67.5v-330q0 -16 1 -29t6.5 -22.5t16 -15t29.5 -5.5h78q31 0 42 15t11 57v321zM406 797q-9 0 -15 3.5t-6 11.5q0 7 6 15l98 139q5 7 9 9t16 2h99q20 0 20 -19q0 -12 -9 -19l-122 -132q-7 -6 -12.5 -8t-15.5 -2h-68zM150 797q-9 0 -15 3.5t-6 11.5
q0 7 6 15l98 139q5 7 9 9t16 2h99q20 0 20 -19q0 -12 -9 -19l-122 -132q-7 -6 -12.5 -8t-15.5 -2h-68z" />
    <glyph glyph-name="OE" unicode="&#x152;" horiz-adv-x="948" 
d="M655 314q-25 0 -25 -27v-129q0 -21 22 -21h207q26 0 26 -26v-81q0 -30 -29 -30h-584q-56 0 -95.5 7.5t-64.5 29t-36.5 59.5t-11.5 100v344q0 65 8.5 105.5t31 63t63 30.5t105.5 8h577q27 0 27 -27v-84q0 -27 -27 -27h-200q-19 0 -19 -19v-126q0 -21 19 -21h192
q26 0 26 -26v-75q0 -25 -24 -28h-188zM427 586q0 32 -27 32h-83q-34 0 -43.5 -19.5t-9.5 -67.5v-330q0 -16 1 -29t6.5 -22.5t16 -15t29.5 -5.5h77q21 0 27 6t6 24v427z" />
    <glyph glyph-name="oe" unicode="&#x153;" horiz-adv-x="948" 
d="M64 0zM655 314q-25 0 -25 -27v-129q0 -21 22 -21h207q26 0 26 -26v-81q0 -30 -29 -30h-584q-56 0 -95.5 7.5t-64.5 29t-36.5 59.5t-11.5 100v344q0 65 8.5 105.5t31 63t63 30.5t105.5 8h577q27 0 27 -27v-84q0 -27 -27 -27h-200q-19 0 -19 -19v-126q0 -21 19 -21h192
q26 0 26 -26v-75q0 -25 -24 -28h-188zM427 586q0 32 -27 32h-83q-34 0 -43.5 -19.5t-9.5 -67.5v-330q0 -16 1 -29t6.5 -22.5t16 -15t29.5 -5.5h77q21 0 27 6t6 24v427z" />
    <glyph glyph-name="Racute" unicode="&#x154;" horiz-adv-x="697" 
d="M70 0zM639 34q0 -34 -35 -34h-140q-35 0 -35 34v190q0 40 -14.5 53t-48.5 13h-107q-19 0 -19 -23v-233q0 -34 -35 -34h-99q-36 0 -36 34v646q0 39 14 53t55 14h308q48 0 78.5 -6.5t48.5 -23t25 -44t7 -69.5v-141q0 -19 -4.5 -34t-10 -26.5t-10 -19.5t-4.5 -13
q0 -6 9.5 -15.5t21.5 -25t21.5 -38.5t9.5 -56v-201zM411 563q0 35 -13.5 46t-48.5 11h-89q-20 0 -20 -21v-163q0 -21 22 -21h103q46 0 46 52v96zM267 797q-9 0 -15 3.5t-6 11.5q0 7 6 15l98 139q5 7 9 9t16 2h99q20 0 20 -19q0 -12 -9 -19l-122 -132q-7 -6 -12.5 -8
t-15.5 -2h-68z" />
    <glyph glyph-name="racute" unicode="&#x155;" horiz-adv-x="697" 
d="M70 0zM639 34q0 -34 -35 -34h-140q-35 0 -35 34v190q0 40 -14.5 53t-48.5 13h-107q-19 0 -19 -23v-233q0 -34 -35 -34h-99q-36 0 -36 34v646q0 39 14 53t55 14h308q48 0 78.5 -6.5t48.5 -23t25 -44t7 -69.5v-141q0 -19 -4.5 -34t-10 -26.5t-10 -19.5t-4.5 -13
q0 -6 9.5 -15.5t21.5 -25t21.5 -38.5t9.5 -56v-201zM411 563q0 35 -13.5 46t-48.5 11h-89q-20 0 -20 -21v-163q0 -21 22 -21h103q46 0 46 52v96zM267 797q-9 0 -15 3.5t-6 11.5q0 7 6 15l98 139q5 7 9 9t16 2h99q20 0 20 -19q0 -12 -9 -19l-122 -132q-7 -6 -12.5 -8
t-15.5 -2h-68z" />
    <glyph glyph-name="Rcommaaccent" unicode="&#x156;" horiz-adv-x="697" 
d="M70 0zM639 34q0 -34 -35 -34h-140q-35 0 -35 34v190q0 40 -14.5 53t-48.5 13h-107q-19 0 -19 -23v-233q0 -34 -35 -34h-99q-36 0 -36 34v646q0 39 14 53t55 14h308q48 0 78.5 -6.5t48.5 -23t25 -44t7 -69.5v-141q0 -19 -4.5 -34t-10 -26.5t-10 -19.5t-4.5 -13
q0 -6 9.5 -15.5t21.5 -25t21.5 -38.5t9.5 -56v-201zM411 563q0 35 -13.5 46t-48.5 11h-89q-20 0 -20 -21v-163q0 -21 22 -21h103q46 0 46 52v96zM333 -162q0 15 -9 20l-41 27q-9 6 -14.5 13t-4.5 22v21q0 40 29 40h84q30 0 30 -39v-124q0 -23 -20 -23h-32q-22 0 -22 23v20z
" />
    <glyph glyph-name="rcommaaccent" unicode="&#x157;" horiz-adv-x="697" 
d="M70 0zM639 34q0 -34 -35 -34h-140q-35 0 -35 34v190q0 40 -14.5 53t-48.5 13h-107q-19 0 -19 -23v-233q0 -34 -35 -34h-99q-36 0 -36 34v646q0 39 14 53t55 14h308q48 0 78.5 -6.5t48.5 -23t25 -44t7 -69.5v-141q0 -19 -4.5 -34t-10 -26.5t-10 -19.5t-4.5 -13
q0 -6 9.5 -15.5t21.5 -25t21.5 -38.5t9.5 -56v-201zM411 563q0 35 -13.5 46t-48.5 11h-89q-20 0 -20 -21v-163q0 -21 22 -21h103q46 0 46 52v96zM333 -162q0 15 -9 20l-41 27q-9 6 -14.5 13t-4.5 22v21q0 40 29 40h84q30 0 30 -39v-124q0 -23 -20 -23h-32q-22 0 -22 23v20z
" />
    <glyph glyph-name="Rcaron" unicode="&#x158;" horiz-adv-x="697" 
d="M70 0zM639 34q0 -34 -35 -34h-140q-35 0 -35 34v190q0 40 -14.5 53t-48.5 13h-107q-19 0 -19 -23v-233q0 -34 -35 -34h-99q-36 0 -36 34v646q0 39 14 53t55 14h308q48 0 78.5 -6.5t48.5 -23t25 -44t7 -69.5v-141q0 -19 -4.5 -34t-10 -26.5t-10 -19.5t-4.5 -13
q0 -6 9.5 -15.5t21.5 -25t21.5 -38.5t9.5 -56v-201zM411 563q0 35 -13.5 46t-48.5 11h-89q-20 0 -20 -21v-163q0 -21 22 -21h103q46 0 46 52v96zM244 995q17 0 25 -12l69 -105l68 105q5 8 11 10t14 2h45q13 0 23 -2.5t10 -16.5q0 -8 -6 -15l-111 -163q-11 -17 -28 -17h-40
q-20 0 -28.5 5.5t-17.5 18.5l-106 156q-6 7 -6 15q0 19 21 19h57z" />
    <glyph glyph-name="rcaron" unicode="&#x159;" horiz-adv-x="697" 
d="M70 0zM639 34q0 -34 -35 -34h-140q-35 0 -35 34v190q0 40 -14.5 53t-48.5 13h-107q-19 0 -19 -23v-233q0 -34 -35 -34h-99q-36 0 -36 34v646q0 39 14 53t55 14h308q48 0 78.5 -6.5t48.5 -23t25 -44t7 -69.5v-141q0 -19 -4.5 -34t-10 -26.5t-10 -19.5t-4.5 -13
q0 -6 9.5 -15.5t21.5 -25t21.5 -38.5t9.5 -56v-201zM411 563q0 35 -13.5 46t-48.5 11h-89q-20 0 -20 -21v-163q0 -21 22 -21h103q46 0 46 52v96zM244 995q17 0 25 -12l69 -105l68 105q5 8 11 10t14 2h45q13 0 23 -2.5t10 -16.5q0 -8 -6 -15l-111 -163q-11 -17 -28 -17h-40
q-20 0 -28.5 5.5t-17.5 18.5l-106 156q-6 7 -6 15q0 19 21 19h57z" />
    <glyph glyph-name="Sacute" unicode="&#x15a;" horiz-adv-x="638" 
d="M54 0zM239 499q0 -22 4 -29t24 -10l195 -30q38 -6 62.5 -16t38.5 -26.5t19.5 -41t5.5 -59.5v-79q0 -63 -8 -103t-31.5 -63.5t-67 -32.5t-113.5 -9h-134q-42 0 -75 6.5t-55.5 23t-34.5 44.5t-12 72v42q0 26 26 26h115q22 0 22 -20v-29q0 -17 8.5 -24t31.5 -7h88
q26 0 36 12t10 53v44q0 20 -8 27.5t-24 9.5l-176 28q-36 6 -61.5 15.5t-41 26.5t-22.5 43.5t-7 66.5v79q0 63 8 103t32 63.5t68 32.5t116 9h95q55 0 93.5 -5.5t62.5 -21t34.5 -44.5t10.5 -76v-30q0 -27 -27 -27h-110q-21 0 -21 20v11q0 21 -7.5 29.5t-30.5 8.5h-93
q-26 0 -36 -11.5t-10 -53.5v-48zM254 797q-9 0 -15 3.5t-6 11.5q0 7 6 15l98 139q5 7 9 9t16 2h99q20 0 20 -19q0 -12 -9 -19l-122 -132q-7 -6 -12.5 -8t-15.5 -2h-68z" />
    <glyph glyph-name="sacute" unicode="&#x15b;" horiz-adv-x="638" 
d="M54 0zM239 499q0 -22 4 -29t24 -10l195 -30q38 -6 62.5 -16t38.5 -26.5t19.5 -41t5.5 -59.5v-79q0 -63 -8 -103t-31.5 -63.5t-67 -32.5t-113.5 -9h-134q-42 0 -75 6.5t-55.5 23t-34.5 44.5t-12 72v42q0 26 26 26h115q22 0 22 -20v-29q0 -17 8.5 -24t31.5 -7h88
q26 0 36 12t10 53v44q0 20 -8 27.5t-24 9.5l-176 28q-36 6 -61.5 15.5t-41 26.5t-22.5 43.5t-7 66.5v79q0 63 8 103t32 63.5t68 32.5t116 9h95q55 0 93.5 -5.5t62.5 -21t34.5 -44.5t10.5 -76v-30q0 -27 -27 -27h-110q-21 0 -21 20v11q0 21 -7.5 29.5t-30.5 8.5h-93
q-26 0 -36 -11.5t-10 -53.5v-48zM254 797q-9 0 -15 3.5t-6 11.5q0 7 6 15l98 139q5 7 9 9t16 2h99q20 0 20 -19q0 -12 -9 -19l-122 -132q-7 -6 -12.5 -8t-15.5 -2h-68z" />
    <glyph glyph-name="Scircumflex" unicode="&#x15c;" horiz-adv-x="638" 
d="M54 0zM239 499q0 -22 4 -29t24 -10l195 -30q38 -6 62.5 -16t38.5 -26.5t19.5 -41t5.5 -59.5v-79q0 -63 -8 -103t-31.5 -63.5t-67 -32.5t-113.5 -9h-134q-42 0 -75 6.5t-55.5 23t-34.5 44.5t-12 72v42q0 26 26 26h115q22 0 22 -20v-29q0 -17 8.5 -24t31.5 -7h88
q26 0 36 12t10 53v44q0 20 -8 27.5t-24 9.5l-176 28q-36 6 -61.5 15.5t-41 26.5t-22.5 43.5t-7 66.5v79q0 63 8 103t32 63.5t68 32.5t116 9h95q55 0 93.5 -5.5t62.5 -21t34.5 -44.5t10.5 -76v-30q0 -27 -27 -27h-110q-21 0 -21 20v11q0 21 -7.5 29.5t-30.5 8.5h-93
q-26 0 -36 -11.5t-10 -53.5v-48zM417 781q-17 0 -25 11l-69 106l-68 -106q-5 -7 -11 -9t-14 -2h-45q-13 0 -23 2.5t-10 16.5q0 3 2 7l4 8l111 163q11 17 28 17h40q21 0 29 -5.5t17 -18.5l106 -156q6 -6 6 -15q0 -19 -21 -19h-57z" />
    <glyph glyph-name="scircumflex" unicode="&#x15d;" horiz-adv-x="638" 
d="M54 0zM239 499q0 -22 4 -29t24 -10l195 -30q38 -6 62.5 -16t38.5 -26.5t19.5 -41t5.5 -59.5v-79q0 -63 -8 -103t-31.5 -63.5t-67 -32.5t-113.5 -9h-134q-42 0 -75 6.5t-55.5 23t-34.5 44.5t-12 72v42q0 26 26 26h115q22 0 22 -20v-29q0 -17 8.5 -24t31.5 -7h88
q26 0 36 12t10 53v44q0 20 -8 27.5t-24 9.5l-176 28q-36 6 -61.5 15.5t-41 26.5t-22.5 43.5t-7 66.5v79q0 63 8 103t32 63.5t68 32.5t116 9h95q55 0 93.5 -5.5t62.5 -21t34.5 -44.5t10.5 -76v-30q0 -27 -27 -27h-110q-21 0 -21 20v11q0 21 -7.5 29.5t-30.5 8.5h-93
q-26 0 -36 -11.5t-10 -53.5v-48zM417 781q-17 0 -25 11l-69 106l-68 -106q-5 -7 -11 -9t-14 -2h-45q-13 0 -23 2.5t-10 16.5q0 3 2 7l4 8l111 163q11 17 28 17h40q21 0 29 -5.5t17 -18.5l106 -156q6 -6 6 -15q0 -19 -21 -19h-57z" />
    <glyph glyph-name="Scedilla" unicode="&#x15e;" horiz-adv-x="638" 
d="M54 0zM239 499q0 -22 4 -29t24 -10l195 -30q38 -6 62.5 -16t38.5 -26.5t19.5 -41t5.5 -59.5v-79q0 -63 -8 -103t-31.5 -63.5t-67 -32.5t-113.5 -9h-134q-42 0 -75 6.5t-55.5 23t-34.5 44.5t-12 72v42q0 26 26 26h115q22 0 22 -20v-29q0 -17 8.5 -24t31.5 -7h88
q26 0 36 12t10 53v44q0 20 -8 27.5t-24 9.5l-176 28q-36 6 -61.5 15.5t-41 26.5t-22.5 43.5t-7 66.5v79q0 63 8 103t32 63.5t68 32.5t116 9h95q55 0 93.5 -5.5t62.5 -21t34.5 -44.5t10.5 -76v-30q0 -27 -27 -27h-110q-21 0 -21 20v11q0 21 -7.5 29.5t-30.5 8.5h-93
q-26 0 -36 -11.5t-10 -53.5v-48zM319 -162q0 15 -9 20l-41 27q-9 6 -14.5 13t-4.5 22v21q0 40 29 40h84q30 0 30 -39v-124q0 -23 -20 -23h-32q-22 0 -22 23v20z" />
    <glyph glyph-name="scedilla" unicode="&#x15f;" horiz-adv-x="638" 
d="M54 0zM239 499q0 -22 4 -29t24 -10l195 -30q38 -6 62.5 -16t38.5 -26.5t19.5 -41t5.5 -59.5v-79q0 -63 -8 -103t-31.5 -63.5t-67 -32.5t-113.5 -9h-134q-42 0 -75 6.5t-55.5 23t-34.5 44.5t-12 72v42q0 26 26 26h115q22 0 22 -20v-29q0 -17 8.5 -24t31.5 -7h88
q26 0 36 12t10 53v44q0 20 -8 27.5t-24 9.5l-176 28q-36 6 -61.5 15.5t-41 26.5t-22.5 43.5t-7 66.5v79q0 63 8 103t32 63.5t68 32.5t116 9h95q55 0 93.5 -5.5t62.5 -21t34.5 -44.5t10.5 -76v-30q0 -27 -27 -27h-110q-21 0 -21 20v11q0 21 -7.5 29.5t-30.5 8.5h-93
q-26 0 -36 -11.5t-10 -53.5v-48zM319 -162q0 15 -9 20l-41 27q-9 6 -14.5 13t-4.5 22v21q0 40 29 40h84q30 0 30 -39v-124q0 -23 -20 -23h-32q-22 0 -22 23v20z" />
    <glyph glyph-name="Scaron" unicode="&#x160;" horiz-adv-x="638" 
d="M54 0zM239 499q0 -22 4 -29t24 -10l195 -30q38 -6 62.5 -16t38.5 -26.5t19.5 -41t5.5 -59.5v-79q0 -63 -8 -103t-31.5 -63.5t-67 -32.5t-113.5 -9h-134q-42 0 -75 6.5t-55.5 23t-34.5 44.5t-12 72v42q0 26 26 26h115q22 0 22 -20v-29q0 -17 8.5 -24t31.5 -7h88
q26 0 36 12t10 53v44q0 20 -8 27.5t-24 9.5l-176 28q-36 6 -61.5 15.5t-41 26.5t-22.5 43.5t-7 66.5v79q0 63 8 103t32 63.5t68 32.5t116 9h95q55 0 93.5 -5.5t62.5 -21t34.5 -44.5t10.5 -76v-30q0 -27 -27 -27h-110q-21 0 -21 20v11q0 21 -7.5 29.5t-30.5 8.5h-93
q-26 0 -36 -11.5t-10 -53.5v-48zM225 995q17 0 25 -12l69 -105l68 105q5 8 11 10t14 2h45q13 0 23 -2.5t10 -16.5q0 -8 -6 -15l-111 -163q-11 -17 -28 -17h-40q-20 0 -28.5 5.5t-17.5 18.5l-106 156q-6 7 -6 15q0 19 21 19h57z" />
    <glyph glyph-name="scaron" unicode="&#x161;" horiz-adv-x="638" 
d="M54 0zM239 499q0 -22 4 -29t24 -10l195 -30q38 -6 62.5 -16t38.5 -26.5t19.5 -41t5.5 -59.5v-79q0 -63 -8 -103t-31.5 -63.5t-67 -32.5t-113.5 -9h-134q-42 0 -75 6.5t-55.5 23t-34.5 44.5t-12 72v42q0 26 26 26h115q22 0 22 -20v-29q0 -17 8.5 -24t31.5 -7h88
q26 0 36 12t10 53v44q0 20 -8 27.5t-24 9.5l-176 28q-36 6 -61.5 15.5t-41 26.5t-22.5 43.5t-7 66.5v79q0 63 8 103t32 63.5t68 32.5t116 9h95q55 0 93.5 -5.5t62.5 -21t34.5 -44.5t10.5 -76v-30q0 -27 -27 -27h-110q-21 0 -21 20v11q0 21 -7.5 29.5t-30.5 8.5h-93
q-26 0 -36 -11.5t-10 -53.5v-48zM225 995q17 0 25 -12l69 -105l68 105q5 8 11 10t14 2h45q13 0 23 -2.5t10 -16.5q0 -8 -6 -15l-111 -163q-11 -17 -28 -17h-40q-20 0 -28.5 5.5t-17.5 18.5l-106 156q-6 7 -6 15q0 19 21 19h57z" />
    <glyph glyph-name="Tcedilla" unicode="&#x162;" horiz-adv-x="546" 
d="M9 0zM222 0q-36 0 -36 34v525q0 32 -29 32h-122q-26 0 -26 27v101q0 28 26 28h476q27 0 27 -27v-102q0 -27 -27 -27h-122q-27 0 -27 -32v-525q0 -34 -37 -34h-103zM270 -162q0 15 -9 20l-41 27q-9 6 -14.5 13t-4.5 22v21q0 40 29 40h84q30 0 30 -39v-124q0 -23 -20 -23
h-32q-22 0 -22 23v20z" />
    <glyph glyph-name="tcedilla" unicode="&#x163;" horiz-adv-x="546" 
d="M9 0zM222 0q-36 0 -36 34v525q0 32 -29 32h-122q-26 0 -26 27v101q0 28 26 28h476q27 0 27 -27v-102q0 -27 -27 -27h-122q-27 0 -27 -32v-525q0 -34 -37 -34h-103zM270 -162q0 15 -9 20l-41 27q-9 6 -14.5 13t-4.5 22v21q0 40 29 40h84q30 0 30 -39v-124q0 -23 -20 -23
h-32q-22 0 -22 23v20z" />
    <glyph glyph-name="Tcaron" unicode="&#x164;" horiz-adv-x="546" 
d="M9 0zM222 0q-36 0 -36 34v525q0 32 -29 32h-122q-26 0 -26 27v101q0 28 26 28h476q27 0 27 -27v-102q0 -27 -27 -27h-122q-27 0 -27 -32v-525q0 -34 -37 -34h-103zM179 995q17 0 25 -12l69 -105l68 105q5 8 11 10t14 2h45q13 0 23 -2.5t10 -16.5q0 -8 -6 -15l-111 -163
q-11 -17 -28 -17h-40q-20 0 -28.5 5.5t-17.5 18.5l-106 156q-6 7 -6 15q0 19 21 19h57z" />
    <glyph glyph-name="tcaron" unicode="&#x165;" horiz-adv-x="546" 
d="M9 0zM222 0q-36 0 -36 34v525q0 32 -29 32h-122q-26 0 -26 27v101q0 28 26 28h476q27 0 27 -27v-102q0 -27 -27 -27h-122q-27 0 -27 -32v-525q0 -34 -37 -34h-103zM179 995q17 0 25 -12l69 -105l68 105q5 8 11 10t14 2h45q13 0 23 -2.5t10 -16.5q0 -8 -6 -15l-111 -163
q-11 -17 -28 -17h-40q-20 0 -28.5 5.5t-17.5 18.5l-106 156q-6 7 -6 15q0 19 21 19h57z" />
    <glyph glyph-name="Tbar" unicode="&#x166;" horiz-adv-x="546" 
d="M362 351v-317q0 -34 -37 -34h-103q-36 0 -36 34v317h-58q-20 0 -32 5.5t-12 22.5v47q0 12 8.5 19.5t20.5 7.5h73v106q0 32 -29 32h-122q-26 0 -26 27v101q0 28 26 28h476q27 0 27 -27v-102q0 -27 -27 -27h-122q-27 0 -27 -32v-106h56q22 0 32.5 -5.5t10.5 -21.5v-47
q0 -12 -7.5 -20t-21.5 -8h-70z" />
    <glyph glyph-name="tbar" unicode="&#x167;" horiz-adv-x="546" 
d="M9 0zM362 351v-317q0 -34 -37 -34h-103q-36 0 -36 34v317h-58q-20 0 -32 5.5t-12 22.5v47q0 12 8.5 19.5t20.5 7.5h73v106q0 32 -29 32h-122q-26 0 -26 27v101q0 28 26 28h476q27 0 27 -27v-102q0 -27 -27 -27h-122q-27 0 -27 -32v-106h56q22 0 32.5 -5.5t10.5 -21.5v-47
q0 -12 -7.5 -20t-21.5 -8h-70z" />
    <glyph glyph-name="Utilde" unicode="&#x168;" horiz-adv-x="699" 
d="M67 0zM308 0q-69 0 -115 4.5t-74 20.5t-40 47t-12 84v555q0 36 36 36h136q36 0 36 -36v-530q0 -30 10 -41t36 -11h94q27 0 37 11t10 41v530q0 18 8 27t28 9h98q35 0 35 -36v-555q0 -41 -8 -70.5t-28.5 -48.5t-54 -28t-84.5 -9h-148zM551 873q0 -38 -23.5 -49.5
t-60.5 -11.5q-22 0 -48 5t-52.5 11.5t-52 11.5t-45.5 5q-11 0 -19.5 -4t-16 -9l-13.5 -9t-12 -4q-10 0 -16.5 7t-6.5 18v28q0 39 24.5 51t61.5 12q21 0 47 -5t52.5 -11.5t52 -11.5t45.5 -5q11 0 19.5 4t16 9l13.5 9t12 4q22 0 22 -26v-29z" />
    <glyph glyph-name="utilde" unicode="&#x169;" horiz-adv-x="699" 
d="M67 0zM308 0q-69 0 -115 4.5t-74 20.5t-40 47t-12 84v555q0 36 36 36h136q36 0 36 -36v-530q0 -30 10 -41t36 -11h94q27 0 37 11t10 41v530q0 18 8 27t28 9h98q35 0 35 -36v-555q0 -41 -8 -70.5t-28.5 -48.5t-54 -28t-84.5 -9h-148zM551 873q0 -38 -23.5 -49.5
t-60.5 -11.5q-22 0 -48 5t-52.5 11.5t-52 11.5t-45.5 5q-11 0 -19.5 -4t-16 -9l-13.5 -9t-12 -4q-10 0 -16.5 7t-6.5 18v28q0 39 24.5 51t61.5 12q21 0 47 -5t52.5 -11.5t52 -11.5t45.5 -5q11 0 19.5 4t16 9l13.5 9t12 4q22 0 22 -26v-29z" />
    <glyph glyph-name="Umacron" unicode="&#x16a;" horiz-adv-x="699" 
d="M67 0zM308 0q-69 0 -115 4.5t-74 20.5t-40 47t-12 84v555q0 36 36 36h136q36 0 36 -36v-530q0 -30 10 -41t36 -11h94q27 0 37 11t10 41v530q0 18 8 27t28 9h98q35 0 35 -36v-555q0 -41 -8 -70.5t-28.5 -48.5t-54 -28t-84.5 -9h-148zM207 836q-14 0 -22 8t-8 21v35
q0 29 30 29h306q30 0 30 -29v-35q0 -13 -7.5 -21t-22.5 -8h-306z" />
    <glyph glyph-name="umacron" unicode="&#x16b;" horiz-adv-x="699" 
d="M67 0zM308 0q-69 0 -115 4.5t-74 20.5t-40 47t-12 84v555q0 36 36 36h136q36 0 36 -36v-530q0 -30 10 -41t36 -11h94q27 0 37 11t10 41v530q0 18 8 27t28 9h98q35 0 35 -36v-555q0 -41 -8 -70.5t-28.5 -48.5t-54 -28t-84.5 -9h-148zM207 836q-14 0 -22 8t-8 21v35
q0 29 30 29h306q30 0 30 -29v-35q0 -13 -7.5 -21t-22.5 -8h-306z" />
    <glyph glyph-name="Ubreve" unicode="&#x16c;" horiz-adv-x="699" 
d="M67 0zM308 0q-69 0 -115 4.5t-74 20.5t-40 47t-12 84v555q0 36 36 36h136q36 0 36 -36v-530q0 -30 10 -41t36 -11h94q27 0 37 11t10 41v530q0 18 8 27t28 9h98q35 0 35 -36v-555q0 -41 -8 -70.5t-28.5 -48.5t-54 -28t-84.5 -9h-148zM521 952q0 -81 -37.5 -125t-118.5 -44
q-83 0 -119.5 45t-36.5 125v9q0 22 24 22h52q20 0 20 -22q0 -52 12.5 -73.5t47.5 -21.5t47.5 22t12.5 73q0 22 22 22h51q23 0 23 -22v-10z" />
    <glyph glyph-name="ubreve" unicode="&#x16d;" horiz-adv-x="699" 
d="M67 0zM308 0q-69 0 -115 4.5t-74 20.5t-40 47t-12 84v555q0 36 36 36h136q36 0 36 -36v-530q0 -30 10 -41t36 -11h94q27 0 37 11t10 41v530q0 18 8 27t28 9h98q35 0 35 -36v-555q0 -41 -8 -70.5t-28.5 -48.5t-54 -28t-84.5 -9h-148zM521 952q0 -81 -37.5 -125t-118.5 -44
q-83 0 -119.5 45t-36.5 125v9q0 22 24 22h52q20 0 20 -22q0 -52 12.5 -73.5t47.5 -21.5t47.5 22t12.5 73q0 22 22 22h51q23 0 23 -22v-10z" />
    <glyph glyph-name="Uring" unicode="&#x16e;" horiz-adv-x="699" 
d="M67 0zM308 0q-69 0 -115 4.5t-74 20.5t-40 47t-12 84v555q0 36 36 36h136q36 0 36 -36v-530q0 -30 10 -41t36 -11h94q27 0 37 11t10 41v530q0 18 8 27t28 9h98q35 0 35 -36v-555q0 -41 -8 -70.5t-28.5 -48.5t-54 -28t-84.5 -9h-148zM330 767q-26 0 -40.5 3t-22 12
t-9.5 24.5t-2 40.5v68q0 25 2 40.5t9.5 24.5t22 12t40.5 3h78q25 0 39.5 -3t22 -12t9.5 -24.5t2 -40.5v-68q0 -25 -2 -40.5t-9.5 -24.5t-22 -12t-39.5 -3h-78zM324 849q0 -14 3 -17t15 -3h54q12 0 15 3t3 17v64q0 14 -3 17t-15 3h-54q-12 0 -15 -3t-3 -17v-64z" />
    <glyph glyph-name="uring" unicode="&#x16f;" horiz-adv-x="699" 
d="M67 0zM308 0q-69 0 -115 4.5t-74 20.5t-40 47t-12 84v555q0 36 36 36h136q36 0 36 -36v-530q0 -30 10 -41t36 -11h94q27 0 37 11t10 41v530q0 18 8 27t28 9h98q35 0 35 -36v-555q0 -41 -8 -70.5t-28.5 -48.5t-54 -28t-84.5 -9h-148zM330 767q-26 0 -40.5 3t-22 12
t-9.5 24.5t-2 40.5v68q0 25 2 40.5t9.5 24.5t22 12t40.5 3h78q25 0 39.5 -3t22 -12t9.5 -24.5t2 -40.5v-68q0 -25 -2 -40.5t-9.5 -24.5t-22 -12t-39.5 -3h-78zM324 849q0 -14 3 -17t15 -3h54q12 0 15 3t3 17v64q0 14 -3 17t-15 3h-54q-12 0 -15 -3t-3 -17v-64z" />
    <glyph glyph-name="Uhungarumlaut" unicode="&#x170;" horiz-adv-x="699" 
d="M67 0zM308 0q-69 0 -115 4.5t-74 20.5t-40 47t-12 84v555q0 36 36 36h136q36 0 36 -36v-530q0 -30 10 -41t36 -11h94q27 0 37 11t10 41v530q0 18 8 27t28 9h98q35 0 35 -36v-555q0 -41 -8 -70.5t-28.5 -48.5t-54 -28t-84.5 -9h-148zM416 797q-9 0 -15 3.5t-6 11.5
q0 7 6 15l98 139q5 7 9 9t16 2h99q20 0 20 -19q0 -12 -9 -19l-122 -132q-7 -6 -12.5 -8t-15.5 -2h-68zM160 797q-9 0 -15 3.5t-6 11.5q0 7 6 15l98 139q5 7 9 9t16 2h99q20 0 20 -19q0 -12 -9 -19l-122 -132q-7 -6 -12.5 -8t-15.5 -2h-68z" />
    <glyph glyph-name="uhungarumlaut" unicode="&#x171;" horiz-adv-x="699" 
d="M67 0zM308 0q-69 0 -115 4.5t-74 20.5t-40 47t-12 84v555q0 36 36 36h136q36 0 36 -36v-530q0 -30 10 -41t36 -11h94q27 0 37 11t10 41v530q0 18 8 27t28 9h98q35 0 35 -36v-555q0 -41 -8 -70.5t-28.5 -48.5t-54 -28t-84.5 -9h-148zM416 797q-9 0 -15 3.5t-6 11.5
q0 7 6 15l98 139q5 7 9 9t16 2h99q20 0 20 -19q0 -12 -9 -19l-122 -132q-7 -6 -12.5 -8t-15.5 -2h-68zM160 797q-9 0 -15 3.5t-6 11.5q0 7 6 15l98 139q5 7 9 9t16 2h99q20 0 20 -19q0 -12 -9 -19l-122 -132q-7 -6 -12.5 -8t-15.5 -2h-68z" />
    <glyph glyph-name="Uogonek" unicode="&#x172;" horiz-adv-x="699" 
d="M354 -205q-44 0 -62.5 15t-18.5 59v26q0 21 6 34.5t22 24.5l41 30q6 3 6 9q0 7 -8 7h-32q-69 0 -115 4.5t-74 20.5t-40 47t-12 84v555q0 36 36 36h136q36 0 36 -36v-530q0 -30 10 -41t36 -11h94q27 0 37 11t10 41v530q0 18 8 27t28 9h98q35 0 35 -36v-555q0 -41 -8 -70.5
t-28.5 -48.5t-54 -28t-84.5 -9q-9 0 -15 -2t-12 -8l-43 -35q-5 -4 -6.5 -7t-1.5 -11v-14q0 -14 10 -14h68q29 0 29 -28v-57q0 -13 -7.5 -21t-21.5 -8h-102z" />
    <glyph glyph-name="uogonek" unicode="&#x173;" horiz-adv-x="699" 
d="M67 0zM354 -205q-44 0 -62.5 15t-18.5 59v26q0 21 6 34.5t22 24.5l41 30q6 3 6 9q0 7 -8 7h-32q-69 0 -115 4.5t-74 20.5t-40 47t-12 84v555q0 36 36 36h136q36 0 36 -36v-530q0 -30 10 -41t36 -11h94q27 0 37 11t10 41v530q0 18 8 27t28 9h98q35 0 35 -36v-555
q0 -41 -8 -70.5t-28.5 -48.5t-54 -28t-84.5 -9q-9 0 -15 -2t-12 -8l-43 -35q-5 -4 -6.5 -7t-1.5 -11v-14q0 -14 10 -14h68q29 0 29 -28v-57q0 -13 -7.5 -21t-21.5 -8h-102z" />
    <glyph glyph-name="Wcircumflex" unicode="&#x174;" horiz-adv-x="953" 
d="M67 0zM221 0q-44 0 -73.5 8.5t-47.5 27t-25.5 47.5t-7.5 71v557q0 36 35 36h139q36 0 36 -36v-536q0 -35 37 -35h81q22 0 22 24v547q0 36 36 36h101q36 0 36 -36v-547q0 -24 26 -24h73q33 0 33 35v536q0 36 36 36h92q36 0 36 -36v-555q0 -53 -11 -83.5t-33.5 -47t-57 -21
t-80.5 -4.5h-483zM597 781q-17 0 -25 11l-69 106l-68 -106q-5 -7 -11 -9t-14 -2h-45q-13 0 -23 2.5t-10 16.5q0 3 2 7l4 8l111 163q11 17 28 17h40q21 0 29 -5.5t17 -18.5l106 -156q6 -6 6 -15q0 -19 -21 -19h-57z" />
    <glyph glyph-name="wcircumflex" unicode="&#x175;" horiz-adv-x="953" 
d="M67 0zM221 0q-44 0 -73.5 8.5t-47.5 27t-25.5 47.5t-7.5 71v557q0 36 35 36h139q36 0 36 -36v-536q0 -35 37 -35h81q22 0 22 24v547q0 36 36 36h101q36 0 36 -36v-547q0 -24 26 -24h73q33 0 33 35v536q0 36 36 36h92q36 0 36 -36v-555q0 -53 -11 -83.5t-33.5 -47t-57 -21
t-80.5 -4.5h-483zM597 781q-17 0 -25 11l-69 106l-68 -106q-5 -7 -11 -9t-14 -2h-45q-13 0 -23 2.5t-10 16.5q0 3 2 7l4 8l111 163q11 17 28 17h40q21 0 29 -5.5t17 -18.5l106 -156q6 -6 6 -15q0 -19 -21 -19h-57z" />
    <glyph glyph-name="Ycircumflex" unicode="&#x176;" horiz-adv-x="670" 
d="M53 0zM462 283q-26 0 -34 -8.5t-8 -33.5v-207q0 -34 -36 -34h-102q-37 0 -37 34v210q0 23 -7 31t-33 8h-65q-45 0 -66 29t-21 75v323q0 37 30 37h107q30 0 30 -37v-274q0 -23 7 -31t30 -8h127q20 0 27.5 8t7.5 31v274q0 37 30 37h138q29 0 29 -37v-323q0 -45 -26 -74.5
t-72 -29.5h-56zM412 781q-17 0 -25 11l-69 106l-68 -106q-5 -7 -11 -9t-14 -2h-45q-13 0 -23 2.5t-10 16.5q0 3 2 7l4 8l111 163q11 17 28 17h40q21 0 29 -5.5t17 -18.5l106 -156q6 -6 6 -15q0 -19 -21 -19h-57z" />
    <glyph glyph-name="ycircumflex" unicode="&#x177;" horiz-adv-x="670" 
d="M53 0zM462 283q-26 0 -34 -8.5t-8 -33.5v-207q0 -34 -36 -34h-102q-37 0 -37 34v210q0 23 -7 31t-33 8h-65q-45 0 -66 29t-21 75v323q0 37 30 37h107q30 0 30 -37v-274q0 -23 7 -31t30 -8h127q20 0 27.5 8t7.5 31v274q0 37 30 37h138q29 0 29 -37v-323q0 -45 -26 -74.5
t-72 -29.5h-56zM412 781q-17 0 -25 11l-69 106l-68 -106q-5 -7 -11 -9t-14 -2h-45q-13 0 -23 2.5t-10 16.5q0 3 2 7l4 8l111 163q11 17 28 17h40q21 0 29 -5.5t17 -18.5l106 -156q6 -6 6 -15q0 -19 -21 -19h-57z" />
    <glyph glyph-name="Ydieresis" unicode="&#x178;" horiz-adv-x="670" 
d="M53 0zM462 283q-26 0 -34 -8.5t-8 -33.5v-207q0 -34 -36 -34h-102q-37 0 -37 34v210q0 23 -7 31t-33 8h-65q-45 0 -66 29t-21 75v323q0 37 30 37h107q30 0 30 -37v-274q0 -23 7 -31t30 -8h127q20 0 27.5 8t7.5 31v274q0 37 30 37h138q29 0 29 -37v-323q0 -45 -26 -74.5
t-72 -29.5h-56zM407 808q-13 0 -21 7.5t-8 20.5v87q0 13 8 20.5t21 7.5h72q29 0 29 -28v-87q0 -28 -29 -28h-72zM168 808q-30 0 -30 28v87q0 28 30 28h72q13 0 21 -7.5t8 -20.5v-87q0 -13 -8 -20.5t-21 -7.5h-72z" />
    <glyph glyph-name="Zacute" unicode="&#x179;" horiz-adv-x="660" 
d="M64 0zM124 0q-60 0 -60 65v189q0 37 27 58l304 231q15 12 15 27v16q0 17 -20 17h-289q-32 0 -32 32v78q0 34 32 34h433q54 0 54 -53v-168q0 -14 -3.5 -25.5t-8.5 -20.5l-300 -240q-20 -17 -20 -38v-20q0 -20 23 -20h295q28 0 28 -28v-103q0 -31 -30 -31h-448zM269 797
q-9 0 -15 3.5t-6 11.5q0 7 6 15l98 139q5 7 9 9t16 2h99q20 0 20 -19q0 -12 -9 -19l-122 -132q-7 -6 -12.5 -8t-15.5 -2h-68z" />
    <glyph glyph-name="zacute" unicode="&#x17a;" horiz-adv-x="660" 
d="M64 0zM124 0q-60 0 -60 65v189q0 37 27 58l304 231q15 12 15 27v16q0 17 -20 17h-289q-32 0 -32 32v78q0 34 32 34h433q54 0 54 -53v-168q0 -14 -3.5 -25.5t-8.5 -20.5l-300 -240q-20 -17 -20 -38v-20q0 -20 23 -20h295q28 0 28 -28v-103q0 -31 -30 -31h-448zM269 797
q-9 0 -15 3.5t-6 11.5q0 7 6 15l98 139q5 7 9 9t16 2h99q20 0 20 -19q0 -12 -9 -19l-122 -132q-7 -6 -12.5 -8t-15.5 -2h-68z" />
    <glyph glyph-name="Zdotaccent" unicode="&#x17b;" horiz-adv-x="660" 
d="M64 0zM124 0q-60 0 -60 65v189q0 37 27 58l304 231q15 12 15 27v16q0 17 -20 17h-289q-32 0 -32 32v78q0 34 32 34h433q54 0 54 -53v-168q0 -14 -3.5 -25.5t-8.5 -20.5l-300 -240q-20 -17 -20 -38v-20q0 -20 23 -20h295q28 0 28 -28v-103q0 -31 -30 -31h-448zM305 808
q-30 0 -30 28v87q0 28 30 28h72q13 0 21 -7.5t8 -20.5v-87q0 -13 -8 -20.5t-21 -7.5h-72z" />
    <glyph glyph-name="zdotaccent" unicode="&#x17c;" horiz-adv-x="660" 
d="M64 0zM124 0q-60 0 -60 65v189q0 37 27 58l304 231q15 12 15 27v16q0 17 -20 17h-289q-32 0 -32 32v78q0 34 32 34h433q54 0 54 -53v-168q0 -14 -3.5 -25.5t-8.5 -20.5l-300 -240q-20 -17 -20 -38v-20q0 -20 23 -20h295q28 0 28 -28v-103q0 -31 -30 -31h-448zM305 808
q-30 0 -30 28v87q0 28 30 28h72q13 0 21 -7.5t8 -20.5v-87q0 -13 -8 -20.5t-21 -7.5h-72z" />
    <glyph glyph-name="Zcaron" unicode="&#x17d;" horiz-adv-x="660" 
d="M64 0zM124 0q-60 0 -60 65v189q0 37 27 58l304 231q15 12 15 27v16q0 17 -20 17h-289q-32 0 -32 32v78q0 34 32 34h433q54 0 54 -53v-168q0 -14 -3.5 -25.5t-8.5 -20.5l-300 -240q-20 -17 -20 -38v-20q0 -20 23 -20h295q28 0 28 -28v-103q0 -31 -30 -31h-448zM247 995
q17 0 25 -12l69 -105l68 105q5 8 11 10t14 2h45q13 0 23 -2.5t10 -16.5q0 -8 -6 -15l-111 -163q-11 -17 -28 -17h-40q-20 0 -28.5 5.5t-17.5 18.5l-106 156q-6 7 -6 15q0 19 21 19h57z" />
    <glyph glyph-name="zcaron" unicode="&#x17e;" horiz-adv-x="660" 
d="M64 0zM124 0q-60 0 -60 65v189q0 37 27 58l304 231q15 12 15 27v16q0 17 -20 17h-289q-32 0 -32 32v78q0 34 32 34h433q54 0 54 -53v-168q0 -14 -3.5 -25.5t-8.5 -20.5l-300 -240q-20 -17 -20 -38v-20q0 -20 23 -20h295q28 0 28 -28v-103q0 -31 -30 -31h-448zM247 995
q17 0 25 -12l69 -105l68 105q5 8 11 10t14 2h45q13 0 23 -2.5t10 -16.5q0 -8 -6 -15l-111 -163q-11 -17 -28 -17h-40q-20 0 -28.5 5.5t-17.5 18.5l-106 156q-6 7 -6 15q0 19 21 19h57z" />
    <glyph glyph-name="florin" unicode="&#x192;" 
d="M356 -66q-10 -58 -42 -83.5t-92 -25.5h-170q-22 0 -22 20l13 86q3 24 30 24h60q27 0 40.5 6t17.5 30l64 396q0 11 -13 11h-32q-21 0 -21 18l6 43q1 10 3.5 17t7.5 12.5t14 10t24 10.5q20 8 27 14.5t9 20.5l15 94q9 58 42 83.5t93 25.5h170q23 0 23 -21q0 -2 -0.5 -4
t-0.5 -4l-12 -77q-2 -13 -10.5 -19t-19.5 -6h-61q-28 0 -41 -6t-17 -30l-9 -58q0 -5 3.5 -7.5t14.5 -2.5h92q11 0 16 -5t5 -19l-11 -70q-6 -23 -29 -23h-98q-9 0 -11.5 -3.5t-4.5 -10.5z" />
    <glyph glyph-name="Scommaaccent" unicode="&#x218;" horiz-adv-x="638" 
d="M54 0zM239 499q0 -22 4 -29t24 -10l195 -30q38 -6 62.5 -16t38.5 -26.5t19.5 -41t5.5 -59.5v-79q0 -63 -8 -103t-31.5 -63.5t-67 -32.5t-113.5 -9h-134q-42 0 -75 6.5t-55.5 23t-34.5 44.5t-12 72v42q0 26 26 26h115q22 0 22 -20v-29q0 -17 8.5 -24t31.5 -7h88
q26 0 36 12t10 53v44q0 20 -8 27.5t-24 9.5l-176 28q-36 6 -61.5 15.5t-41 26.5t-22.5 43.5t-7 66.5v79q0 63 8 103t32 63.5t68 32.5t116 9h95q55 0 93.5 -5.5t62.5 -21t34.5 -44.5t10.5 -76v-30q0 -27 -27 -27h-110q-21 0 -21 20v11q0 21 -7.5 29.5t-30.5 8.5h-93
q-26 0 -36 -11.5t-10 -53.5v-48zM319 -162q0 15 -9 20l-41 27q-9 6 -14.5 13t-4.5 22v21q0 40 29 40h84q30 0 30 -39v-124q0 -23 -20 -23h-32q-22 0 -22 23v20z" />
    <glyph glyph-name="scommaaccent" unicode="&#x219;" horiz-adv-x="638" 
d="M54 0zM239 499q0 -22 4 -29t24 -10l195 -30q38 -6 62.5 -16t38.5 -26.5t19.5 -41t5.5 -59.5v-79q0 -63 -8 -103t-31.5 -63.5t-67 -32.5t-113.5 -9h-134q-42 0 -75 6.5t-55.5 23t-34.5 44.5t-12 72v42q0 26 26 26h115q22 0 22 -20v-29q0 -17 8.5 -24t31.5 -7h88
q26 0 36 12t10 53v44q0 20 -8 27.5t-24 9.5l-176 28q-36 6 -61.5 15.5t-41 26.5t-22.5 43.5t-7 66.5v79q0 63 8 103t32 63.5t68 32.5t116 9h95q55 0 93.5 -5.5t62.5 -21t34.5 -44.5t10.5 -76v-30q0 -27 -27 -27h-110q-21 0 -21 20v11q0 21 -7.5 29.5t-30.5 8.5h-93
q-26 0 -36 -11.5t-10 -53.5v-48zM319 -162q0 15 -9 20l-41 27q-9 6 -14.5 13t-4.5 22v21q0 40 29 40h84q30 0 30 -39v-124q0 -23 -20 -23h-32q-22 0 -22 23v20z" />
    <glyph glyph-name="uni021A" unicode="&#x21a;" horiz-adv-x="546" 
d="M9 0zM222 0q-36 0 -36 34v525q0 32 -29 32h-122q-26 0 -26 27v101q0 28 26 28h476q27 0 27 -27v-102q0 -27 -27 -27h-122q-27 0 -27 -32v-525q0 -34 -37 -34h-103zM270 -162q0 15 -9 20l-41 27q-9 6 -14.5 13t-4.5 22v21q0 40 29 40h84q30 0 30 -39v-124q0 -23 -20 -23
h-32q-22 0 -22 23v20z" />
    <glyph glyph-name="uni021B" unicode="&#x21b;" horiz-adv-x="546" 
d="M9 0zM222 0q-36 0 -36 34v525q0 32 -29 32h-122q-26 0 -26 27v101q0 28 26 28h476q27 0 27 -27v-102q0 -27 -27 -27h-122q-27 0 -27 -32v-525q0 -34 -37 -34h-103zM270 -162q0 15 -9 20l-41 27q-9 6 -14.5 13t-4.5 22v21q0 40 29 40h84q30 0 30 -39v-124q0 -23 -20 -23
h-32q-22 0 -22 23v20z" />
    <glyph glyph-name="dotlessj" unicode="&#x237;" horiz-adv-x="572" 
d="M16 0zM143 0q-71 0 -99 28t-28 94v48q0 26 26 26h108q9 0 14.5 -4t5.5 -16v-28q0 -8 2 -10.5t10 -2.5h82q26 0 33 17.5t7 59.5v499q0 36 35 36h130q35 0 35 -36v-512q0 -50 -7 -87t-26 -62t-53.5 -37.5t-89.5 -12.5h-185z" />
    <glyph glyph-name="circumflex" unicode="&#x2c6;" horiz-adv-x="483" 
d="M335 589q-17 0 -25 11l-69 106l-68 -106q-5 -7 -11 -9t-14 -2h-45q-13 0 -23 2.5t-10 16.5q0 3 2 7l4 8l111 163q11 17 28 17h40q21 0 29 -5.5t17 -18.5l106 -156q6 -6 6 -15q0 -19 -21 -19h-57z" />
    <glyph glyph-name="caron" unicode="&#x2c7;" horiz-adv-x="483" 
d="M148 803q17 0 25 -12l69 -105l68 105q5 8 11 10t14 2h45q13 0 23 -2.5t10 -16.5q0 -8 -6 -15l-111 -163q-11 -17 -28 -17h-40q-20 0 -28.5 5.5t-17.5 18.5l-106 156q-6 7 -6 15q0 19 21 19h57z" />
    <glyph glyph-name="breve" unicode="&#x2d8;" horiz-adv-x="452" 
d="M382 760q0 -81 -37.5 -125t-118.5 -44q-83 0 -119.5 45t-36.5 125v9q0 22 24 22h52q20 0 20 -22q0 -52 12.5 -73.5t47.5 -21.5t47.5 22t12.5 73q0 22 22 22h51q23 0 23 -22v-10z" />
    <glyph glyph-name="dotaccent" unicode="&#x2d9;" horiz-adv-x="271" 
d="M100 616q-30 0 -30 28v87q0 28 30 28h72q13 0 21 -7.5t8 -20.5v-87q0 -13 -8 -20.5t-21 -7.5h-72z" />
    <glyph glyph-name="ring" unicode="&#x2da;" horiz-adv-x="366" 
d="M144 575q-26 0 -40.5 3t-22 12t-9.5 24.5t-2 40.5v68q0 25 2 40.5t9.5 24.5t22 12t40.5 3h78q25 0 39.5 -3t22 -12t9.5 -24.5t2 -40.5v-68q0 -25 -2 -40.5t-9.5 -24.5t-22 -12t-39.5 -3h-78zM138 657q0 -14 3 -17t15 -3h54q12 0 15 3t3 17v64q0 14 -3 17t-15 3h-54
q-12 0 -15 -3t-3 -17v-64z" />
    <glyph glyph-name="ogonek" unicode="&#x2db;" horiz-adv-x="353" 
d="M151 -205q-44 0 -62.5 15t-18.5 59v26q0 39 28 59l73 51q7 7 20 7h34q5 0 8 -3t3 -6q0 -4 -4 -7l-49 -41q-5 -4 -6.5 -7t-1.5 -11v-14q0 -14 11 -14h68q29 0 29 -28v-57q0 -13 -7.5 -21t-21.5 -8h-103z" />
    <glyph glyph-name="tilde" unicode="&#x2dc;" horiz-adv-x="507" 
d="M436 681q0 -38 -23.5 -49.5t-60.5 -11.5q-22 0 -48 5t-52.5 11.5t-52 11.5t-45.5 5q-11 0 -19.5 -4t-16 -9l-13.5 -9t-12 -4q-10 0 -16.5 7t-6.5 18v28q0 39 24.5 51t61.5 12q21 0 47 -5t52.5 -11.5t52 -11.5t45.5 -5q11 0 19.5 4t16 9l13.5 9t12 4q22 0 22 -26v-29z" />
    <glyph glyph-name="hungarumlaut" unicode="&#x2dd;" horiz-adv-x="644" 
d="M347 605q-9 0 -15 3.5t-6 11.5q0 7 6 15l98 139q5 7 9 9t16 2h99q20 0 20 -19q0 -12 -9 -19l-122 -132q-7 -6 -12.5 -8t-15.5 -2h-68zM91 605q-9 0 -15 3.5t-6 11.5q0 7 6 15l98 139q5 7 9 9t16 2h99q20 0 20 -19q0 -12 -9 -19l-122 -132q-7 -6 -12.5 -8t-15.5 -2h-68z
" />
    <glyph glyph-name="Delta" unicode="&#x394;" horiz-adv-x="702" 
d="M99 0q-39 0 -39 41v353q0 19 1.5 33t5.5 26.5t11.5 26t19.5 30.5l139 201q11 17 27.5 26.5t46.5 9.5h83q19 0 37.5 -9.5t30.5 -26.5l137 -199q12 -17 20 -30.5t13 -26.5t7.5 -26.5t2.5 -31.5v-356q0 -41 -40 -41h-503zM208 156h210v207q0 21 -0.5 33.5t-4 24.5t-11 26.5
t-20.5 39.5q-11 21 -20 33.5t-16.5 19t-14 8t-13.5 1.5h-8q-6 0 -11.5 -1.5t-11.5 -7t-13.5 -15.5t-17.5 -27q-18 -30 -27.5 -47.5t-14 -30t-5.5 -23.5t-1 -28v-213z" />
    <glyph glyph-name="Omega" unicode="&#x3a9;" horiz-adv-x="677" 
d="M301 596q-35 0 -49 -13.5t-14 -52.5v-142q0 -11 0.5 -18.5t1.5 -14t3 -14t5 -17.5l55 -148q4 -12 7 -21.5t5.5 -19t3.5 -20t1 -25.5v-21q0 -35 -11 -52t-48 -17h-192q-30 0 -30 31v83q0 28 27 28h46q19 0 19 15q0 4 -2 10l-51 134q-5 12 -7.5 21.5t-4 19t-2 21t-0.5 26.5
v88q0 82 7 134.5t31.5 82.5t73 41.5t132.5 11.5h61q84 0 132.5 -11.5t73 -41.5t31.5 -82.5t7 -134.5v-88q0 -15 -0.5 -26.5t-2 -21t-4 -19t-7.5 -21.5l-51 -134q-2 -6 -2 -10q0 -15 19 -15h46q27 0 27 -28v-83q0 -31 -30 -31h-175q-37 0 -48 17t-11 52v21q0 29 3.5 45.5
t13.5 40.5l55 148q3 10 5 17.5t3 14t1.5 14t0.5 18.5v142q0 39 -14 52.5t-48 13.5h-93z" />
    <glyph glyph-name="mu" unicode="&#x3bc;" horiz-adv-x="616" 
d="M215 555q33 0 33 -32v-385q0 -22 30 -22h56q32 0 41.5 14.5t9.5 55.5v337q0 32 34 32h96q34 0 34 -32v-360q0 -44 -5.5 -75t-19 -50.5t-37 -29t-60.5 -9.5q-5 0 -8.5 0.5t-7.5 0.5l-173 9q-8 0 -11 -7.5t-3 -14.5q0 -8 0.5 -12.5t2 -10t4.5 -12t8 -17.5q6 -11 9.5 -18.5
t5 -14t2 -13.5t0.5 -17v-44q0 -33 -33 -33h-118q-35 0 -35 33v695q0 32 35 32h110z" />
    <glyph glyph-name="pi" unicode="&#x3c0;" horiz-adv-x="659" 
d="M474 0q-54 0 -74 24.5t-20 75.5v328q0 12 -15 12h-106q-14 0 -14 -16v-375q0 -26 -12 -37.5t-32 -11.5h-88q-24 0 -33.5 14t-9.5 37v471q0 33 33 33h422q24 0 24 -24v-382q0 -15 7.5 -22.5t27.5 -10.5q22 -4 30 -10.5t8 -27.5v-44q0 -17 -11 -25.5t-28 -8.5h-109z" />
    <glyph glyph-name="Wgrave" unicode="&#x1e80;" horiz-adv-x="953" 
d="M67 0zM221 0q-44 0 -73.5 8.5t-47.5 27t-25.5 47.5t-7.5 71v557q0 36 35 36h139q36 0 36 -36v-536q0 -35 37 -35h81q22 0 22 24v547q0 36 36 36h101q36 0 36 -36v-547q0 -24 26 -24h73q33 0 33 35v536q0 36 36 36h92q36 0 36 -36v-555q0 -53 -11 -83.5t-33.5 -47t-57 -21
t-80.5 -4.5h-483zM504 797q-17 0 -27 10l-123 132q-9 9 -9 19q0 19 21 19h98q12 0 16 -2t9 -9l98 -139q6 -8 6 -15q0 -8 -6 -11.5t-14 -3.5h-69z" />
    <glyph glyph-name="wgrave" unicode="&#x1e81;" horiz-adv-x="953" 
d="M67 0zM221 0q-44 0 -73.5 8.5t-47.5 27t-25.5 47.5t-7.5 71v557q0 36 35 36h139q36 0 36 -36v-536q0 -35 37 -35h81q22 0 22 24v547q0 36 36 36h101q36 0 36 -36v-547q0 -24 26 -24h73q33 0 33 35v536q0 36 36 36h92q36 0 36 -36v-555q0 -53 -11 -83.5t-33.5 -47t-57 -21
t-80.5 -4.5h-483zM504 797q-17 0 -27 10l-123 132q-9 9 -9 19q0 19 21 19h98q12 0 16 -2t9 -9l98 -139q6 -8 6 -15q0 -8 -6 -11.5t-14 -3.5h-69z" />
    <glyph glyph-name="Wacute" unicode="&#x1e82;" horiz-adv-x="953" 
d="M67 0zM221 0q-44 0 -73.5 8.5t-47.5 27t-25.5 47.5t-7.5 71v557q0 36 35 36h139q36 0 36 -36v-536q0 -35 37 -35h81q22 0 22 24v547q0 36 36 36h101q36 0 36 -36v-547q0 -24 26 -24h73q33 0 33 35v536q0 36 36 36h92q36 0 36 -36v-555q0 -53 -11 -83.5t-33.5 -47t-57 -21
t-80.5 -4.5h-483zM431 797q-9 0 -15 3.5t-6 11.5q0 7 6 15l98 139q5 7 9 9t16 2h99q20 0 20 -19q0 -12 -9 -19l-122 -132q-7 -6 -12.5 -8t-15.5 -2h-68z" />
    <glyph glyph-name="wacute" unicode="&#x1e83;" horiz-adv-x="953" 
d="M67 0zM221 0q-44 0 -73.5 8.5t-47.5 27t-25.5 47.5t-7.5 71v557q0 36 35 36h139q36 0 36 -36v-536q0 -35 37 -35h81q22 0 22 24v547q0 36 36 36h101q36 0 36 -36v-547q0 -24 26 -24h73q33 0 33 35v536q0 36 36 36h92q36 0 36 -36v-555q0 -53 -11 -83.5t-33.5 -47t-57 -21
t-80.5 -4.5h-483zM431 797q-9 0 -15 3.5t-6 11.5q0 7 6 15l98 139q5 7 9 9t16 2h99q20 0 20 -19q0 -12 -9 -19l-122 -132q-7 -6 -12.5 -8t-15.5 -2h-68z" />
    <glyph glyph-name="Wdieresis" unicode="&#x1e84;" horiz-adv-x="953" 
d="M67 0zM221 0q-44 0 -73.5 8.5t-47.5 27t-25.5 47.5t-7.5 71v557q0 36 35 36h139q36 0 36 -36v-536q0 -35 37 -35h81q22 0 22 24v547q0 36 36 36h101q36 0 36 -36v-547q0 -24 26 -24h73q33 0 33 35v536q0 36 36 36h92q36 0 36 -36v-555q0 -53 -11 -83.5t-33.5 -47t-57 -21
t-80.5 -4.5h-483zM590 808q-13 0 -21 7.5t-8 20.5v87q0 13 8 20.5t21 7.5h72q29 0 29 -28v-87q0 -28 -29 -28h-72zM351 808q-30 0 -30 28v87q0 28 30 28h72q13 0 21 -7.5t8 -20.5v-87q0 -13 -8 -20.5t-21 -7.5h-72z" />
    <glyph glyph-name="wdieresis" unicode="&#x1e85;" horiz-adv-x="953" 
d="M67 0zM221 0q-44 0 -73.5 8.5t-47.5 27t-25.5 47.5t-7.5 71v557q0 36 35 36h139q36 0 36 -36v-536q0 -35 37 -35h81q22 0 22 24v547q0 36 36 36h101q36 0 36 -36v-547q0 -24 26 -24h73q33 0 33 35v536q0 36 36 36h92q36 0 36 -36v-555q0 -53 -11 -83.5t-33.5 -47t-57 -21
t-80.5 -4.5h-483zM590 808q-13 0 -21 7.5t-8 20.5v87q0 13 8 20.5t21 7.5h72q29 0 29 -28v-87q0 -28 -29 -28h-72zM351 808q-30 0 -30 28v87q0 28 30 28h72q13 0 21 -7.5t8 -20.5v-87q0 -13 -8 -20.5t-21 -7.5h-72z" />
    <glyph glyph-name="Ygrave" unicode="&#x1ef2;" horiz-adv-x="670" 
d="M53 0zM462 283q-26 0 -34 -8.5t-8 -33.5v-207q0 -34 -36 -34h-102q-37 0 -37 34v210q0 23 -7 31t-33 8h-65q-45 0 -66 29t-21 75v323q0 37 30 37h107q30 0 30 -37v-274q0 -23 7 -31t30 -8h127q20 0 27.5 8t7.5 31v274q0 37 30 37h138q29 0 29 -37v-323q0 -45 -26 -74.5
t-72 -29.5h-56zM326 797q-17 0 -27 10l-123 132q-9 9 -9 19q0 19 21 19h98q12 0 16 -2t9 -9l98 -139q6 -8 6 -15q0 -8 -6 -11.5t-14 -3.5h-69z" />
    <glyph glyph-name="ygrave" unicode="&#x1ef3;" horiz-adv-x="670" 
d="M53 0zM462 283q-26 0 -34 -8.5t-8 -33.5v-207q0 -34 -36 -34h-102q-37 0 -37 34v210q0 23 -7 31t-33 8h-65q-45 0 -66 29t-21 75v323q0 37 30 37h107q30 0 30 -37v-274q0 -23 7 -31t30 -8h127q20 0 27.5 8t7.5 31v274q0 37 30 37h138q29 0 29 -37v-323q0 -45 -26 -74.5
t-72 -29.5h-56zM326 797q-17 0 -27 10l-123 132q-9 9 -9 19q0 19 21 19h98q12 0 16 -2t9 -9l98 -139q6 -8 6 -15q0 -8 -6 -11.5t-14 -3.5h-69z" />
    <glyph glyph-name="endash" unicode="&#x2013;" horiz-adv-x="541" 
d="M61 296q-29 0 -29 28v47q0 28 29 28h419q13 0 21 -7.5t8 -20.5v-47q0 -13 -8 -20.5t-21 -7.5h-419z" />
    <glyph glyph-name="emdash" unicode="&#x2014;" horiz-adv-x="757" 
d="M61 296q-29 0 -29 28v47q0 28 29 28h634q30 0 30 -28v-47q0 -28 -30 -28h-634z" />
    <glyph glyph-name="quoteleft" unicode="&#x2018;" horiz-adv-x="317" 
d="M162 678q0 -16 11 -24l52 -33q12 -8 16.5 -17.5t4.5 -26.5v-65q0 -49 -35 -49h-104q-37 0 -37 47v230q0 28 26 28h38q28 0 28 -28v-62z" />
    <glyph glyph-name="quoteright" unicode="&#x2019;" horiz-adv-x="317" 
d="M155 552q0 17 -11 25l-52 33q-13 8 -17.5 17.5t-4.5 26.5v65q0 49 36 49h104q36 0 36 -47v-230q0 -28 -25 -28h-39q-27 0 -27 28v61z" />
    <glyph glyph-name="quotesinglbase" unicode="&#x201a;" horiz-adv-x="317" 
d="M155 -52q0 16 -11 24l-52 33q-13 8 -17.5 17.5t-4.5 26.5v65q0 49 36 49h104q36 0 36 -47v-230q0 -28 -25 -28h-39q-27 0 -27 28v62z" />
    <glyph glyph-name="quotedblleft" unicode="&#x201c;" horiz-adv-x="634" 
d="M70 463zM162 678q0 -16 11 -24l52 -33q12 -8 16.5 -17.5t4.5 -26.5v-65q0 -49 -35 -49h-104q-37 0 -37 47v230q0 28 26 28h38q28 0 28 -28v-62zM479 678q0 -16 11 -24l52 -33q12 -8 16.5 -17.5t4.5 -26.5v-65q0 -49 -35 -49h-104q-37 0 -37 47v230q0 28 26 28h38
q28 0 28 -28v-62z" />
    <glyph glyph-name="quotedblright" unicode="&#x201d;" horiz-adv-x="634" 
d="M70 463zM155 552q0 17 -11 25l-52 33q-13 8 -17.5 17.5t-4.5 26.5v65q0 49 36 49h104q36 0 36 -47v-230q0 -28 -25 -28h-39q-27 0 -27 28v61zM472 552q0 17 -11 25l-52 33q-13 8 -17.5 17.5t-4.5 26.5v65q0 49 36 49h104q36 0 36 -47v-230q0 -28 -25 -28h-39
q-27 0 -27 28v61z" />
    <glyph glyph-name="quotedblbase" unicode="&#x201e;" horiz-adv-x="634" 
d="M70 0zM155 -52q0 16 -11 24l-52 33q-13 8 -17.5 17.5t-4.5 26.5v65q0 49 36 49h104q36 0 36 -47v-230q0 -28 -25 -28h-39q-27 0 -27 28v62zM472 -52q0 16 -11 24l-52 33q-13 8 -17.5 17.5t-4.5 26.5v65q0 49 36 49h104q36 0 36 -47v-230q0 -28 -25 -28h-39q-27 0 -27 28
v62z" />
    <glyph glyph-name="dagger" unicode="&#x2020;" horiz-adv-x="495" 
d="M227 0q-29 0 -29 28v441h-99q-14 0 -21.5 8t-7.5 21v37q0 28 29 28h99v155q0 13 7.5 21t21.5 8h40q14 0 21 -8t7 -21v-155h101q28 0 28 -28v-37q0 -13 -7 -21t-21 -8h-101v-441q0 -28 -28 -28h-40z" />
    <glyph glyph-name="daggerdbl" unicode="&#x2021;" horiz-adv-x="495" 
d="M227 0q-29 0 -29 28v152h-99q-29 0 -29 29v36q0 29 29 29h99v195h-99q-14 0 -21.5 8t-7.5 21v37q0 28 29 28h99v155q0 13 7.5 21t21.5 8h40q14 0 21 -8t7 -21v-155h101q28 0 28 -28v-37q0 -13 -7 -21t-21 -8h-101v-195h101q28 0 28 -29v-36q0 -29 -28 -29h-101v-152
q0 -28 -28 -28h-40z" />
    <glyph glyph-name="bullet" unicode="&#x2022;" horiz-adv-x="433" 
d="M229 225q-41 0 -71 7t-49.5 24t-29 45t-9.5 71q0 81 34.5 113.5t111.5 32.5q78 0 112.5 -32t34.5 -104v-10q0 -78 -32.5 -112.5t-101.5 -34.5z" />
    <glyph glyph-name="ellipsis" unicode="&#x2026;" horiz-adv-x="974" 
d="M85 0zM121 0q-22 0 -29 11.5t-7 33.5v72q0 23 7.5 34.5t28.5 11.5h104q21 0 28.5 -11.5t7.5 -34.5v-72q0 -22 -7 -33.5t-29 -11.5h-104zM434 0q-22 0 -29 11.5t-7 33.5v72q0 23 7.5 34.5t28.5 11.5h104q21 0 28.5 -11.5t7.5 -34.5v-72q0 -22 -7 -33.5t-29 -11.5h-104z
M748 0q-22 0 -29 11.5t-7 33.5v72q0 23 7.5 34.5t28.5 11.5h104q21 0 28.5 -11.5t7.5 -34.5v-72q0 -22 -7 -33.5t-29 -11.5h-104z" />
    <glyph glyph-name="perthousand" unicode="&#x2030;" horiz-adv-x="1251" 
d="M66 0zM150 333q-23 0 -39 4.5t-26 15.5t-14.5 29t-4.5 46v224q0 55 19 75t65 20h131q46 0 65.5 -20t19.5 -75v-224q0 -28 -4.5 -46t-15 -29t-26.5 -15.5t-39 -4.5h-131zM173 439q0 -22 18 -22h51q17 0 17 22v202q0 22 -17 22h-51q-18 0 -18 -22v-202zM272 0
q-11 0 -17.5 6.5t-6.5 15.5t4 16l319 689q5 9 11 14.5t17 5.5h38q26 0 26 -25q0 -9 -4 -16l-318 -689q-8 -17 -29 -17h-40zM625 0q-23 0 -39 4.5t-26 15.5t-14.5 29t-4.5 46v224q0 55 19 75t65 20h131q46 0 65.5 -20t19.5 -75v-224q0 -28 -4.5 -46t-15 -29t-26.5 -15.5
t-39 -4.5h-131zM648 106q0 -22 18 -22h51q17 0 17 22v202q0 22 -17 22h-51q-18 0 -18 -22v-202zM969 0q-23 0 -39 4.5t-26 15.5t-14.5 29t-4.5 46v224q0 55 19 75t65 20h131q46 0 65.5 -20t19.5 -75v-224q0 -28 -4.5 -46t-15 -29t-26.5 -15.5t-39 -4.5h-131zM992 106
q0 -22 18 -22h51q17 0 17 22v202q0 22 -17 22h-51q-18 0 -18 -22v-202z" />
    <glyph glyph-name="guilsinglleft" unicode="&#x2039;" horiz-adv-x="258" 
d="M236 427q0 -18 -12 -25l-106 -69l106 -69q8 -5 10 -10.5t2 -13.5v-45q0 -13 -3 -23t-17 -10q-6 0 -14 5l-164 111q-17 11 -17 29v40q0 20 6 28t19 17l156 107q8 5 14 5q8 0 14 -4.5t6 -15.5v-57z" />
    <glyph glyph-name="guilsinglright" unicode="&#x203a;" horiz-adv-x="258" 
d="M22 484q0 11 6 15.5t14 4.5q7 0 15 -5l155 -107q13 -9 19 -17t6 -28v-40q0 -17 -17 -29l-163 -111q-12 -5 -15 -5q-14 0 -17 10t-3 23v45q0 16 12 24l106 69l-106 69q-12 7 -12 25v57z" />
    <glyph glyph-name="fraction" unicode="&#x2044;" horiz-adv-x="205" 
d="M-81 0q-11 0 -17.5 6.5t-6.5 15.5t4 16l319 689q5 9 11 14.5t17 5.5h38q26 0 26 -25q0 -9 -4 -16l-318 -689q-8 -17 -29 -17h-40z" />
    <glyph glyph-name="zerosuperior" unicode="&#x2070;" horiz-adv-x="398" 
d="M47 333zM131 333q-23 0 -39 4.5t-26 15.5t-14.5 29t-4.5 46v224q0 55 19 75t65 20h131q46 0 65.5 -20t19.5 -75v-224q0 -28 -4.5 -46t-15 -29t-26.5 -15.5t-39 -4.5h-131zM154 439q0 -22 18 -22h51q17 0 17 22v202q0 22 -17 22h-51q-18 0 -18 -22v-202z" />
    <glyph glyph-name="foursuperior" unicode="&#x2074;" horiz-adv-x="398" 
d="M46 333zM348 363q0 -30 -31 -30h-56q-32 0 -32 30v85q0 8 -6 8h-116q-61 0 -61 62v198q0 31 31 31h51q31 0 31 -31v-175q0 -9 7 -9h57q6 0 6 6v57q0 31 31 31h57q31 0 31 -31v-232z" />
    <glyph glyph-name="fivesuperior" unicode="&#x2075;" horiz-adv-x="398" 
d="M58 333zM78 333q-20 0 -20 22v51q0 21 20 21h145q10 0 15 4.5t5 16.5v41q0 11 -5 15.5t-20 4.5h-127q-20 0 -26 9t-6 23l8 172q1 17 10 25.5t22 8.5h227q21 0 21 -22v-43q0 -19 -21 -19h-151q-8 0 -8 -12l-3 -59h68q35 0 58 -5t36.5 -17.5t19 -33t5.5 -50.5v-41
q0 -30 -4 -51t-15 -34.5t-30 -20t-49 -6.5h-175z" />
    <glyph glyph-name="sixsuperior" unicode="&#x2076;" horiz-adv-x="398" 
d="M46 333zM170 333q-38 0 -62.5 4.5t-38 16t-18.5 31.5t-5 50v219q0 46 23 69.5t77 23.5h82q50 0 68 -17t18 -50v-30q0 -19 -22 -19h-55q-11 0 -14 3t-3 11v9q0 9 -14 9h-41q-17 0 -17 -20v-62q0 -7 9 -7h82q34 0 56 -5.5t34.5 -17t17 -30t4.5 -43.5v-40q0 -57 -19.5 -81
t-76.5 -24h-85zM250 467q0 19 -7.5 24.5t-33.5 5.5h-52q-9 0 -9 -10v-43q0 -20 6 -24t22 -4h42q32 0 32 25v26z" />
    <glyph glyph-name="sevensuperior" unicode="&#x2077;" horiz-adv-x="398" 
d="M32 333zM248 477q-5 -5 -5 -17v-102q0 -25 -25 -25h-61q-27 0 -27 25v118q0 22 14 33l112 99q6 6 6 17v28q0 8 -8 8h-120q-7 0 -7 -8v-22q0 -21 -22 -21h-54q-19 0 -19 21v82q0 15 7.5 24.5t22.5 9.5h274q24 0 24 -25v-122q0 -11 -4 -20.5t-12 -16.5z" />
    <glyph glyph-name="eightsuperior" unicode="&#x2078;" horiz-adv-x="398" 
d="M38 333zM111 333q-44 0 -58.5 19t-14.5 57v57q0 15 1 24t3.5 16t7 12t11.5 13t10 12t3 9q0 3 -4 7.5t-9.5 10t-9.5 12.5t-4 17v76q0 42 18.5 57t68.5 15h125q50 0 69 -15t19 -57v-76q0 -10 -4 -17t-9.5 -12.5t-9.5 -10t-4 -7.5q0 -6 2.5 -9.5t10.5 -11.5q7 -7 11 -12.5
t6.5 -12t3.5 -16t1 -24.5v-57q0 -38 -14 -57t-58 -19h-172zM171 507q-25 0 -25 -21v-56q0 -17 17 -17h69q18 0 18 17v56q0 21 -25 21h-54zM171 667q-18 0 -18 -16v-51q0 -21 19 -21h56q19 0 19 21v51q0 16 -18 16h-58z" />
    <glyph glyph-name="ninesuperior" unicode="&#x2079;" horiz-adv-x="398" 
d="M43 333zM224 747q38 0 62 -4.5t38 -16.5t19 -32t5 -50v-206q0 -55 -26 -80t-86 -25h-83q-50 0 -67.5 17t-17.5 51v32q0 18 21 18h56q18 0 18 -16v-7q0 -8 13 -8h46q23 0 23 26v42q0 6 -7 6h-98q-56 0 -76.5 21.5t-20.5 62.5v64q0 57 20 81t77 24h84zM145 604
q0 -18 7 -24.5t33 -6.5h52q8 0 8 13v50q0 18 -5.5 23t-20.5 5h-43q-17 0 -24 -5.5t-7 -19.5v-35z" />
    <glyph glyph-name="zeroinferior" unicode="&#x2080;" horiz-adv-x="398" 
d="M131 0q-23 0 -39 4.5t-26 15.5t-14.5 29t-4.5 46v224q0 55 19 75t65 20h131q46 0 65.5 -20t19.5 -75v-224q0 -28 -4.5 -46t-15 -29t-26.5 -15.5t-39 -4.5h-131zM154 106q0 -22 18 -22h51q17 0 17 22v202q0 22 -17 22h-51q-18 0 -18 -22v-202z" />
    <glyph glyph-name="oneinferior" unicode="&#x2081;" horiz-adv-x="398" 
d="M107 0q-22 0 -22 21v74q0 20 22 20h37q10 0 10 11v182q0 6 -1.5 9t-7.5 5l-14 5q-10 6 -10 22v39q0 19 9.5 22.5t29.5 3.5h54q32 0 32 -35v-256q2 -8 10 -8h30q21 0 21 -20v-74q0 -21 -21 -21h-179z" />
    <glyph glyph-name="twoinferior" unicode="&#x2082;" horiz-adv-x="398" 
d="M81 0q-36 0 -36 33v122q0 45 18.5 67t69.5 24l85 4q14 2 22 7.5t8 19.5v21q0 16 -6 24t-21 8h-132q-29 0 -29 27v28q0 11 6.5 20t22.5 9h138q31 0 53.5 -4t37.5 -16t22 -32.5t7 -53.5v-35q0 -54 -20.5 -76.5t-66.5 -24.5l-89 -3q-13 -2 -18.5 -6t-5.5 -16v-47q0 -6 6 -6
h173q22 0 22 -21v-51q0 -22 -22 -22h-245z" />
    <glyph glyph-name="threeinferior" unicode="&#x2083;" horiz-adv-x="398" 
d="M58 220q0 12 6.5 21t20.5 9h122q18 0 18 19v49q0 14 -14 16h-126q-27 0 -27 29v22q0 11 6.5 20t20.5 9h158q49 0 68.5 -15t19.5 -57v-72q0 -21 -7.5 -31t-7.5 -17q0 -3 6 -10t13.5 -17.5t13.5 -25t6 -32.5v-61q0 -38 -14 -57t-58 -19h-217q-21 0 -21 22v51q0 21 21 21
h148q16 0 16 17v40q0 23 -24 23h-121q-27 0 -27 29v17v0z" />
    <glyph glyph-name="fourinferior" unicode="&#x2084;" horiz-adv-x="398" 
d="M348 30q0 -30 -31 -30h-56q-32 0 -32 30v85q0 8 -6 8h-116q-61 0 -61 62v198q0 31 31 31h51q31 0 31 -31v-175q0 -9 7 -9h57q6 0 6 6v57q0 31 31 31h57q31 0 31 -31v-232z" />
    <glyph glyph-name="fiveinferior" unicode="&#x2085;" horiz-adv-x="398" 
d="M78 0q-20 0 -20 22v51q0 21 20 21h145q10 0 15 4.5t5 16.5v41q0 11 -5 15.5t-20 4.5h-127q-20 0 -26 9t-6 23l8 172q1 17 10 25.5t22 8.5h227q21 0 21 -22v-43q0 -19 -21 -19h-151q-8 0 -8 -12l-3 -59h68q35 0 58 -5t36.5 -17.5t19 -33t5.5 -50.5v-41q0 -30 -4 -51
t-15 -34.5t-30 -20t-49 -6.5h-175z" />
    <glyph glyph-name="sixinferior" unicode="&#x2086;" horiz-adv-x="398" 
d="M170 0q-38 0 -62.5 4.5t-38 16t-18.5 31.5t-5 50v219q0 46 23 69.5t77 23.5h82q50 0 68 -17t18 -50v-30q0 -19 -22 -19h-55q-11 0 -14 3t-3 11v9q0 9 -14 9h-41q-17 0 -17 -20v-62q0 -7 9 -7h82q34 0 56 -5.5t34.5 -17t17 -30t4.5 -43.5v-40q0 -57 -19.5 -81t-76.5 -24
h-85zM250 134q0 19 -7.5 24.5t-33.5 5.5h-52q-9 0 -9 -10v-43q0 -20 6 -24t22 -4h42q32 0 32 25v26z" />
    <glyph glyph-name="seveninferior" unicode="&#x2087;" horiz-adv-x="398" 
d="M248 144q-5 -5 -5 -17v-102q0 -25 -25 -25h-61q-27 0 -27 25v118q0 22 14 33l112 99q6 6 6 17v28q0 8 -8 8h-120q-7 0 -7 -8v-22q0 -21 -22 -21h-54q-19 0 -19 21v82q0 15 7.5 24.5t22.5 9.5h274q24 0 24 -25v-122q0 -11 -4 -20.5t-12 -16.5z" />
    <glyph glyph-name="eightinferior" unicode="&#x2088;" horiz-adv-x="398" 
d="M111 0q-44 0 -58.5 19t-14.5 57v57q0 15 1 24t3.5 16t7 12t11.5 13t10 12t3 9q0 3 -4 7.5t-9.5 10t-9.5 12.5t-4 17v76q0 42 18.5 57t68.5 15h125q50 0 69 -15t19 -57v-76q0 -10 -4 -17t-9.5 -12.5t-9.5 -10t-4 -7.5q0 -6 2.5 -9.5t10.5 -11.5q7 -7 11 -12.5t6.5 -12
t3.5 -16t1 -24.5v-57q0 -38 -14 -57t-58 -19h-172zM171 174q-25 0 -25 -21v-56q0 -17 17 -17h69q18 0 18 17v56q0 21 -25 21h-54zM171 334q-18 0 -18 -16v-51q0 -21 19 -21h56q19 0 19 21v51q0 16 -18 16h-58z" />
    <glyph glyph-name="nineinferior" unicode="&#x2089;" horiz-adv-x="398" 
d="M224 414q38 0 62 -4.5t38 -16.5t19 -32t5 -50v-206q0 -55 -26 -80t-86 -25h-83q-50 0 -67.5 17t-17.5 51v32q0 18 21 18h56q18 0 18 -16v-7q0 -8 13 -8h46q23 0 23 26v42q0 6 -7 6h-98q-56 0 -76.5 21.5t-20.5 62.5v64q0 57 20 81t77 24h84zM145 271q0 -18 7 -24.5
t33 -6.5h52q8 0 8 13v50q0 18 -5.5 23t-20.5 5h-43q-17 0 -24 -5.5t-7 -19.5v-35z" />
    <glyph glyph-name="Euro" unicode="&#x20ac;" 
d="M255 0q-52 0 -82 10.5t-45 32.5t-19 54t-4 76v69q0 14 -16 14h-28q-22 0 -22 22v41q0 22 22 22h26q18 0 18 17v50q0 18 -16 18h-28q-22 0 -22 21v40q0 23 22 23h26q18 0 18 15v54q0 43 4.5 75t20.5 52.5t46.5 30.5t82.5 10h321q26 0 26 -22q0 -7 -1 -8l-17 -80
q-8 -27 -32 -27h-232q-41 0 -41 -39v-38q0 -23 24 -23h203q24 0 24 -19v-4q0 -25 -8 -43t-28 -18h-191q-24 0 -24 -27v-34q0 -24 24 -24h153q23 0 23 -20q0 -10 -1 -11l-6 -31q-4 -23 -29 -23h-140q-24 0 -24 -27v-24q0 -33 12 -43.5t47 -10.5h240q27 0 27 -25v-96
q0 -30 -26 -30h-328z" />
    <glyph glyph-name="uni20B9" unicode="&#x20b9;" 
d="M321 408q0 13 -17 13h-238q-14 0 -22 8t-8 21v46q0 18 6.5 28.5t23.5 10.5h240q15 0 15 16v25q0 32 -11.5 44t-40.5 12h-203q-14 0 -22 8t-8 21v46q0 19 6.5 29.5t23.5 10.5h531q29 0 29 -29v-46q0 -16 -6 -28t-23 -12h-78q-10 0 -10 -8t3.5 -16t3.5 -34v-22
q0 -17 17 -17h64q29 0 29 -28v-46q0 -17 -6 -28.5t-23 -11.5h-64q-17 0 -17 -18v-15q0 -24 -4.5 -38t-10 -23.5t-10 -16.5t-4.5 -15q0 -7 5 -11.5t23 -16.5q8 -5 13.5 -10t10 -11.5t8 -15.5t7.5 -22l51 -170q1 -5 1.5 -8t0.5 -4q0 -26 -34 -26h-141q-15 0 -26.5 9.5
t-16.5 24.5l-49 170q-5 17 -12.5 22t-26.5 5h-76q-24 0 -24 25v60q0 24 24 24h50q46 0 46 52v16z" />
    <glyph glyph-name="trademark" unicode="&#x2122;" horiz-adv-x="1081" 
d="M169 287q-26 0 -26 27v282q0 26 -19 26h-69q-19 0 -19 21v81q0 23 19 23h295q18 0 18 -22v-82q0 -21 -18 -21h-68q-20 0 -20 -26v-282q0 -27 -24 -27h-69zM893 747q31 0 54.5 -4t39 -16.5t23 -37.5t7.5 -67v-307q0 -28 -24 -28h-72q-25 0 -25 28v290q0 30 -26 30h-53
q-17 0 -17 -20v-300q0 -28 -26 -28h-82q-25 0 -25 28v300q0 20 -15 20h-65q-17 0 -17 -20v-300q0 -28 -24 -28h-107q-24 0 -24 28v404q0 28 24 28h454z" />
    <glyph glyph-name="onethird" unicode="&#x2153;" horiz-adv-x="898" 
d="M67 0zM89 333q-22 0 -22 21v74q0 20 22 20h37q10 0 10 11v182q0 6 -1.5 9t-7.5 5l-14 5q-10 6 -10 22v39q0 19 9.5 22.5t29.5 3.5h54q32 0 32 -35v-256q2 -8 10 -8h30q21 0 21 -20v-74q0 -21 -21 -21h-179zM234 0q-11 0 -17.5 6.5t-6.5 15.5t4 16l319 689q5 9 11 14.5
t17 5.5h38q26 0 26 -25q0 -9 -4 -16l-318 -689q-8 -17 -29 -17h-40zM535 220q0 12 6.5 21t20.5 9h122q18 0 18 19v49q0 14 -14 16h-126q-27 0 -27 29v22q0 11 6.5 20t20.5 9h158q49 0 68.5 -15t19.5 -57v-72q0 -21 -7.5 -31t-7.5 -17q0 -3 6 -10t13.5 -17.5t13.5 -25
t6 -32.5v-61q0 -38 -14 -57t-58 -19h-217q-21 0 -21 22v51q0 21 21 21h148q16 0 16 17v40q0 23 -24 23h-121q-27 0 -27 29v17v0z" />
    <glyph glyph-name="twothirds" unicode="&#x2154;" horiz-adv-x="971" 
d="M66 0zM102 333q-36 0 -36 33v122q0 45 18.5 67t69.5 24l85 4q14 2 22 7.5t8 19.5v21q0 16 -6 24t-21 8h-132q-29 0 -29 27v28q0 11 6.5 20t22.5 9h138q31 0 53.5 -4t37.5 -16t22 -32.5t7 -53.5v-35q0 -54 -20.5 -76.5t-66.5 -24.5l-89 -3q-13 -2 -18.5 -6t-5.5 -16v-47
q0 -6 6 -6h173q22 0 22 -21v-51q0 -22 -22 -22h-245zM306 0q-11 0 -17.5 6.5t-6.5 15.5t4 16l319 689q5 9 11 14.5t17 5.5h38q26 0 26 -25q0 -9 -4 -16l-318 -689q-8 -17 -29 -17h-40zM607 220q0 12 6.5 21t20.5 9h122q18 0 18 19v49q0 14 -14 16h-126q-27 0 -27 29v22
q0 11 6.5 20t20.5 9h158q49 0 68.5 -15t19.5 -57v-72q0 -21 -7.5 -31t-7.5 -17q0 -3 6 -10t13.5 -17.5t13.5 -25t6 -32.5v-61q0 -38 -14 -57t-58 -19h-217q-21 0 -21 22v51q0 21 21 21h148q16 0 16 17v40q0 23 -24 23h-121q-27 0 -27 29v17v0z" />
    <glyph glyph-name="oneeighth" unicode="&#x215b;" horiz-adv-x="898" 
d="M67 0zM89 333q-22 0 -22 21v74q0 20 22 20h37q10 0 10 11v182q0 6 -1.5 9t-7.5 5l-14 5q-10 6 -10 22v39q0 19 9.5 22.5t29.5 3.5h54q32 0 32 -35v-256q2 -8 10 -8h30q21 0 21 -20v-74q0 -21 -21 -21h-179zM234 0q-11 0 -17.5 6.5t-6.5 15.5t4 16l319 689q5 9 11 14.5
t17 5.5h38q26 0 26 -25q0 -9 -4 -16l-318 -689q-8 -17 -29 -17h-40zM588 0q-44 0 -58.5 19t-14.5 57v57q0 15 1 24t3.5 16t7 12t11.5 13t10 12t3 9q0 3 -4 7.5t-9.5 10t-9.5 12.5t-4 17v76q0 42 18.5 57t68.5 15h125q50 0 69 -15t19 -57v-76q0 -10 -4 -17t-9.5 -12.5
t-9.5 -10t-4 -7.5q0 -6 2.5 -9.5t10.5 -11.5q7 -7 11 -12.5t6.5 -12t3.5 -16t1 -24.5v-57q0 -38 -14 -57t-58 -19h-172zM648 174q-25 0 -25 -21v-56q0 -17 17 -17h69q18 0 18 17v56q0 21 -25 21h-54zM648 334q-18 0 -18 -16v-51q0 -21 19 -21h56q19 0 19 21v51q0 16 -18 16
h-58z" />
    <glyph glyph-name="threeeighths" unicode="&#x215c;" horiz-adv-x="960" 
d="M66 0zM79 553q0 12 6.5 21t20.5 9h122q18 0 18 19v49q0 14 -14 16h-126q-27 0 -27 29v22q0 11 6.5 20t20.5 9h158q49 0 68.5 -15t19.5 -57v-72q0 -21 -7.5 -31t-7.5 -17q0 -3 6 -10t13.5 -17.5t13.5 -25t6 -32.5v-61q0 -38 -14 -57t-58 -19h-217q-21 0 -21 22v51
q0 21 21 21h148q16 0 16 17v40q0 23 -24 23h-121q-27 0 -27 29v17v0zM295 0q-11 0 -17.5 6.5t-6.5 15.5t4 16l319 689q5 9 11 14.5t17 5.5h38q26 0 26 -25q0 -9 -4 -16l-318 -689q-8 -17 -29 -17h-40zM650 0q-44 0 -58.5 19t-14.5 57v57q0 15 1 24t3.5 16t7 12t11.5 13
t10 12t3 9q0 3 -4 7.5t-9.5 10t-9.5 12.5t-4 17v76q0 42 18.5 57t68.5 15h125q50 0 69 -15t19 -57v-76q0 -10 -4 -17t-9.5 -12.5t-9.5 -10t-4 -7.5q0 -6 2.5 -9.5t10.5 -11.5q7 -7 11 -12.5t6.5 -12t3.5 -16t1 -24.5v-57q0 -38 -14 -57t-58 -19h-172zM710 174q-25 0 -25 -21
v-56q0 -17 17 -17h69q18 0 18 17v56q0 21 -25 21h-54zM710 334q-18 0 -18 -16v-51q0 -21 19 -21h56q19 0 19 21v51q0 16 -18 16h-58z" />
    <glyph glyph-name="fiveeighths" unicode="&#x215d;" horiz-adv-x="947" 
d="M67 0zM87 333q-20 0 -20 22v51q0 21 20 21h145q10 0 15 4.5t5 16.5v41q0 11 -5 15.5t-20 4.5h-127q-20 0 -26 9t-6 23l8 172q1 17 10 25.5t22 8.5h227q21 0 21 -22v-43q0 -19 -21 -19h-151q-8 0 -8 -12l-3 -59h68q35 0 58 -5t36.5 -17.5t19 -33t5.5 -50.5v-41
q0 -30 -4 -51t-15 -34.5t-30 -20t-49 -6.5h-175zM283 0q-11 0 -17.5 6.5t-6.5 15.5t4 16l319 689q5 9 11 14.5t17 5.5h38q26 0 26 -25q0 -9 -4 -16l-318 -689q-8 -17 -29 -17h-40zM637 0q-44 0 -58.5 19t-14.5 57v57q0 15 1 24t3.5 16t7 12t11.5 13t10 12t3 9q0 3 -4 7.5
t-9.5 10t-9.5 12.5t-4 17v76q0 42 18.5 57t68.5 15h125q50 0 69 -15t19 -57v-76q0 -10 -4 -17t-9.5 -12.5t-9.5 -10t-4 -7.5q0 -6 2.5 -9.5t10.5 -11.5q7 -7 11 -12.5t6.5 -12t3.5 -16t1 -24.5v-57q0 -38 -14 -57t-58 -19h-172zM697 174q-25 0 -25 -21v-56q0 -17 17 -17h69
q18 0 18 17v56q0 21 -25 21h-54zM697 334q-18 0 -18 -16v-51q0 -21 19 -21h56q19 0 19 21v51q0 16 -18 16h-58z" />
    <glyph glyph-name="seveneighths" unicode="&#x215e;" horiz-adv-x="930" 
d="M66 0zM282 477q-5 -5 -5 -17v-102q0 -25 -25 -25h-61q-27 0 -27 25v118q0 22 14 33l112 99q6 6 6 17v28q0 8 -8 8h-120q-7 0 -7 -8v-22q0 -21 -22 -21h-54q-19 0 -19 21v82q0 15 7.5 24.5t22.5 9.5h274q24 0 24 -25v-122q0 -11 -4 -20.5t-12 -16.5zM266 0
q-11 0 -17.5 6.5t-6.5 15.5t4 16l319 689q5 9 11 14.5t17 5.5h38q26 0 26 -25q0 -9 -4 -16l-318 -689q-8 -17 -29 -17h-40zM620 0q-44 0 -58.5 19t-14.5 57v57q0 15 1 24t3.5 16t7 12t11.5 13t10 12t3 9q0 3 -4 7.5t-9.5 10t-9.5 12.5t-4 17v76q0 42 18.5 57t68.5 15h125
q50 0 69 -15t19 -57v-76q0 -10 -4 -17t-9.5 -12.5t-9.5 -10t-4 -7.5q0 -6 2.5 -9.5t10.5 -11.5q7 -7 11 -12.5t6.5 -12t3.5 -16t1 -24.5v-57q0 -38 -14 -57t-58 -19h-172zM680 174q-25 0 -25 -21v-56q0 -17 17 -17h69q18 0 18 17v56q0 21 -25 21h-54zM680 334q-18 0 -18 -16
v-51q0 -21 19 -21h56q19 0 19 21v51q0 16 -18 16h-58z" />
    <glyph glyph-name="partialdiff" unicode="&#x2202;" 
d="M169 0q-66 0 -94 23.5t-28 77.5q0 28 4 55.5t11 54.5q9 49 20.5 89t34.5 68t60.5 43t99.5 15h136q14 0 19 5.5t7 17.5l24 117q1 6 1.5 10.5t0.5 9.5q0 26 -31 26h-65q-17 0 -28 -9t-13 -32q-3 -19 -22 -19h-92q-18 0 -18 16q0 36 5 68.5t21.5 57t48 39t85.5 14.5h136
q64 0 93 -34.5t29 -87.5q0 -20 -3 -39l-80 -408q-11 -53 -25 -87.5t-38.5 -54.5t-63 -28t-97.5 -8h-138zM208 210q-2 -11 -3 -22t-3 -22q0 -19 11.5 -27t40.5 -8h68q16 0 26.5 2t18 9t12.5 19t10 33q10 42 14 64t4 33q0 16 -20 16h-83q-25 0 -40.5 -3.5t-26 -14t-17 -29.5
t-12.5 -50z" />
    <glyph glyph-name="product" unicode="&#x220f;" 
d="M522 -175q-39 0 -39 37v765q0 22 -24 22h-252q-26 0 -26 -22v-765q0 -37 -37 -37h-31q-38 0 -38 37v796q0 89 89 89h337q90 0 90 -89v-796q0 -37 -39 -37h-30z" />
    <glyph glyph-name="summation" unicode="&#x2211;" 
d="M167 -175q-32 0 -54 9.5t-22 42.5v29q0 19 4 31t15 30l196 324l-204 327q-11 19 -11 38v38q0 24 13.5 38.5t39.5 14.5h389q32 0 32 -31v-58q0 -30 -32 -30h-292l192 -304q13 -21 13 -32q-2 -6 -5 -14.5t-8 -17.5l-192 -318h292q32 0 32 -28v-58q0 -31 -32 -31h-366z" />
    <glyph glyph-name="minus" unicode="&#x2212;" 
d="M99 326q-14 0 -22 8t-8 21v35q0 19 6.5 29.5t23.5 10.5h467q29 0 29 -29v-35q0 -17 -6 -28.5t-23 -11.5h-467z" />
    <glyph glyph-name="radical" unicode="&#x221a;" 
d="M273 0q-19 0 -27 17l-123 313h-65q-32 0 -32 36v25q0 36 32 36h115q12 0 17.5 -5.5t10.5 -16.5l105 -272l228 592q5 11 10.5 16.5t18.5 5.5h48q27 0 27 -29q0 -9 -2.5 -17t-6.5 -16l-260 -668q-2 -8 -9.5 -12.5t-16.5 -4.5h-70z" />
    <glyph glyph-name="infinity" unicode="&#x221e;" 
d="M643 286q0 -31 -5 -52t-17.5 -33.5t-33.5 -18t-52 -5.5h-124q-20 0 -28 3.5t-20 16.5q-8 8 -15.5 11t-15.5 3q-9 -1 -15.5 -3.5t-14.5 -10.5q-13 -13 -21 -16.5t-27 -3.5h-125q-32 0 -52.5 5.5t-33 18t-17.5 33.5t-5 52v173q0 30 5 51t17.5 33.5t33.5 18t52 5.5h125
q19 0 27.5 -3.5t20.5 -16.5q9 -9 15 -12t15 -3t15.5 3t15.5 12q12 13 20 16.5t28 3.5h124q31 0 52 -5.5t33.5 -18t17.5 -33t5 -51.5v-173zM532 419q0 16 -8 24t-29 8h-83q-22 0 -33 -9t-11 -24v-93q0 -14 11 -23.5t33 -9.5h83q21 0 29 8.5t8 24.5v94zM132 325
q0 -16 8.5 -24.5t29.5 -8.5h83q22 0 32.5 9.5t10.5 23.5v93q0 15 -10.5 24t-32.5 9h-83q-21 0 -29.5 -8t-8.5 -24v-94z" />
    <glyph glyph-name="integral" unicode="&#x222b;" 
d="M176 -175q-30 0 -30 32v46q0 30 30 30h48q23 0 30.5 8.5t7.5 37.5v726q0 49 6 79t22 46.5t44 21.5t73 5h81q31 0 31 -32v-44q0 -30 -29 -30h-48q-23 0 -31.5 -9.5t-8.5 -37.5v-726q0 -42 -4.5 -71t-17 -47t-35 -26.5t-59.5 -8.5h-110z" />
    <glyph glyph-name="approxequal" unicode="&#x2248;" 
d="M69 177zM595 247q0 -16 -12 -29t-32.5 -22t-46.5 -14t-53 -5q-32 0 -61.5 7t-59.5 15.5t-60.5 15.5t-63.5 7q-18 0 -34 -6.5t-29 -14t-23.5 -14t-18.5 -6.5q-18 0 -25 12.5t-7 32.5v31q0 16 12 29t32 22t45.5 14t52.5 5q34 0 64.5 -7t60.5 -15t60 -15t63 -7q19 0 34.5 6
t28 13.5l22.5 13.5t19 6q14 0 23 -7.5t9 -21.5v-46zM595 502q0 -16 -12 -29t-32.5 -22t-46.5 -14t-53 -5q-32 0 -61.5 7t-59.5 15.5t-60.5 15.5t-63.5 7q-18 0 -34 -6.5t-29 -14t-23.5 -14t-18.5 -6.5q-18 0 -25 12.5t-7 32.5v31q0 16 12 29t32 22t45.5 14t52.5 5
q34 0 64.5 -7t60.5 -15t60 -15t63 -7q19 0 34.5 6t28 13.5l22.5 13.5t19 6q14 0 23 -7.5t9 -21.5v-46z" />
    <glyph glyph-name="notequal" unicode="&#x2260;" 
d="M148 0q-11 0 -17 6.5t-6 15.5q0 8 3 16l65 142q2 8 2 10q0 8 -13 8h-83q-14 0 -22 8t-8 21v35q0 19 6.5 29.5t23.5 10.5h136q15 0 22 16l55 119q3 4 3 9q0 8 -13 8h-203q-14 0 -22 8t-8 21v35q0 19 6.5 29.5t23.5 10.5h252q17 0 23 14l73 155q5 9 9.5 14.5t19.5 5.5h37
q27 0 27 -25q0 -9 -5 -16l-60 -132q-3 -3 -3 -8q0 -8 15 -8h79q29 0 29 -29v-35q0 -17 -6 -28.5t-23 -11.5h-129q-17 0 -25 -17l-56 -119q-2 -4 -2 -8q0 -8 14 -8h198q29 0 29 -29v-35q0 -17 -6 -28.5t-23 -11.5h-246q-19 0 -27 -17l-75 -164q-4 -8 -12 -12.5t-17 -4.5h-41z
" />
    <glyph glyph-name="lessequal" unicode="&#x2264;" 
d="M69 0zM69 443q0 23 16 30l454 206q9 4 17 6.5t16 2.5q23 0 23 -25v-55q0 -14 -4.5 -20.5t-14.5 -11.5l-370 -161l370 -161q19 -9 19 -32v-54q0 -26 -23 -26q-17 0 -33 10l-454 206q-16 7 -16 29v56zM99 -42q-14 0 -22 8t-8 21v35q0 19 6.5 29.5t23.5 10.5h467
q29 0 29 -29v-35q0 -17 -6 -28.5t-23 -11.5h-467z" />
    <glyph glyph-name="greaterequal" unicode="&#x2265;" 
d="M69 0zM596 387q0 -10 -4 -18t-12 -11l-453 -206q-11 -5 -18.5 -8t-14.5 -2q-24 0 -24 26v54q0 14 5 20.5t15 11.5l370 161l-370 161q-10 5 -15 11.5t-5 20.5v55q0 14 6.5 19.5t17.5 5.5q7 -1 15 -2.5t18 -6.5l453 -206q16 -6 16 -30v-56zM99 -42q-14 0 -22 8t-8 21v35
q0 19 6.5 29.5t23.5 10.5h467q29 0 29 -29v-35q0 -17 -6 -28.5t-23 -11.5h-467z" />
    <glyph glyph-name="lozenge" unicode="&#x25ca;" 
d="M360 747q23 0 30 -16l162 -358l-162 -357q-6 -16 -30 -16h-55q-24 0 -30 16l-162 357l162 358q7 16 30 16h55zM435 373l-102 237l-104 -237l104 -236z" />
    <glyph glyph-name=".null" horiz-adv-x="0" 
 />
    <glyph glyph-name="nonmarkingreturn" horiz-adv-x="303" 
 />
    <glyph glyph-name=".ttfautohint" horiz-adv-x="303" 
d="M0 0z" />
    </font>
</defs>
</svg>
